{
.appVersion = "1075";
DisplayStrings = (
a/abreveacute,

glyphs = (
{
glyphname = A;
lastChange = "2018-09-12 15:08:20 +0000";
layers = (
{
layerId = "51BB9282-3B82-4DF1-A67A-294D3E37D73A";
paths = (
{
closed = 1;
nodes = (
"255 39 LINE",
"218 39 OFFCURVE",
"167 38 OFFCURVE",
"183 112 CURVE SMOOTH",
"195 162 OFFCURVE",
"263 377 OFFCURVE",
"310 537 CURVE",
"316 505 OFFCURVE",
"327 455 OFFCURVE",
"333 425 CURVE",
"367 313 OFFCURVE",
"424 207 OFFCURVE",
"450 95 CURVE SMOOTH",
"460 50 OFFCURVE",
"430 44 OFFCURVE",
"376 45 CURVE",
"383 0 LINE",
"634 0 LINE",
"627 39 LINE",
"574 38 OFFCURVE",
"558 80 OFFCURVE",
"545 116 CURVE SMOOTH",
"468 322 OFFCURVE",
"415 462 OFFCURVE",
"368 624 CURVE",
"338 614 OFFCURVE",
"301 604 OFFCURVE",
"271 600 CURVE",
"229 457 OFFCURVE",
"172 290 OFFCURVE",
"104 105 CURVE SMOOTH",
"89 66 OFFCURVE",
"61 50 OFFCURVE",
"15 47 CURVE",
"23 0 LINE",
"263 0 LINE"
);
},
{
closed = 1;
nodes = (
"446 275 LINE",
"197 269 LINE",
"197 214 LINE",
"446 216 LINE"
);
}
);
width = 650;
},
{
layerId = "8B9D8DF0-167E-4E5A-BF63-AC43D342B811";
paths = (
{
closed = 1;
nodes = (
"258 39 LINE",
"221 39 OFFCURVE",
"170 38 OFFCURVE",
"193 112 CURVE SMOOTH",
"209 162 OFFCURVE",
"296 377 OFFCURVE",
"357 537 CURVE",
"360 505 OFFCURVE",
"367 455 OFFCURVE",
"370 425 CURVE",
"394 313 OFFCURVE",
"442 207 OFFCURVE",
"458 95 CURVE SMOOTH",
"464 50 OFFCURVE",
"434 44 OFFCURVE",
"380 45 CURVE",
"383 0 LINE",
"634 0 LINE",
"630 39 LINE",
"577 38 OFFCURVE",
"565 80 OFFCURVE",
"555 116 CURVE SMOOTH",
"496 322 OFFCURVE",
"455 462 OFFCURVE",
"423 624 CURVE",
"392 614 OFFCURVE",
"354 604 OFFCURVE",
"323 600 CURVE",
"269 457 OFFCURVE",
"197 290 OFFCURVE",
"113 105 CURVE SMOOTH",
"95 66 OFFCURVE",
"65 50 OFFCURVE",
"19 47 CURVE",
"23 0 LINE",
"263 0 LINE"
);
},
{
closed = 1;
nodes = (
"470 275 LINE",
"221 269 LINE",
"216 214 LINE",
"465 216 LINE"
);
}
);
width = 650;
}
);
unicode = 0041;
},
{
glyphname = Acircumflexhookabove;
lastChange = "2018-09-12 15:08:20 +0000";
layers = (
{
components = (
{
name = A;
},
{
name = circumflexcomb;
transform = "{1, 0, 0, 1, 310, -41}";
}
);
layerId = "51BB9282-3B82-4DF1-A67A-294D3E37D73A";
paths = (
{
closed = 1;
nodes = (
"463 956 OFFCURVE",
"429 956 CURVE SMOOTH",
"401 956 OFFCURVE",
"371 946 OFFCURVE",
"358 940 CURVE",
"350 926 OFFCURVE",
"348 907 OFFCURVE",
"351 892 CURVE",
"366 899 OFFCURVE",
"383 904 OFFCURVE",
"393 904 CURVE SMOOTH",
"423 904 OFFCURVE",
"437 891 OFFCURVE",
"437 864 CURVE SMOOTH",
"437 826 OFFCURVE",
"408 833 OFFCURVE",
"407 772 CURVE",
"460 775 LINE",
"471 829 OFFCURVE",
"504 830 OFFCURVE",
"504 887 CURVE SMOOTH",
"504 946 OFFCURVE"
);
}
);
width = 650;
},
{
components = (
{
name = A;
transform = "{1, 0, 0.08749, 1, 0, 0}";
},
{
name = circumflexcomb;
transform = "{1, 0, 0.08749, 1, 306, -41}";
}
);
layerId = "8B9D8DF0-167E-4E5A-BF63-AC43D342B811";
paths = (
{
closed = 1;
nodes = (
"547 956 OFFCURVE",
"513 956 CURVE SMOOTH",
"485 956 OFFCURVE",
"454 946 OFFCURVE",
"440 940 CURVE",
"431 926 OFFCURVE",
"427 907 OFFCURVE",
"429 892 CURVE",
"445 899 OFFCURVE",
"462 904 OFFCURVE",
"472 904 CURVE SMOOTH",
"502 904 OFFCURVE",
"515 891 OFFCURVE",
"513 864 CURVE SMOOTH",
"509 826 OFFCURVE",
"481 833 OFFCURVE",
"475 772 CURVE",
"528 775 LINE",
"544 829 OFFCURVE",
"577 830 OFFCURVE",
"582 887 CURVE SMOOTH",
"587 946 OFFCURVE"
);
}
);
width = 650;
}
);
unicode = 1EA8;
},
{
glyphname = AE;
lastChange = "2018-09-12 15:08:20 +0000";
layers = (
{
layerId = "51BB9282-3B82-4DF1-A67A-294D3E37D73A";
paths = (
{
closed = 1;
nodes = (
"333 615 CURVE",
"289 496 OFFCURVE",
"198 289 OFFCURVE",
"104 105 CURVE SMOOTH",
"85 69 OFFCURVE",
"61 50 OFFCURVE",
"15 47 CURVE",
"23 0 LINE",
"247 0 LINE",
"239 39 LINE",
"203 39 OFFCURVE",
"182 38 OFFCURVE",
"199 112 CURVE SMOOTH",
"210 164 OFFCURVE",
"323 410 OFFCURVE",
"399 568 CURVE",
"373 548 LINE",
"413 559 OFFCURVE",
"445 557 OFFCURVE",
"448 511 CURVE SMOOTH",
"450 460 OFFCURVE",
"452 405 OFFCURVE",
"452 351 CURVE SMOOTH",
"452 263 OFFCURVE",
"449 176 OFFCURVE",
"444 109 CURVE SMOOTH",
"440 71 OFFCURVE",
"436 52 OFFCURVE",
"377 47 CURVE",
"381 0 LINE",
"831 0 LINE",
"834 40 OFFCURVE",
"834 89 OFFCURVE",
"834 123 CURVE SMOOTH",
"834 146 OFFCURVE",
"834 162 OFFCURVE",
"834 163 CURVE",
"778 157 LINE",
"767 106 OFFCURVE",
"749 60 OFFCURVE",
"716 22 CURVE",
"776 70 LINE",
"745 62 OFFCURVE",
"668 55 OFFCURVE",
"608 55 CURVE SMOOTH",
"593 55 OFFCURVE",
"574 55 OFFCURVE",
"564 56 CURVE SMOOTH",
"537 59 OFFCURVE",
"533 83 OFFCURVE",
"532 104 CURVE SMOOTH",
"531 146 OFFCURVE",
"529 203 OFFCURVE",
"529 266 CURVE SMOOTH",
"529 343 OFFCURVE",
"531 432 OFFCURVE",
"540 518 CURVE SMOOTH",
"542 539 OFFCURVE",
"551 562 OFFCURVE",
"590 562 CURVE SMOOTH",
"646 562 OFFCURVE",
"716 562 OFFCURVE",
"778 556 CURVE",
"705 594 LINE",
"738 564 OFFCURVE",
"758 511 OFFCURVE",
"763 465 CURVE",
"819 460 LINE",
"819 460 OFFCURVE",
"824 509 OFFCURVE",
"824 554 CURVE",
"823 617 LINE",
"748 613 OFFCURVE",
"662 612 OFFCURVE",
"616 612 CURVE SMOOTH",
"600 612 OFFCURVE",
"581 612 OFFCURVE",
"560 612 CURVE SMOOTH",
"529 612 OFFCURVE",
"337 616 OFFCURVE"
);
},
{
closed = 1;
nodes = (
"610 280 OFFCURVE",
"673 280 CURVE SMOOTH",
"699 280 OFFCURVE",
"726 280 OFFCURVE",
"755 278 CURVE",
"755 348 LINE",
"614 335 LINE",
"486 335 OFFCURVE",
"333 331 OFFCURVE",
"228 334 CURVE",
"220 268 LINE",
"288 276 OFFCURVE"
);
}
);
width = 887;
},
{
layerId = "8B9D8DF0-167E-4E5A-BF63-AC43D342B811";
paths = (
{
closed = 1;
nodes = (
"387 615 CURVE",
"332 496 OFFCURVE",
"223 289 OFFCURVE",
"113 105 CURVE SMOOTH",
"91 69 OFFCURVE",
"65 50 OFFCURVE",
"19 47 CURVE",
"23 0 LINE",
"247 0 LINE",
"242 39 LINE",
"206 39 OFFCURVE",
"185 38 OFFCURVE",
"209 112 CURVE SMOOTH",
"224 164 OFFCURVE",
"359 410 OFFCURVE",
"449 568 CURVE",
"421 548 LINE",
"462 559 OFFCURVE",
"494 557 OFFCURVE",
"493 511 CURVE SMOOTH",
"490 460 OFFCURVE",
"487 405 OFFCURVE",
"483 351 CURVE SMOOTH",
"475 263 OFFCURVE",
"464 176 OFFCURVE",
"454 109 CURVE SMOOTH",
"446 71 OFFCURVE",
"441 52 OFFCURVE",
"381 47 CURVE",
"381 0 LINE",
"831 0 LINE",
"837 40 OFFCURVE",
"842 89 OFFCURVE",
"845 123 CURVE SMOOTH",
"847 146 OFFCURVE",
"848 162 OFFCURVE",
"848 163 CURVE",
"792 157 LINE",
"776 106 OFFCURVE",
"754 60 OFFCURVE",
"718 22 CURVE",
"782 70 LINE",
"750 62 OFFCURVE",
"673 55 OFFCURVE",
"613 55 CURVE SMOOTH",
"598 55 OFFCURVE",
"579 55 OFFCURVE",
"569 56 CURVE SMOOTH",
"542 59 OFFCURVE",
"540 83 OFFCURVE",
"541 104 CURVE SMOOTH",
"544 146 OFFCURVE",
"547 203 OFFCURVE",
"552 266 CURVE SMOOTH",
"559 343 OFFCURVE",
"569 432 OFFCURVE",
"585 518 CURVE SMOOTH",
"589 539 OFFCURVE",
"600 562 OFFCURVE",
"639 562 CURVE SMOOTH",
"695 562 OFFCURVE",
"765 562 OFFCURVE",
"827 556 CURVE",
"757 594 LINE",
"787 564 OFFCURVE",
"803 511 OFFCURVE",
"804 465 CURVE",
"859 460 LINE",
"859 460 OFFCURVE",
"869 509 OFFCURVE",
"872 554 CURVE",
"877 617 LINE",
"802 613 OFFCURVE",
"716 612 OFFCURVE",
"670 612 CURVE SMOOTH",
"654 612 OFFCURVE",
"635 612 OFFCURVE",
"614 612 CURVE SMOOTH",
"583 612 OFFCURVE",
"391 616 OFFCURVE"
);
},
{
closed = 1;
nodes = (
"634 280 OFFCURVE",
"697 280 CURVE SMOOTH",
"723 280 OFFCURVE",
"750 280 OFFCURVE",
"779 278 CURVE",
"785 348 LINE",
"643 335 LINE",
"515 335 OFFCURVE",
"362 331 OFFCURVE",
"257 334 CURVE",
"243 268 LINE",
"312 276 OFFCURVE"
);
}
);
width = 887;
}
);
leftMetricsKey = "=A";
unicode = 00C6;
},
{
glyphname = B;
lastChange = "2018-09-12 15:08:21 +0000";
layers = (
{
layerId = "51BB9282-3B82-4DF1-A67A-294D3E37D73A";
paths = (
{
closed = 1;
nodes = (
"412 0 OFFCURVE",
"534 45 OFFCURVE",
"536 177 CURVE SMOOTH",
"537 256 OFFCURVE",
"484 324 OFFCURVE",
"392 336 CURVE",
"367 317 LINE",
"450 321 OFFCURVE",
"501 403 OFFCURVE",
"500 476 CURVE SMOOTH",
"499 568 OFFCURVE",
"421 618 OFFCURVE",
"317 618 CURVE SMOOTH",
"202 618 OFFCURVE",
"164 607 OFFCURVE",
"42 614 CURVE",
"50 566 LINE",
"116 565 OFFCURVE",
"122 528 OFFCURVE",
"125 484 CURVE SMOOTH",
"131 360 OFFCURVE",
"129 263 OFFCURVE",
"122 98 CURVE SMOOTH",
"120 59 OFFCURVE",
"105 44 OFFCURVE",
"44 44 CURVE",
"52 0 LINE",
"288 0 LINE SMOOTH"
);
},
{
closed = 1;
nodes = (
"213 58 OFFCURVE",
"207 102 CURVE SMOOTH",
"199 159 OFFCURVE",
"197 212 OFFCURVE",
"198 289 CURVE",
"225 294 OFFCURVE",
"272 298 OFFCURVE",
"305 297 CURVE SMOOTH",
"393 295 OFFCURVE",
"441 243 OFFCURVE",
"441 176 CURVE SMOOTH",
"441 99 OFFCURVE",
"375 52 OFFCURVE",
"296 52 CURVE SMOOTH",
"237 52 OFFCURVE"
);
},
{
closed = 1;
nodes = (
"200 503 OFFCURVE",
"206 562 CURVE",
"224 569 OFFCURVE",
"258 574 OFFCURVE",
"293 573 CURVE SMOOTH",
"353 571 OFFCURVE",
"406 533 OFFCURVE",
"405 461 CURVE SMOOTH",
"404 413 OFFCURVE",
"376 351 OFFCURVE",
"301 347 CURVE SMOOTH",
"273 346 OFFCURVE",
"240 345 OFFCURVE",
"199 347 CURVE",
"200 422 OFFCURVE"
);
}
);
width = 567;
},
{
layerId = "8B9D8DF0-167E-4E5A-BF63-AC43D342B811";
paths = (
{
closed = 1;
nodes = (
"412 0 OFFCURVE",
"538 45 OFFCURVE",
"551 177 CURVE SMOOTH",
"559 256 OFFCURVE",
"512 324 OFFCURVE",
"421 336 CURVE",
"395 317 LINE",
"478 321 OFFCURVE",
"536 403 OFFCURVE",
"542 476 CURVE SMOOTH",
"549 568 OFFCURVE",
"475 618 OFFCURVE",
"371 618 CURVE SMOOTH",
"256 618 OFFCURVE",
"217 607 OFFCURVE",
"96 614 CURVE",
"100 566 LINE",
"165 565 OFFCURVE",
"168 528 OFFCURVE",
"167 484 CURVE SMOOTH",
"162 360 OFFCURVE",
"152 263 OFFCURVE",
"131 98 CURVE SMOOTH",
"125 59 OFFCURVE",
"109 44 OFFCURVE",
"48 44 CURVE",
"52 0 LINE",
"288 0 LINE SMOOTH"
);
},
{
closed = 1;
nodes = (
"218 58 OFFCURVE",
"216 102 CURVE SMOOTH",
"213 159 OFFCURVE",
"216 212 OFFCURVE",
"223 289 CURVE",
"251 294 OFFCURVE",
"298 298 OFFCURVE",
"331 297 CURVE SMOOTH",
"419 295 OFFCURVE",
"462 243 OFFCURVE",
"456 176 CURVE SMOOTH",
"450 99 OFFCURVE",
"380 52 OFFCURVE",
"301 52 CURVE SMOOTH",
"242 52 OFFCURVE"
);
},
{
closed = 1;
nodes = (
"244 503 OFFCURVE",
"255 562 CURVE",
"274 569 OFFCURVE",
"308 574 OFFCURVE",
"343 573 CURVE SMOOTH",
"403 571 OFFCURVE",
"453 533 OFFCURVE",
"445 461 CURVE SMOOTH",
"440 413 OFFCURVE",
"407 351 OFFCURVE",
"331 347 CURVE SMOOTH",
"303 346 OFFCURVE",
"270 345 OFFCURVE",
"229 347 CURVE",
"237 422 OFFCURVE"
);
}
);
width = 567;
}
);
unicode = 0042;
},
{
glyphname = C;
lastChange = "2018-09-12 15:08:21 +0000";
layers = (
{
layerId = "51BB9282-3B82-4DF1-A67A-294D3E37D73A";
paths = (
{
closed = 1;
nodes = (
"77 84 OFFCURVE",
"77 246 CURVE SMOOTH",
"77 477 OFFCURVE",
"229 615 OFFCURVE",
"452 615 CURVE SMOOTH",
"537 615 OFFCURVE",
"583 595 OFFCURVE",
"583 595 CURVE",
"584 587 OFFCURVE",
"584 575 OFFCURVE",
"584 562 CURVE SMOOTH",
"584 516 OFFCURVE",
"581 449 OFFCURVE",
"574 424 CURVE",
"529 426 LINE",
"504 494 OFFCURVE",
"450 571 OFFCURVE",
"414 577 CURVE",
"417 580 OFFCURVE",
"424 581 OFFCURVE",
"433 581 CURVE SMOOTH",
"464 581 OFFCURVE",
"523 563 OFFCURVE",
"523 523 CURVE SMOOTH",
"523 514 OFFCURVE",
"521 506 OFFCURVE",
"515 496 CURVE",
"502 499 OFFCURVE",
"470 552 OFFCURVE",
"376 552 CURVE SMOOTH",
"253 552 OFFCURVE",
"179 448 OFFCURVE",
"179 280 CURVE SMOOTH",
"179 148 OFFCURVE",
"238 48 OFFCURVE",
"390 48 CURVE SMOOTH",
"456 48 OFFCURVE",
"517 80 OFFCURVE",
"557 118 CURVE",
"588 85 LINE",
"535 17 OFFCURVE",
"458 -18 OFFCURVE",
"360 -18 CURVE SMOOTH",
"183 -18 OFFCURVE"
);
}
);
width = 617;
},
{
layerId = "8B9D8DF0-167E-4E5A-BF63-AC43D342B811";
paths = (
{
closed = 1;
nodes = (
"86 84 OFFCURVE",
"100 246 CURVE SMOOTH",
"120 477 OFFCURVE",
"284 615 OFFCURVE",
"507 615 CURVE SMOOTH",
"592 615 OFFCURVE",
"637 595 OFFCURVE",
"637 595 CURVE",
"637 587 OFFCURVE",
"636 575 OFFCURVE",
"635 562 CURVE SMOOTH",
"631 516 OFFCURVE",
"622 449 OFFCURVE",
"613 424 CURVE",
"568 426 LINE",
"549 494 OFFCURVE",
"502 571 OFFCURVE",
"466 577 CURVE",
"469 580 OFFCURVE",
"476 581 OFFCURVE",
"485 581 CURVE SMOOTH",
"516 581 OFFCURVE",
"574 563 OFFCURVE",
"570 523 CURVE SMOOTH",
"570 514 OFFCURVE",
"567 506 OFFCURVE",
"560 496 CURVE",
"547 499 OFFCURVE",
"520 552 OFFCURVE",
"426 552 CURVE SMOOTH",
"303 552 OFFCURVE",
"220 448 OFFCURVE",
"205 280 CURVE SMOOTH",
"194 148 OFFCURVE",
"244 48 OFFCURVE",
"396 48 CURVE SMOOTH",
"462 48 OFFCURVE",
"526 80 OFFCURVE",
"569 118 CURVE",
"597 85 LINE",
"538 17 OFFCURVE",
"458 -18 OFFCURVE",
"360 -18 CURVE SMOOTH",
"183 -18 OFFCURVE"
);
}
);
width = 617;
}
);
unicode = 0043;
},
{
glyphname = D;
lastChange = "2018-09-12 15:08:21 +0000";
layers = (
{
layerId = "51BB9282-3B82-4DF1-A67A-294D3E37D73A";
paths = (
{
closed = 1;
nodes = (
"211 -1 OFFCURVE",
"263 0 CURVE SMOOTH",
"477 3 OFFCURVE",
"591 158 OFFCURVE",
"591 363 CURVE SMOOTH",
"590 531 OFFCURVE",
"500 619 OFFCURVE",
"328 619 CURVE SMOOTH",
"259 619 OFFCURVE",
"162 607 OFFCURVE",
"22 615 CURVE",
"28 567 LINE",
"99 572 OFFCURVE",
"105 529 OFFCURVE",
"107 484 CURVE SMOOTH",
"113 361 OFFCURVE",
"111 266 OFFCURVE",
"104 100 CURVE SMOOTH",
"102 62 OFFCURVE",
"71 43 OFFCURVE",
"18 46 CURVE",
"25 0 LINE",
"82 0 OFFCURVE"
);
},
{
closed = 1;
nodes = (
"193 75 OFFCURVE",
"189 111 CURVE SMOOTH",
"182 172 OFFCURVE",
"186 249 OFFCURVE",
"186 343 CURVE SMOOTH",
"187 408 OFFCURVE",
"192 479 OFFCURVE",
"197 554 CURVE",
"218 561 OFFCURVE",
"257 569 OFFCURVE",
"299 568 CURVE SMOOTH",
"443 565 OFFCURVE",
"504 460 OFFCURVE",
"504 319 CURVE SMOOTH",
"502 184 OFFCURVE",
"436 62 OFFCURVE",
"307 60 CURVE SMOOTH",
"229 59 OFFCURVE"
);
}
);
width = 631;
},
{
layerId = "8B9D8DF0-167E-4E5A-BF63-AC43D342B811";
paths = (
{
closed = 1;
nodes = (
"211 -1 OFFCURVE",
"263 0 CURVE SMOOTH",
"477 3 OFFCURVE",
"605 158 OFFCURVE",
"623 363 CURVE SMOOTH",
"636 531 OFFCURVE",
"554 619 OFFCURVE",
"382 619 CURVE SMOOTH",
"313 619 OFFCURVE",
"215 607 OFFCURVE",
"76 615 CURVE",
"78 567 LINE",
"149 572 OFFCURVE",
"151 529 OFFCURVE",
"149 484 CURVE SMOOTH",
"145 361 OFFCURVE",
"134 266 OFFCURVE",
"113 100 CURVE SMOOTH",
"107 62 OFFCURVE",
"75 43 OFFCURVE",
"22 46 CURVE",
"25 0 LINE",
"82 0 OFFCURVE"
);
},
{
closed = 1;
nodes = (
"200 75 OFFCURVE",
"199 111 CURVE SMOOTH",
"197 172 OFFCURVE",
"208 249 OFFCURVE",
"216 343 CURVE SMOOTH",
"223 408 OFFCURVE",
"234 479 OFFCURVE",
"246 554 CURVE",
"267 561 OFFCURVE",
"307 569 OFFCURVE",
"349 568 CURVE SMOOTH",
"492 565 OFFCURVE",
"544 460 OFFCURVE",
"532 319 CURVE SMOOTH",
"518 184 OFFCURVE",
"441 62 OFFCURVE",
"312 60 CURVE SMOOTH",
"234 59 OFFCURVE"
);
}
);
width = 631;
}
);
unicode = 0044;
},
{
glyphname = E;
lastChange = "2018-09-12 15:08:21 +0000";
layers = (
{
layerId = "51BB9282-3B82-4DF1-A67A-294D3E37D73A";
paths = (
{
closed = 1;
nodes = (
"484 40 OFFCURVE",
"484 89 OFFCURVE",
"484 123 CURVE SMOOTH",
"484 146 OFFCURVE",
"484 162 OFFCURVE",
"484 163 CURVE",
"429 157 LINE",
"417 106 OFFCURVE",
"400 60 OFFCURVE",
"367 22 CURVE",
"427 70 LINE",
"395 62 OFFCURVE",
"319 55 OFFCURVE",
"258 55 CURVE SMOOTH",
"243 55 OFFCURVE",
"225 55 OFFCURVE",
"215 56 CURVE SMOOTH",
"187 59 OFFCURVE",
"183 83 OFFCURVE",
"182 104 CURVE SMOOTH",
"181 146 OFFCURVE",
"179 203 OFFCURVE",
"179 266 CURVE SMOOTH",
"179 343 OFFCURVE",
"182 432 OFFCURVE",
"190 518 CURVE SMOOTH",
"193 541 OFFCURVE",
"202 564 OFFCURVE",
"240 564 CURVE SMOOTH",
"296 564 OFFCURVE",
"367 562 OFFCURVE",
"429 556 CURVE",
"356 594 LINE",
"389 564 OFFCURVE",
"408 511 OFFCURVE",
"413 465 CURVE",
"469 460 LINE",
"469 460 OFFCURVE",
"474 509 OFFCURVE",
"474 554 CURVE",
"474 617 LINE",
"399 613 OFFCURVE",
"313 612 OFFCURVE",
"266 612 CURVE SMOOTH",
"250 612 OFFCURVE",
"231 612 OFFCURVE",
"210 612 CURVE SMOOTH",
"148 612 OFFCURVE",
"72 613 OFFCURVE",
"28 616 CURVE",
"32 569 LINE",
"85 570 OFFCURVE",
"96 547 OFFCURVE",
"99 511 CURVE SMOOTH",
"101 460 OFFCURVE",
"102 405 OFFCURVE",
"102 351 CURVE SMOOTH",
"102 263 OFFCURVE",
"99 176 OFFCURVE",
"94 109 CURVE SMOOTH",
"91 71 OFFCURVE",
"86 52 OFFCURVE",
"27 47 CURVE",
"32 0 LINE",
"481 0 LINE"
);
},
{
closed = 1;
nodes = (
"260 287 OFFCURVE",
"323 287 CURVE SMOOTH",
"350 287 OFFCURVE",
"377 286 OFFCURVE",
"405 285 CURVE",
"405 355 LINE",
"288 342 LINE",
"132 341 LINE",
"132 283 LINE",
"200 283 OFFCURVE"
);
}
);
width = 537;
},
{
layerId = "8B9D8DF0-167E-4E5A-BF63-AC43D342B811";
paths = (
{
closed = 1;
nodes = (
"487 40 OFFCURVE",
"492 89 OFFCURVE",
"495 123 CURVE SMOOTH",
"497 146 OFFCURVE",
"498 162 OFFCURVE",
"498 163 CURVE",
"443 157 LINE",
"426 106 OFFCURVE",
"405 60 OFFCURVE",
"369 22 CURVE",
"433 70 LINE",
"400 62 OFFCURVE",
"324 55 OFFCURVE",
"263 55 CURVE SMOOTH",
"248 55 OFFCURVE",
"230 55 OFFCURVE",
"220 56 CURVE SMOOTH",
"192 59 OFFCURVE",
"190 83 OFFCURVE",
"191 104 CURVE SMOOTH",
"194 146 OFFCURVE",
"197 203 OFFCURVE",
"202 266 CURVE SMOOTH",
"209 343 OFFCURVE",
"220 432 OFFCURVE",
"235 518 CURVE SMOOTH",
"240 541 OFFCURVE",
"251 564 OFFCURVE",
"289 564 CURVE SMOOTH",
"345 564 OFFCURVE",
"416 562 OFFCURVE",
"478 556 CURVE",
"408 594 LINE",
"438 564 OFFCURVE",
"453 511 OFFCURVE",
"454 465 CURVE",
"509 460 LINE",
"509 460 OFFCURVE",
"519 509 OFFCURVE",
"522 554 CURVE",
"528 617 LINE",
"453 613 OFFCURVE",
"367 612 OFFCURVE",
"320 612 CURVE SMOOTH",
"304 612 OFFCURVE",
"285 612 OFFCURVE",
"264 612 CURVE SMOOTH",
"202 612 OFFCURVE",
"126 613 OFFCURVE",
"82 616 CURVE",
"82 569 LINE",
"135 570 OFFCURVE",
"144 547 OFFCURVE",
"144 511 CURVE SMOOTH",
"141 460 OFFCURVE",
"137 405 OFFCURVE",
"133 351 CURVE SMOOTH",
"125 263 OFFCURVE",
"114 176 OFFCURVE",
"104 109 CURVE SMOOTH",
"97 71 OFFCURVE",
"91 52 OFFCURVE",
"31 47 CURVE",
"32 0 LINE",
"481 0 LINE"
);
},
{
closed = 1;
nodes = (
"285 287 OFFCURVE",
"348 287 CURVE SMOOTH",
"375 287 OFFCURVE",
"402 286 OFFCURVE",
"430 285 CURVE",
"436 355 LINE",
"318 342 LINE",
"162 341 LINE",
"157 283 LINE",
"225 283 OFFCURVE"
);
}
);
width = 537;
}
);
unicode = 0045;
},
{
glyphname = F;
lastChange = "2018-09-12 15:08:21 +0000";
layers = (
{
layerId = "51BB9282-3B82-4DF1-A67A-294D3E37D73A";
paths = (
{
closed = 1;
nodes = (
"305 350 LINE",
"123 349 LINE",
"123 292 LINE",
"219 293 OFFCURVE",
"312 292 OFFCURVE",
"408 286 CURVE",
"408 363 LINE"
);
},
{
closed = 1;
nodes = (
"182 347 OFFCURVE",
"194 511 CURVE SMOOTH",
"196 543 OFFCURVE",
"209 561 OFFCURVE",
"253 561 CURVE SMOOTH",
"437 555 LINE",
"371 594 LINE",
"404 564 OFFCURVE",
"424 504 OFFCURVE",
"429 459 CURVE",
"484 453 LINE",
"484 453 OFFCURVE",
"490 509 OFFCURVE",
"490 554 CURVE",
"489 617 LINE",
"391 613 OFFCURVE",
"306 611 OFFCURVE",
"240 611 CURVE SMOOTH",
"176 611 OFFCURVE",
"92 611 OFFCURVE",
"33 616 CURVE",
"38 569 LINE",
"96 568 OFFCURVE",
"103 547 OFFCURVE",
"105 511 CURVE SMOOTH",
"112 374 OFFCURVE",
"109 209 OFFCURVE",
"102 109 CURVE SMOOTH",
"99 68 OFFCURVE",
"102 52 OFFCURVE",
"35 47 CURVE",
"40 0 LINE",
"270 0 LINE",
"263 39 LINE",
"249 39 OFFCURVE",
"188 39 OFFCURVE",
"187 112 CURVE SMOOTH",
"186 165 OFFCURVE"
);
}
);
width = 514;
},
{
layerId = "8B9D8DF0-167E-4E5A-BF63-AC43D342B811";
paths = (
{
closed = 1;
nodes = (
"336 350 LINE",
"154 349 LINE",
"149 292 LINE",
"245 293 OFFCURVE",
"338 292 OFFCURVE",
"433 286 CURVE",
"440 363 LINE"
);
},
{
closed = 1;
nodes = (
"212 347 OFFCURVE",
"239 511 CURVE SMOOTH",
"244 543 OFFCURVE",
"258 561 OFFCURVE",
"302 561 CURVE SMOOTH",
"486 555 LINE",
"423 594 LINE",
"453 564 OFFCURVE",
"468 504 OFFCURVE",
"469 459 CURVE",
"524 453 LINE",
"524 453 OFFCURVE",
"535 509 OFFCURVE",
"538 554 CURVE",
"543 617 LINE",
"445 613 OFFCURVE",
"359 611 OFFCURVE",
"293 611 CURVE SMOOTH",
"229 611 OFFCURVE",
"145 611 OFFCURVE",
"87 616 CURVE",
"88 569 LINE",
"146 568 OFFCURVE",
"151 547 OFFCURVE",
"150 511 CURVE SMOOTH",
"145 374 OFFCURVE",
"127 209 OFFCURVE",
"112 109 CURVE SMOOTH",
"105 68 OFFCURVE",
"107 52 OFFCURVE",
"39 47 CURVE",
"40 0 LINE",
"270 0 LINE",
"266 39 LINE",
"252 39 OFFCURVE",
"191 39 OFFCURVE",
"197 112 CURVE SMOOTH",
"200 165 OFFCURVE"
);
}
);
width = 514;
}
);
unicode = 0046;
},
{
glyphname = G;
lastChange = "2018-09-12 15:08:21 +0000";
layers = (
{
layerId = "51BB9282-3B82-4DF1-A67A-294D3E37D73A";
paths = (
{
closed = 1;
nodes = (
"28 89 OFFCURVE",
"26 248 CURVE SMOOTH",
"24 439 OFFCURVE",
"142 616 OFFCURVE",
"395 618 CURVE SMOOTH",
"488 618 OFFCURVE",
"549 598 OFFCURVE",
"549 598 CURVE",
"551 559 OFFCURVE",
"556 482 OFFCURVE",
"554 450 CURVE",
"503 452 LINE",
"478 520 OFFCURVE",
"430 576 OFFCURVE",
"394 581 CURVE",
"405 598 OFFCURVE",
"545 583 OFFCURVE",
"504 510 CURVE",
"491 513 OFFCURVE",
"432 567 OFFCURVE",
"337 565 CURVE SMOOTH",
"222 564 OFFCURVE",
"127 448 OFFCURVE",
"125 297 CURVE SMOOTH",
"122 163 OFFCURVE",
"193 44 OFFCURVE",
"336 42 CURVE SMOOTH",
"420 40 OFFCURVE",
"459 66 OFFCURVE",
"494 106 CURVE",
"544 82 LINE",
"488 1 OFFCURVE",
"387 -21 OFFCURVE",
"312 -21 CURVE SMOOTH",
"147 -21 OFFCURVE"
);
},
{
closed = 1;
nodes = (
"461 148 OFFCURVE",
"460 203 CURVE",
"457 234 OFFCURVE",
"436 254 OFFCURVE",
"383 251 CURVE",
"378 300 LINE",
"465 294 OFFCURVE",
"522 296 OFFCURVE",
"605 300 CURVE",
"613 254 LINE",
"600 255 OFFCURVE",
"547 260 OFFCURVE",
"547 201 CURVE SMOOTH",
"547 160 OFFCURVE",
"547 109 OFFCURVE",
"544 82 CURVE",
"440 35 LINE",
"459 83 OFFCURVE"
);
}
);
width = 637;
},
{
layerId = "8B9D8DF0-167E-4E5A-BF63-AC43D342B811";
paths = (
{
closed = 1;
nodes = (
"38 89 OFFCURVE",
"50 248 CURVE SMOOTH",
"64 439 OFFCURVE",
"198 616 OFFCURVE",
"451 618 CURVE SMOOTH",
"544 618 OFFCURVE",
"603 598 OFFCURVE",
"603 598 CURVE",
"602 559 OFFCURVE",
"600 482 OFFCURVE",
"595 450 CURVE",
"544 452 LINE",
"525 520 OFFCURVE",
"482 576 OFFCURVE",
"447 581 CURVE",
"459 598 OFFCURVE",
"598 583 OFFCURVE",
"550 510 CURVE",
"538 513 OFFCURVE",
"483 567 OFFCURVE",
"388 565 CURVE SMOOTH",
"273 564 OFFCURVE",
"168 448 OFFCURVE",
"153 297 CURVE SMOOTH",
"138 163 OFFCURVE",
"199 44 OFFCURVE",
"342 42 CURVE SMOOTH",
"425 40 OFFCURVE",
"467 66 OFFCURVE",
"505 106 CURVE",
"553 82 LINE",
"490 1 OFFCURVE",
"387 -21 OFFCURVE",
"312 -21 CURVE SMOOTH",
"147 -21 OFFCURVE"
);
},
{
closed = 1;
nodes = (
"476 148 OFFCURVE",
"480 203 CURVE",
"479 234 OFFCURVE",
"460 254 OFFCURVE",
"407 251 CURVE",
"406 300 LINE",
"493 294 OFFCURVE",
"550 296 OFFCURVE",
"633 300 CURVE",
"637 254 LINE",
"624 255 OFFCURVE",
"572 260 OFFCURVE",
"566 201 CURVE SMOOTH",
"563 160 OFFCURVE",
"558 109 OFFCURVE",
"553 82 CURVE",
"445 35 LINE",
"468 83 OFFCURVE"
);
}
);
width = 637;
}
);
unicode = 0047;
},
{
glyphname = H;
lastChange = "2018-09-12 15:08:21 +0000";
layers = (
{
layerId = "51BB9282-3B82-4DF1-A67A-294D3E37D73A";
paths = (
{
closed = 1;
nodes = (
"290 49 LINE",
"249 45 OFFCURVE",
"208 63 OFFCURVE",
"206 118 CURVE SMOOTH",
"199 283 OFFCURVE",
"205 409 OFFCURVE",
"213 511 CURVE SMOOTH",
"216 559 OFFCURVE",
"248 564 OFFCURVE",
"295 567 CURVE",
"293 581 OFFCURVE",
"289 617 OFFCURVE",
"289 617 CURVE",
"214 613 OFFCURVE",
"121 612 OFFCURVE",
"27 616 CURVE",
"28 609 OFFCURVE",
"32 579 OFFCURVE",
"34 567 CURVE",
"109 569 OFFCURVE",
"117 537 OFFCURVE",
"119 491 CURVE SMOOTH",
"124 350 OFFCURVE",
"121 192 OFFCURVE",
"116 106 CURVE SMOOTH",
"113 58 OFFCURVE",
"79 49 OFFCURVE",
"30 49 CURVE",
"36 -1 LINE",
"298 0 LINE"
);
},
{
closed = 1;
nodes = (
"567 341 LINE",
"410 336 LINE",
"149 335 LINE",
"149 276 LINE",
"567 276 LINE"
);
},
{
closed = 1;
nodes = (
"661 49 LINE",
"621 45 OFFCURVE",
"580 63 OFFCURVE",
"578 118 CURVE SMOOTH",
"571 283 OFFCURVE",
"577 409 OFFCURVE",
"584 511 CURVE SMOOTH",
"588 559 OFFCURVE",
"620 564 OFFCURVE",
"667 567 CURVE",
"665 581 OFFCURVE",
"661 617 OFFCURVE",
"661 617 CURVE",
"586 613 OFFCURVE",
"494 612 OFFCURVE",
"400 616 CURVE",
"402 609 OFFCURVE",
"405 579 OFFCURVE",
"407 567 CURVE",
"483 569 OFFCURVE",
"490 537 OFFCURVE",
"492 491 CURVE SMOOTH",
"497 350 OFFCURVE",
"494 192 OFFCURVE",
"490 106 CURVE SMOOTH",
"487 58 OFFCURVE",
"452 49 OFFCURVE",
"403 49 CURVE",
"410 -1 LINE",
"670 0 LINE"
);
}
);
width = 693;
},
{
layerId = "8B9D8DF0-167E-4E5A-BF63-AC43D342B811";
paths = (
{
closed = 1;
nodes = (
"294 49 LINE",
"253 45 OFFCURVE",
"214 63 OFFCURVE",
"216 118 CURVE SMOOTH",
"224 283 OFFCURVE",
"241 409 OFFCURVE",
"258 511 CURVE SMOOTH",
"265 559 OFFCURVE",
"297 564 OFFCURVE",
"345 567 CURVE",
"344 581 OFFCURVE",
"343 617 OFFCURVE",
"343 617 CURVE",
"268 613 OFFCURVE",
"175 612 OFFCURVE",
"81 616 CURVE",
"81 609 OFFCURVE",
"83 579 OFFCURVE",
"84 567 CURVE",
"159 569 OFFCURVE",
"164 537 OFFCURVE",
"162 491 CURVE SMOOTH",
"155 350 OFFCURVE",
"138 192 OFFCURVE",
"125 106 CURVE SMOOTH",
"118 58 OFFCURVE",
"83 49 OFFCURVE",
"34 49 CURVE",
"36 -1 LINE",
"298 0 LINE"
);
},
{
closed = 1;
nodes = (
"597 341 LINE",
"439 336 LINE",
"178 335 LINE",
"173 276 LINE",
"591 276 LINE"
);
},
{
closed = 1;
nodes = (
"665 49 LINE",
"625 45 OFFCURVE",
"586 63 OFFCURVE",
"588 118 CURVE SMOOTH",
"596 283 OFFCURVE",
"613 409 OFFCURVE",
"629 511 CURVE SMOOTH",
"637 559 OFFCURVE",
"669 564 OFFCURVE",
"717 567 CURVE",
"716 581 OFFCURVE",
"715 617 OFFCURVE",
"715 617 CURVE",
"640 613 OFFCURVE",
"548 612 OFFCURVE",
"454 616 CURVE",
"455 609 OFFCURVE",
"456 579 OFFCURVE",
"457 567 CURVE",
"533 569 OFFCURVE",
"537 537 OFFCURVE",
"535 491 CURVE SMOOTH",
"528 350 OFFCURVE",
"511 192 OFFCURVE",
"499 106 CURVE SMOOTH",
"492 58 OFFCURVE",
"456 49 OFFCURVE",
"407 49 CURVE",
"410 -1 LINE",
"670 0 LINE"
);
}
);
width = 693;
}
);
unicode = 0048;
},
{
glyphname = Hbar;
lastChange = "2018-09-12 15:08:21 +0000";
layers = (
{
components = (
{
name = H;
}
);
layerId = "51BB9282-3B82-4DF1-A67A-294D3E37D73A";
paths = (
{
closed = 1;
nodes = (
"651 480 LINE",
"402 474 LINE",
"56 474 LINE",
"56 418 LINE",
"651 418 LINE"
);
}
);
width = 693;
},
{
components = (
{
name = H;
transform = "{1, 0, 0.08749, 1, 0, 0}";
}
);
layerId = "8B9D8DF0-167E-4E5A-BF63-AC43D342B811";
paths = (
{
closed = 1;
nodes = (
"693 480 LINE",
"444 474 LINE",
"98 474 LINE",
"93 418 LINE",
"688 418 LINE"
);
}
);
width = 693;
}
);
unicode = 0126;
},
{
glyphname = I;
lastChange = "2018-09-12 15:08:21 +0000";
layers = (
{
layerId = "51BB9282-3B82-4DF1-A67A-294D3E37D73A";
paths = (
{
closed = 1;
nodes = (
"279 42 LINE",
"239 39 OFFCURVE",
"200 63 OFFCURVE",
"198 118 CURVE SMOOTH",
"192 283 OFFCURVE",
"197 409 OFFCURVE",
"205 511 CURVE SMOOTH",
"209 559 OFFCURVE",
"240 567 OFFCURVE",
"287 569 CURVE",
"281 617 LINE",
"206 613 OFFCURVE",
"117 612 OFFCURVE",
"23 616 CURVE",
"25 609 OFFCURVE",
"28 579 OFFCURVE",
"30 567 CURVE",
"105 569 OFFCURVE",
"113 537 OFFCURVE",
"115 491 CURVE SMOOTH",
"120 350 OFFCURVE",
"117 192 OFFCURVE",
"112 106 CURVE SMOOTH",
"109 58 OFFCURVE",
"75 49 OFFCURVE",
"26 48 CURVE",
"32 -1 LINE",
"287 0 LINE"
);
}
);
width = 315;
},
{
layerId = "8B9D8DF0-167E-4E5A-BF63-AC43D342B811";
paths = (
{
closed = 1;
nodes = (
"283 42 LINE",
"242 39 OFFCURVE",
"206 63 OFFCURVE",
"208 118 CURVE SMOOTH",
"217 283 OFFCURVE",
"233 409 OFFCURVE",
"250 511 CURVE SMOOTH",
"258 559 OFFCURVE",
"290 567 OFFCURVE",
"337 569 CURVE",
"335 617 LINE",
"260 613 OFFCURVE",
"171 612 OFFCURVE",
"77 616 CURVE",
"78 609 OFFCURVE",
"79 579 OFFCURVE",
"80 567 CURVE",
"155 569 OFFCURVE",
"160 537 OFFCURVE",
"158 491 CURVE SMOOTH",
"151 350 OFFCURVE",
"134 192 OFFCURVE",
"121 106 CURVE SMOOTH",
"114 58 OFFCURVE",
"79 49 OFFCURVE",
"30 48 CURVE",
"32 -1 LINE",
"287 0 LINE"
);
}
);
width = 315;
}
);
unicode = 0049;
},
{
glyphname = J;
lastChange = "2018-09-12 15:08:21 +0000";
layers = (
{
layerId = "51BB9282-3B82-4DF1-A67A-294D3E37D73A";
paths = (
{
closed = 1;
nodes = (
"213 -72 OFFCURVE",
"210 30 CURVE SMOOTH",
"206 201 OFFCURVE",
"205 320 OFFCURVE",
"213 512 CURVE SMOOTH",
"216 554 OFFCURVE",
"239 564 OFFCURVE",
"294 567 CURVE",
"292 581 OFFCURVE",
"288 617 OFFCURVE",
"288 617 CURVE",
"188 611 OFFCURVE",
"122 611 OFFCURVE",
"31 616 CURVE",
"32 609 OFFCURVE",
"34 579 OFFCURVE",
"36 567 CURVE",
"59 567 OFFCURVE",
"119 565 OFFCURVE",
"119 503 CURVE SMOOTH",
"121 362 OFFCURVE",
"132 158 OFFCURVE",
"128 65 CURVE SMOOTH",
"125 -14 OFFCURVE",
"133 -144 OFFCURVE",
"-5 -109 CURVE",
"-26 -149 LINE",
"-15 -155 OFFCURVE",
"16 -175 OFFCURVE",
"59 -175 CURVE SMOOTH",
"187 -174 OFFCURVE"
);
}
);
width = 325;
},
{
layerId = "8B9D8DF0-167E-4E5A-BF63-AC43D342B811";
paths = (
{
closed = 1;
nodes = (
"222 -72 OFFCURVE",
"228 30 CURVE SMOOTH",
"239 201 OFFCURVE",
"248 320 OFFCURVE",
"273 512 CURVE SMOOTH",
"280 554 OFFCURVE",
"304 564 OFFCURVE",
"359 567 CURVE",
"358 581 OFFCURVE",
"357 617 OFFCURVE",
"357 617 CURVE",
"257 611 OFFCURVE",
"191 611 OFFCURVE",
"100 616 CURVE",
"101 609 OFFCURVE",
"100 579 OFFCURVE",
"101 567 CURVE",
"124 567 OFFCURVE",
"184 565 OFFCURVE",
"178 503 CURVE SMOOTH",
"168 362 OFFCURVE",
"161 158 OFFCURVE",
"149 65 CURVE SMOOTH",
"139 -14 OFFCURVE",
"136 -144 OFFCURVE",
"1 -109 CURVE",
"-24 -149 LINE",
"-13 -155 OFFCURVE",
"16 -175 OFFCURVE",
"59 -175 CURVE SMOOTH",
"187 -174 OFFCURVE"
);
}
);
width = 325;
}
);
unicode = 004A;
},
{
glyphname = K;
lastChange = "2018-09-12 15:08:21 +0000";
layers = (
{
layerId = "51BB9282-3B82-4DF1-A67A-294D3E37D73A";
paths = (
{
closed = 1;
nodes = (
"533 1 OFFCURVE",
"621 0 CURVE",
"611 47 LINE",
"553 46 OFFCURVE",
"407 253 OFFCURVE",
"336 336 CURVE",
"320 315 LINE",
"361 359 OFFCURVE",
"472 480 OFFCURVE",
"514 527 CURVE SMOOTH",
"537 552 OFFCURVE",
"557 571 OFFCURVE",
"588 571 CURVE",
"581 616 LINE",
"581 616 OFFCURVE",
"470 610 OFFCURVE",
"378 614 CURVE",
"385 567 LINE",
"441 569 OFFCURVE",
"444 547 OFFCURVE",
"432 531 CURVE SMOOTH",
"370 450 OFFCURVE",
"278 353 OFFCURVE",
"249 326 CURVE",
"257 301 LINE",
"311 239 OFFCURVE",
"405 117 OFFCURVE",
"419 97 CURVE SMOOTH",
"454 47 OFFCURVE",
"412 43 OFFCURVE",
"384 44 CURVE",
"395 0 LINE",
"483 0 OFFCURVE"
);
},
{
closed = 1;
nodes = (
"293 44 LINE",
"253 41 OFFCURVE",
"214 55 OFFCURVE",
"212 110 CURVE SMOOTH",
"206 276 OFFCURVE",
"211 410 OFFCURVE",
"219 511 CURVE SMOOTH",
"223 560 OFFCURVE",
"266 570 OFFCURVE",
"306 569 CURVE",
"303 584 OFFCURVE",
"300 617 OFFCURVE",
"300 617 CURVE",
"217 612 OFFCURVE",
"139 611 OFFCURVE",
"45 616 CURVE",
"46 609 OFFCURVE",
"49 580 OFFCURVE",
"51 567 CURVE",
"111 569 OFFCURVE",
"129 544 OFFCURVE",
"129 495 CURVE SMOOTH",
"129 354 OFFCURVE",
"129 193 OFFCURVE",
"125 108 CURVE SMOOTH",
"122 59 OFFCURVE",
"101 50 OFFCURVE",
"50 49 CURVE",
"56 -1 LINE",
"301 0 LINE"
);
}
);
width = 656;
},
{
layerId = "8B9D8DF0-167E-4E5A-BF63-AC43D342B811";
paths = (
{
closed = 1;
nodes = (
"533 1 OFFCURVE",
"621 0 CURVE",
"615 47 LINE",
"557 46 OFFCURVE",
"429 253 OFFCURVE",
"365 336 CURVE",
"348 315 LINE",
"392 359 OFFCURVE",
"514 480 OFFCURVE",
"560 527 CURVE SMOOTH",
"585 552 OFFCURVE",
"607 571 OFFCURVE",
"638 571 CURVE",
"635 616 LINE",
"635 616 OFFCURVE",
"523 610 OFFCURVE",
"432 614 CURVE",
"435 567 LINE",
"491 569 OFFCURVE",
"492 547 OFFCURVE",
"479 531 CURVE SMOOTH",
"409 450 OFFCURVE",
"309 353 OFFCURVE",
"278 326 CURVE",
"283 301 LINE",
"332 239 OFFCURVE",
"415 117 OFFCURVE",
"428 97 CURVE SMOOTH",
"458 47 OFFCURVE",
"416 43 OFFCURVE",
"388 44 CURVE",
"395 0 LINE",
"483 0 OFFCURVE"
);
},
{
closed = 1;
nodes = (
"297 44 LINE",
"257 41 OFFCURVE",
"219 55 OFFCURVE",
"222 110 CURVE SMOOTH",
"230 276 OFFCURVE",
"247 410 OFFCURVE",
"264 511 CURVE SMOOTH",
"272 560 OFFCURVE",
"316 570 OFFCURVE",
"356 569 CURVE",
"354 584 OFFCURVE",
"354 617 OFFCURVE",
"354 617 CURVE",
"271 612 OFFCURVE",
"193 611 OFFCURVE",
"99 616 CURVE",
"99 609 OFFCURVE",
"100 580 OFFCURVE",
"101 567 CURVE",
"161 569 OFFCURVE",
"177 544 OFFCURVE",
"172 495 CURVE SMOOTH",
"160 354 OFFCURVE",
"146 193 OFFCURVE",
"135 108 CURVE SMOOTH",
"127 59 OFFCURVE",
"105 50 OFFCURVE",
"54 49 CURVE",
"56 -1 LINE",
"301 0 LINE"
);
}
);
width = 656;
}
);
unicode = 004B;
},
{
glyphname = L;
lastChange = "2018-09-12 15:08:21 +0000";
layers = (
{
layerId = "51BB9282-3B82-4DF1-A67A-294D3E37D73A";
paths = (
{
closed = 1;
nodes = (
"499 21 OFFCURVE",
"498 129 OFFCURVE",
"494 163 CURVE",
"437 157 LINE",
"433 128 OFFCURVE",
"422 92 OFFCURVE",
"407 63 CURVE",
"369 58 OFFCURVE",
"284 52 OFFCURVE",
"238 56 CURVE SMOOTH",
"210 59 OFFCURVE",
"204 85 OFFCURVE",
"203 112 CURVE SMOOTH",
"202 152 OFFCURVE",
"203 363 OFFCURVE",
"216 518 CURVE SMOOTH",
"219 564 OFFCURVE",
"245 568 OFFCURVE",
"299 568 CURVE",
"293 615 LINE",
"228 612 OFFCURVE",
"126 609 OFFCURVE",
"41 616 CURVE",
"45 569 LINE",
"99 570 OFFCURVE",
"121 547 OFFCURVE",
"123 511 CURVE SMOOTH",
"130 377 OFFCURVE",
"130 213 OFFCURVE",
"119 113 CURVE SMOOTH",
"114 63 OFFCURVE",
"89 49 OFFCURVE",
"41 49 CURVE",
"47 0 LINE",
"494 0 LINE"
);
}
);
width = 528;
},
{
layerId = "8B9D8DF0-167E-4E5A-BF63-AC43D342B811";
paths = (
{
closed = 1;
nodes = (
"501 21 OFFCURVE",
"509 129 OFFCURVE",
"508 163 CURVE",
"451 157 LINE",
"444 128 OFFCURVE",
"430 92 OFFCURVE",
"413 63 CURVE",
"374 58 OFFCURVE",
"289 52 OFFCURVE",
"243 56 CURVE SMOOTH",
"215 59 OFFCURVE",
"211 85 OFFCURVE",
"213 112 CURVE SMOOTH",
"215 152 OFFCURVE",
"235 363 OFFCURVE",
"261 518 CURVE SMOOTH",
"268 564 OFFCURVE",
"295 568 OFFCURVE",
"349 568 CURVE",
"347 615 LINE",
"282 612 OFFCURVE",
"179 609 OFFCURVE",
"95 616 CURVE",
"95 569 LINE",
"149 570 OFFCURVE",
"169 547 OFFCURVE",
"168 511 CURVE SMOOTH",
"163 377 OFFCURVE",
"149 213 OFFCURVE",
"129 113 CURVE SMOOTH",
"120 63 OFFCURVE",
"93 49 OFFCURVE",
"45 49 CURVE",
"47 0 LINE",
"494 0 LINE"
);
}
);
width = 528;
}
);
unicode = 004C;
},
{
glyphname = M;
lastChange = "2018-09-12 15:08:21 +0000";
layers = (
{
layerId = "51BB9282-3B82-4DF1-A67A-294D3E37D73A";
paths = (
{
closed = 1;
nodes = (
"798 41 OFFCURVE",
"778 53 OFFCURVE",
"774 117 CURVE SMOOTH",
"768 203 OFFCURVE",
"766 369 OFFCURVE",
"770 495 CURVE SMOOTH",
"772 557 OFFCURVE",
"804 567 OFFCURVE",
"858 567 CURVE",
"851 616 LINE",
"775 611 OFFCURVE",
"695 611 OFFCURVE",
"646 614 CURVE",
"610 524 OFFCURVE",
"497 230 OFFCURVE",
"419 62 CURVE",
"475 31 LINE",
"536 187 OFFCURVE",
"598 340 OFFCURVE",
"655 466 CURVE",
"667 494 OFFCURVE",
"675 547 OFFCURVE",
"688 570 CURVE SMOOTH",
"692 578 OFFCURVE",
"675 554 OFFCURVE",
"680 562 CURVE",
"689 422 OFFCURVE",
"686 143 OFFCURVE",
"681 107 CURVE SMOOTH",
"673 53 OFFCURVE",
"644 45 OFFCURVE",
"597 47 CURVE",
"604 0 LINE",
"862 -1 LINE",
"855 42 LINE"
);
},
{
closed = 1;
nodes = (
"280 42 LINE",
"233 42 OFFCURVE",
"215 53 OFFCURVE",
"206 107 CURVE SMOOTH",
"202 141 OFFCURVE",
"195 401 OFFCURVE",
"204 541 CURVE",
"196 551 LINE",
"203 540 OFFCURVE",
"222 445 OFFCURVE",
"230 428 CURVE SMOOTH",
"293 306 OFFCURVE",
"397 73 OFFCURVE",
"421 15 CURVE",
"474 31 LINE",
"453 69 LINE",
"451 115 OFFCURVE",
"446 166 OFFCURVE",
"435 204 CURVE",
"390 324 OFFCURVE",
"266 551 OFFCURVE",
"238 615 CURVE",
"166 613 OFFCURVE",
"112 612 OFFCURVE",
"36 616 CURVE",
"38 609 OFFCURVE",
"39 579 OFFCURVE",
"42 567 CURVE",
"88 567 OFFCURVE",
"134 559 OFFCURVE",
"135 497 CURVE SMOOTH",
"136 370 OFFCURVE",
"136 203 OFFCURVE",
"129 117 CURVE SMOOTH",
"126 61 OFFCURVE",
"94 45 OFFCURVE",
"38 47 CURVE",
"44 -1 LINE",
"289 0 LINE"
);
}
);
width = 888;
},
{
layerId = "8B9D8DF0-167E-4E5A-BF63-AC43D342B811";
paths = (
{
closed = 1;
nodes = (
"802 41 OFFCURVE",
"783 53 OFFCURVE",
"784 117 CURVE SMOOTH",
"786 203 OFFCURVE",
"798 369 OFFCURVE",
"813 495 CURVE SMOOTH",
"821 557 OFFCURVE",
"854 567 OFFCURVE",
"908 567 CURVE",
"905 616 LINE",
"829 611 OFFCURVE",
"749 611 OFFCURVE",
"700 614 CURVE",
"656 524 OFFCURVE",
"517 230 OFFCURVE",
"425 62 CURVE",
"478 31 LINE",
"552 187 OFFCURVE",
"628 340 OFFCURVE",
"696 466 CURVE",
"710 494 OFFCURVE",
"723 547 OFFCURVE",
"738 570 CURVE SMOOTH",
"743 578 OFFCURVE",
"724 554 OFFCURVE",
"729 562 CURVE",
"726 422 OFFCURVE",
"699 143 OFFCURVE",
"690 107 CURVE SMOOTH",
"678 53 OFFCURVE",
"648 45 OFFCURVE",
"601 47 CURVE",
"604 0 LINE",
"862 -1 LINE",
"859 42 LINE"
);
},
{
closed = 1;
nodes = (
"284 42 LINE",
"237 42 OFFCURVE",
"220 53 OFFCURVE",
"215 107 CURVE SMOOTH",
"214 141 OFFCURVE",
"230 401 OFFCURVE",
"251 541 CURVE",
"244 551 LINE",
"250 540 OFFCURVE",
"261 445 OFFCURVE",
"268 428 CURVE SMOOTH",
"320 306 OFFCURVE",
"403 73 OFFCURVE",
"422 15 CURVE",
"477 31 LINE",
"459 69 LINE",
"461 115 OFFCURVE",
"461 166 OFFCURVE",
"453 204 CURVE",
"418 324 OFFCURVE",
"314 551 OFFCURVE",
"292 615 CURVE",
"220 613 OFFCURVE",
"166 612 OFFCURVE",
"90 616 CURVE",
"91 609 OFFCURVE",
"90 579 OFFCURVE",
"92 567 CURVE",
"138 567 OFFCURVE",
"183 559 OFFCURVE",
"179 497 CURVE SMOOTH",
"168 370 OFFCURVE",
"154 203 OFFCURVE",
"139 117 CURVE SMOOTH",
"131 61 OFFCURVE",
"98 45 OFFCURVE",
"42 47 CURVE",
"44 -1 LINE",
"289 0 LINE"
);
}
);
width = 888;
}
);
unicode = 004D;
},
{
glyphname = N;
lastChange = "2018-09-12 15:08:21 +0000";
layers = (
{
layerId = "51BB9282-3B82-4DF1-A67A-294D3E37D73A";
paths = (
{
closed = 1;
nodes = (
"571 -4 OFFCURVE",
"593 -3 OFFCURVE",
"614 0 CURVE",
"608 166 OFFCURVE",
"606 374 OFFCURVE",
"618 512 CURVE SMOOTH",
"621 554 OFFCURVE",
"643 569 OFFCURVE",
"690 568 CURVE",
"683 617 LINE",
"636 611 OFFCURVE",
"604 611 OFFCURVE",
"573 611 CURVE SMOOTH",
"517 611 OFFCURVE",
"487 613 OFFCURVE",
"444 616 CURVE",
"446 609 OFFCURVE",
"449 579 OFFCURVE",
"451 567 CURVE",
"505 567 OFFCURVE",
"530 557 OFFCURVE",
"535 487 CURVE SMOOTH",
"542 391 OFFCURVE",
"544 136 OFFCURVE",
"530 74 CURVE",
"549 54 LINE",
"536 73 OFFCURVE",
"526 172 OFFCURVE",
"504 205 CURVE SMOOTH",
"410 338 OFFCURVE",
"273 542 OFFCURVE",
"226 614 CURVE",
"146 612 OFFCURVE",
"98 611 OFFCURVE",
"22 616 CURVE",
"23 609 OFFCURVE",
"25 579 OFFCURVE",
"28 567 CURVE",
"82 567 OFFCURVE",
"111 542 OFFCURVE",
"112 487 CURVE SMOOTH",
"113 361 OFFCURVE",
"112 210 OFFCURVE",
"106 125 CURVE SMOOTH",
"102 61 OFFCURVE",
"80 48 OFFCURVE",
"24 47 CURVE",
"30 -1 LINE",
"269 0 LINE",
"262 43 LINE",
"222 43 OFFCURVE",
"193 55 OFFCURVE",
"185 109 CURVE SMOOTH",
"180 145 OFFCURVE",
"177 399 OFFCURVE",
"186 539 CURVE",
"186 539 OFFCURVE",
"173 559 OFFCURVE",
"177 554 CURVE",
"180 550 OFFCURVE",
"219 446 OFFCURVE",
"222 442 CURVE",
"329 295 OFFCURVE",
"400 184 OFFCURVE",
"531 -13 CURVE",
"532 -12 LINE"
);
}
);
width = 713;
},
{
layerId = "8B9D8DF0-167E-4E5A-BF63-AC43D342B811";
paths = (
{
closed = 1;
nodes = (
"572 -4 OFFCURVE",
"594 -3 OFFCURVE",
"615 0 CURVE",
"624 166 OFFCURVE",
"640 374 OFFCURVE",
"664 512 CURVE SMOOTH",
"671 554 OFFCURVE",
"694 569 OFFCURVE",
"741 568 CURVE",
"738 617 LINE",
"691 611 OFFCURVE",
"659 611 OFFCURVE",
"628 611 CURVE SMOOTH",
"572 611 OFFCURVE",
"542 613 OFFCURVE",
"499 616 CURVE",
"500 609 OFFCURVE",
"501 579 OFFCURVE",
"502 567 CURVE",
"556 567 OFFCURVE",
"580 557 OFFCURVE",
"579 487 CURVE SMOOTH",
"577 391 OFFCURVE",
"557 136 OFFCURVE",
"538 74 CURVE",
"555 54 LINE",
"544 73 OFFCURVE",
"542 172 OFFCURVE",
"523 205 CURVE SMOOTH",
"441 338 OFFCURVE",
"322 542 OFFCURVE",
"281 614 CURVE",
"201 612 OFFCURVE",
"153 611 OFFCURVE",
"77 616 CURVE",
"77 609 OFFCURVE",
"77 579 OFFCURVE",
"79 567 CURVE",
"133 567 OFFCURVE",
"160 542 OFFCURVE",
"156 487 CURVE SMOOTH",
"146 361 OFFCURVE",
"132 210 OFFCURVE",
"118 125 CURVE SMOOTH",
"108 61 OFFCURVE",
"85 48 OFFCURVE",
"29 47 CURVE",
"31 -1 LINE",
"270 0 LINE",
"267 43 LINE",
"227 43 OFFCURVE",
"199 55 OFFCURVE",
"196 109 CURVE SMOOTH",
"194 145 OFFCURVE",
"213 399 OFFCURVE",
"234 539 CURVE",
"234 539 OFFCURVE",
"223 559 OFFCURVE",
"227 554 CURVE",
"229 550 OFFCURVE",
"259 446 OFFCURVE",
"262 442 CURVE",
"356 295 OFFCURVE",
"417 184 OFFCURVE",
"531 -13 CURVE",
"532 -12 LINE"
);
}
);
width = 713;
}
);
unicode = 004E;
},
{
glyphname = Eng;
lastChange = "2018-09-12 15:08:21 +0000";
layers = (
{
layerId = "51BB9282-3B82-4DF1-A67A-294D3E37D73A";
paths = (
{
closed = 1;
nodes = (
"543 -162 OFFCURVE",
"482 -209 OFFCURVE",
"420 -193 CURVE",
"440 -226 LINE",
"429 -204 OFFCURVE",
"413 -181 OFFCURVE",
"410 -132 CURVE",
"365 -131 LINE",
"357 -154 OFFCURVE",
"353 -179 OFFCURVE",
"351 -203 CURVE",
"367 -226 OFFCURVE",
"417 -244 OFFCURVE",
"463 -244 CURVE SMOOTH",
"554 -244 OFFCURVE",
"615 -172 OFFCURVE",
"614 -89 CURVE SMOOTH",
"612 161 OFFCURVE",
"608 397 OFFCURVE",
"618 512 CURVE SMOOTH",
"621 554 OFFCURVE",
"643 569 OFFCURVE",
"690 568 CURVE",
"683 617 LINE",
"636 611 OFFCURVE",
"604 611 OFFCURVE",
"573 611 CURVE SMOOTH",
"517 611 OFFCURVE",
"487 613 OFFCURVE",
"444 616 CURVE",
"446 609 OFFCURVE",
"449 579 OFFCURVE",
"451 567 CURVE",
"505 567 OFFCURVE",
"530 557 OFFCURVE",
"535 487 CURVE SMOOTH",
"542 391 OFFCURVE",
"551 144 OFFCURVE",
"544 82 CURVE",
"551 69 LINE",
"547 81 OFFCURVE",
"526 172 OFFCURVE",
"504 205 CURVE SMOOTH",
"410 338 OFFCURVE",
"273 542 OFFCURVE",
"226 614 CURVE",
"146 612 OFFCURVE",
"98 611 OFFCURVE",
"22 616 CURVE",
"23 609 OFFCURVE",
"25 579 OFFCURVE",
"28 567 CURVE",
"82 567 OFFCURVE",
"111 542 OFFCURVE",
"112 487 CURVE SMOOTH",
"113 361 OFFCURVE",
"112 210 OFFCURVE",
"106 125 CURVE SMOOTH",
"102 61 OFFCURVE",
"80 48 OFFCURVE",
"24 47 CURVE",
"30 -1 LINE",
"269 0 LINE",
"262 43 LINE",
"222 43 OFFCURVE",
"193 55 OFFCURVE",
"185 109 CURVE SMOOTH",
"180 145 OFFCURVE",
"177 399 OFFCURVE",
"186 539 CURVE",
"186 539 OFFCURVE",
"173 559 OFFCURVE",
"177 554 CURVE",
"180 550 OFFCURVE",
"219 446 OFFCURVE",
"222 442 CURVE",
"329 295 OFFCURVE",
"411 192 OFFCURVE",
"541 -5 CURVE",
"543 -7 LINE",
"543 -40 LINE SMOOTH"
);
}
);
width = 713;
},
{
layerId = "8B9D8DF0-167E-4E5A-BF63-AC43D342B811";
paths = (
{
closed = 1;
nodes = (
"550 -162 OFFCURVE",
"485 -209 OFFCURVE",
"424 -193 CURVE",
"442 -226 LINE",
"432 -204 OFFCURVE",
"419 -181 OFFCURVE",
"420 -132 CURVE",
"375 -131 LINE",
"365 -154 OFFCURVE",
"359 -179 OFFCURVE",
"355 -203 CURVE",
"369 -226 OFFCURVE",
"417 -244 OFFCURVE",
"463 -244 CURVE SMOOTH",
"554 -244 OFFCURVE",
"621 -172 OFFCURVE",
"628 -89 CURVE SMOOTH",
"647 161 OFFCURVE",
"664 397 OFFCURVE",
"684 512 CURVE SMOOTH",
"691 554 OFFCURVE",
"714 569 OFFCURVE",
"761 568 CURVE",
"758 617 LINE",
"711 611 OFFCURVE",
"679 611 OFFCURVE",
"648 611 CURVE SMOOTH",
"592 611 OFFCURVE",
"562 613 OFFCURVE",
"519 616 CURVE",
"521 609 OFFCURVE",
"521 579 OFFCURVE",
"522 567 CURVE",
"576 567 OFFCURVE",
"600 557 OFFCURVE",
"599 487 CURVE SMOOTH",
"598 391 OFFCURVE",
"585 144 OFFCURVE",
"573 82 CURVE",
"578 69 LINE",
"575 81 OFFCURVE",
"562 172 OFFCURVE",
"543 205 CURVE SMOOTH",
"461 338 OFFCURVE",
"342 542 OFFCURVE",
"301 614 CURVE",
"221 612 OFFCURVE",
"173 611 OFFCURVE",
"97 616 CURVE",
"98 609 OFFCURVE",
"97 579 OFFCURVE",
"99 567 CURVE",
"153 567 OFFCURVE",
"180 542 OFFCURVE",
"176 487 CURVE SMOOTH",
"166 361 OFFCURVE",
"152 210 OFFCURVE",
"138 125 CURVE SMOOTH",
"129 61 OFFCURVE",
"106 48 OFFCURVE",
"49 47 CURVE",
"51 -1 LINE",
"290 0 LINE",
"287 43 LINE",
"247 43 OFFCURVE",
"219 55 OFFCURVE",
"216 109 CURVE SMOOTH",
"214 145 OFFCURVE",
"233 399 OFFCURVE",
"255 539 CURVE",
"255 539 OFFCURVE",
"243 559 OFFCURVE",
"247 554 CURVE",
"249 550 OFFCURVE",
"279 446 OFFCURVE",
"282 442 CURVE",
"376 295 OFFCURVE",
"449 192 OFFCURVE",
"562 -5 CURVE",
"564 -7 LINE",
"561 -40 LINE SMOOTH"
);
}
);
width = 713;
}
);
leftMetricsKey = "=N";
rightMetricsKey = "=N";
unicode = 014A;
},
{
glyphname = O;
lastChange = "2018-09-12 15:08:21 +0000";
layers = (
{
layerId = "51BB9282-3B82-4DF1-A67A-294D3E37D73A";
paths = (
{
closed = 1;
nodes = (
"592 119 OFFCURVE",
"592 336 CURVE SMOOTH",
"592 522 OFFCURVE",
"472 619 OFFCURVE",
"345 619 CURVE SMOOTH",
"160 619 OFFCURVE",
"36 477 OFFCURVE",
"36 263 CURVE SMOOTH",
"36 117 OFFCURVE",
"128 -12 OFFCURVE",
"303 -12 CURVE SMOOTH",
"480 -12 OFFCURVE"
);
},
{
closed = 1;
nodes = (
"129 156 OFFCURVE",
"129 304 CURVE SMOOTH",
"129 486 OFFCURVE",
"228 564 OFFCURVE",
"308 565 CURVE SMOOTH",
"418 567 OFFCURVE",
"493 460 OFFCURVE",
"494 321 CURVE SMOOTH",
"494 162 OFFCURVE",
"427 47 OFFCURVE",
"317 47 CURVE SMOOTH",
"192 47 OFFCURVE"
);
}
);
width = 630;
},
{
layerId = "8B9D8DF0-167E-4E5A-BF63-AC43D342B811";
paths = (
{
closed = 1;
nodes = (
"603 119 OFFCURVE",
"622 336 CURVE SMOOTH",
"639 522 OFFCURVE",
"527 619 OFFCURVE",
"400 619 CURVE SMOOTH",
"215 619 OFFCURVE",
"79 477 OFFCURVE",
"60 263 CURVE SMOOTH",
"47 117 OFFCURVE",
"128 -12 OFFCURVE",
"303 -12 CURVE SMOOTH",
"480 -12 OFFCURVE"
);
},
{
closed = 1;
nodes = (
"144 156 OFFCURVE",
"157 304 CURVE SMOOTH",
"173 486 OFFCURVE",
"278 564 OFFCURVE",
"358 565 CURVE SMOOTH",
"469 567 OFFCURVE",
"534 460 OFFCURVE",
"523 321 CURVE SMOOTH",
"509 162 OFFCURVE",
"432 47 OFFCURVE",
"322 47 CURVE SMOOTH",
"197 47 OFFCURVE"
);
}
);
width = 630;
}
);
unicode = 004F;
},
{
glyphname = P;
lastChange = "2018-09-12 15:08:21 +0000";
layers = (
{
layerId = "51BB9282-3B82-4DF1-A67A-294D3E37D73A";
paths = (
{
closed = 1;
nodes = (
"218 -1 OFFCURVE",
"270 0 CURVE",
"260 43 LINE",
"219 43 OFFCURVE",
"192 52 OFFCURVE",
"187 96 CURVE SMOOTH",
"182 139 OFFCURVE",
"182 201 OFFCURVE",
"182 280 CURVE",
"182 280 OFFCURVE",
"154 264 OFFCURVE",
"162 263 CURVE",
"176 254 OFFCURVE",
"227 249 OFFCURVE",
"254 249 CURVE SMOOTH",
"399 249 OFFCURVE",
"492 340 OFFCURVE",
"491 466 CURVE SMOOTH",
"490 551 OFFCURVE",
"435 619 OFFCURVE",
"309 619 CURVE SMOOTH",
"199 619 OFFCURVE",
"119 608 OFFCURVE",
"18 615 CURVE",
"22 567 LINE",
"88 564 OFFCURVE",
"99 529 OFFCURVE",
"101 484 CURVE SMOOTH",
"105 400 OFFCURVE",
"112 266 OFFCURVE",
"98 101 CURVE SMOOTH",
"95 62 OFFCURVE",
"80 47 OFFCURVE",
"27 47 CURVE",
"35 0 LINE",
"92 0 OFFCURVE"
);
},
{
closed = 1;
nodes = (
"205 311 OFFCURVE",
"184 324 CURVE",
"185 400 OFFCURVE",
"182 503 OFFCURVE",
"188 563 CURVE",
"203 570 OFFCURVE",
"228 577 OFFCURVE",
"257 576 CURVE SMOOTH",
"353 574 OFFCURVE",
"407 529 OFFCURVE",
"406 442 CURVE SMOOTH",
"405 372 OFFCURVE",
"370 299 OFFCURVE",
"276 298 CURVE SMOOTH",
"240 298 OFFCURVE"
);
}
);
width = 520;
},
{
layerId = "8B9D8DF0-167E-4E5A-BF63-AC43D342B811";
paths = (
{
closed = 1;
nodes = (
"218 -1 OFFCURVE",
"270 0 CURVE",
"264 43 LINE",
"223 43 OFFCURVE",
"197 52 OFFCURVE",
"195 96 CURVE SMOOTH",
"194 139 OFFCURVE",
"200 201 OFFCURVE",
"207 280 CURVE",
"207 280 OFFCURVE",
"177 264 OFFCURVE",
"185 263 CURVE",
"198 254 OFFCURVE",
"249 249 OFFCURVE",
"276 249 CURVE SMOOTH",
"421 249 OFFCURVE",
"522 340 OFFCURVE",
"532 466 CURVE SMOOTH",
"538 551 OFFCURVE",
"489 619 OFFCURVE",
"363 619 CURVE SMOOTH",
"253 619 OFFCURVE",
"172 608 OFFCURVE",
"72 615 CURVE",
"72 567 LINE",
"137 564 OFFCURVE",
"145 529 OFFCURVE",
"143 484 CURVE SMOOTH",
"140 400 OFFCURVE",
"135 266 OFFCURVE",
"107 101 CURVE SMOOTH",
"100 62 OFFCURVE",
"84 47 OFFCURVE",
"31 47 CURVE",
"35 0 LINE",
"92 0 OFFCURVE"
);
},
{
closed = 1;
nodes = (
"232 311 OFFCURVE",
"212 324 CURVE",
"220 400 OFFCURVE",
"226 503 OFFCURVE",
"237 563 CURVE",
"253 570 OFFCURVE",
"279 577 OFFCURVE",
"307 576 CURVE SMOOTH",
"403 574 OFFCURVE",
"453 529 OFFCURVE",
"445 442 CURVE SMOOTH",
"438 372 OFFCURVE",
"396 299 OFFCURVE",
"302 298 CURVE SMOOTH",
"266 298 OFFCURVE"
);
}
);
width = 520;
}
);
unicode = 0050;
},
{
glyphname = Thorn;
lastChange = "2018-09-12 15:08:21 +0000";
layers = (
{
components = (
{
name = I;
}
);
layerId = "51BB9282-3B82-4DF1-A67A-294D3E37D73A";
paths = (
{
closed = 1;
nodes = (
"199 153 OFFCURVE",
"232 153 CURVE SMOOTH",
"380 153 OFFCURVE",
"514 213 OFFCURVE",
"514 353 CURVE SMOOTH",
"514 464 OFFCURVE",
"427 514 OFFCURVE",
"322 514 CURVE SMOOTH",
"270 514 OFFCURVE",
"219 507 OFFCURVE",
"193 500 CURVE",
"193 457 LINE",
"207 465 OFFCURVE",
"268 467 OFFCURVE",
"292 467 CURVE SMOOTH",
"377 465 OFFCURVE",
"414 415 OFFCURVE",
"414 357 CURVE SMOOTH",
"414 266 OFFCURVE",
"367 199 OFFCURVE",
"281 199 CURVE SMOOTH",
"223 199 OFFCURVE",
"182 231 OFFCURVE",
"182 231 CURVE",
"152 163 LINE",
"169 156 OFFCURVE"
);
}
);
width = 544;
},
{
components = (
{
name = I;
transform = "{1, 0, 0.08749, 1, 0, 0}";
}
);
layerId = "8B9D8DF0-167E-4E5A-BF63-AC43D342B811";
paths = (
{
closed = 1;
nodes = (
"212 153 OFFCURVE",
"245 153 CURVE SMOOTH",
"393 153 OFFCURVE",
"533 213 OFFCURVE",
"545 353 CURVE SMOOTH",
"555 464 OFFCURVE",
"472 514 OFFCURVE",
"367 514 CURVE SMOOTH",
"315 514 OFFCURVE",
"263 507 OFFCURVE",
"237 500 CURVE",
"233 457 LINE",
"248 465 OFFCURVE",
"309 467 OFFCURVE",
"333 467 CURVE SMOOTH",
"418 465 OFFCURVE",
"450 415 OFFCURVE",
"445 357 CURVE SMOOTH",
"437 266 OFFCURVE",
"384 199 OFFCURVE",
"298 199 CURVE SMOOTH",
"240 199 OFFCURVE",
"202 231 OFFCURVE",
"202 231 CURVE",
"166 163 LINE",
"183 156 OFFCURVE"
);
}
);
width = 544;
}
);
rightMetricsKey = "=30";
unicode = 00DE;
},
{
glyphname = Q;
lastChange = "2018-09-12 15:08:21 +0000";
layers = (
{
components = (
{
name = O;
}
);
layerId = "51BB9282-3B82-4DF1-A67A-294D3E37D73A";
paths = (
{
closed = 1;
nodes = (
"643 -180 OFFCURVE",
"691 -165 CURVE",
"699 -100 LINE",
"687 -74 LINE",
"687 -74 OFFCURVE",
"618 -100 OFFCURVE",
"524 -99 CURVE SMOOTH",
"437 -97 OFFCURVE",
"278 -62 OFFCURVE",
"235 16 CURVE",
"180 9 LINE",
"203 -45 OFFCURVE",
"316 -181 OFFCURVE",
"504 -184 CURVE SMOOTH",
"591 -185 OFFCURVE"
);
}
);
width = 648;
},
{
components = (
{
name = O;
transform = "{1, 0, 0.08749, 1, 16, 0}";
}
);
layerId = "8B9D8DF0-167E-4E5A-BF63-AC43D342B811";
paths = (
{
closed = 1;
nodes = (
"643 -180 OFFCURVE",
"693 -165 CURVE",
"706 -100 LINE",
"697 -74 LINE",
"697 -74 OFFCURVE",
"625 -100 OFFCURVE",
"531 -99 CURVE SMOOTH",
"445 -97 OFFCURVE",
"289 -62 OFFCURVE",
"253 16 CURVE",
"197 9 LINE",
"215 -45 OFFCURVE",
"316 -181 OFFCURVE",
"504 -184 CURVE SMOOTH",
"591 -185 OFFCURVE"
);
}
);
width = 648;
}
);
unicode = 0051;
},
{
glyphname = R;
lastChange = "2018-09-12 15:08:21 +0000";
layers = (
{
layerId = "51BB9282-3B82-4DF1-A67A-294D3E37D73A";
paths = (
{
closed = 1;
nodes = (
"99 566 OFFCURVE",
"110 531 OFFCURVE",
"112 486 CURVE SMOOTH",
"119 363 OFFCURVE",
"116 266 OFFCURVE",
"109 101 CURVE SMOOTH",
"108 62 OFFCURVE",
"92 47 OFFCURVE",
"39 47 CURVE",
"46 0 LINE",
"282 0 LINE",
"272 43 LINE",
"231 43 OFFCURVE",
"203 52 OFFCURVE",
"199 96 CURVE SMOOTH",
"194 139 OFFCURVE",
"193 236 OFFCURVE",
"194 314 CURVE",
"174 283 LINE",
"189 279 OFFCURVE",
"243 272 OFFCURVE",
"282 272 CURVE SMOOTH",
"396 273 OFFCURVE",
"508 349 OFFCURVE",
"507 475 CURVE SMOOTH",
"506 560 OFFCURVE",
"458 621 OFFCURVE",
"340 621 CURVE SMOOTH",
"232 621 OFFCURVE",
"136 610 OFFCURVE",
"29 617 CURVE",
"33 568 LINE"
);
},
{
closed = 1;
nodes = (
"427 32 OFFCURVE",
"464 0 CURVE",
"599 0 LINE",
"590 47 LINE",
"517 46 OFFCURVE",
"409 249 OFFCURVE",
"359 329 CURVE",
"280 308 LINE",
"352 139 OFFCURVE"
);
},
{
closed = 1;
nodes = (
"243 576 OFFCURVE",
"279 575 CURVE SMOOTH",
"379 574 OFFCURVE",
"421 533 OFFCURVE",
"420 454 CURVE SMOOTH",
"420 388 OFFCURVE",
"381 326 OFFCURVE",
"290 323 CURVE SMOOTH",
"259 323 OFFCURVE",
"219 330 OFFCURVE",
"196 336 CURVE",
"196 413 OFFCURVE",
"193 504 OFFCURVE",
"199 564 CURVE",
"217 571 OFFCURVE"
);
}
);
width = 609;
},
{
layerId = "8B9D8DF0-167E-4E5A-BF63-AC43D342B811";
paths = (
{
closed = 1;
nodes = (
"149 566 OFFCURVE",
"156 531 OFFCURVE",
"155 486 CURVE SMOOTH",
"151 363 OFFCURVE",
"139 266 OFFCURVE",
"118 101 CURVE SMOOTH",
"113 62 OFFCURVE",
"96 47 OFFCURVE",
"43 47 CURVE",
"46 0 LINE",
"282 0 LINE",
"276 43 LINE",
"235 43 OFFCURVE",
"208 52 OFFCURVE",
"207 96 CURVE SMOOTH",
"206 139 OFFCURVE",
"214 236 OFFCURVE",
"221 314 CURVE",
"199 283 LINE",
"213 279 OFFCURVE",
"267 272 OFFCURVE",
"306 272 CURVE SMOOTH",
"420 273 OFFCURVE",
"539 349 OFFCURVE",
"549 475 CURVE SMOOTH",
"555 560 OFFCURVE",
"512 621 OFFCURVE",
"394 621 CURVE SMOOTH",
"286 621 OFFCURVE",
"189 610 OFFCURVE",
"83 617 CURVE",
"83 568 LINE"
);
},
{
closed = 1;
nodes = (
"430 32 OFFCURVE",
"464 0 CURVE",
"599 0 LINE",
"594 47 LINE",
"521 46 OFFCURVE",
"431 249 OFFCURVE",
"388 329 CURVE",
"307 308 LINE",
"364 139 OFFCURVE"
);
},
{
closed = 1;
nodes = (
"293 576 OFFCURVE",
"329 575 CURVE SMOOTH",
"429 574 OFFCURVE",
"468 533 OFFCURVE",
"460 454 CURVE SMOOTH",
"454 388 OFFCURVE",
"410 326 OFFCURVE",
"318 323 CURVE SMOOTH",
"287 323 OFFCURVE",
"248 330 OFFCURVE",
"225 336 CURVE",
"232 413 OFFCURVE",
"237 504 OFFCURVE",
"248 564 CURVE",
"267 571 OFFCURVE"
);
}
);
width = 609;
}
);
unicode = 0052;
},
{
glyphname = S;
lastChange = "2018-09-12 15:08:21 +0000";
layers = (
{
layerId = "51BB9282-3B82-4DF1-A67A-294D3E37D73A";
paths = (
{
closed = 1;
nodes = (
"420 88 OFFCURVE",
"420 170 CURVE SMOOTH",
"420 349 OFFCURVE",
"149 392 OFFCURVE",
"149 501 CURVE SMOOTH",
"149 544 OFFCURVE",
"182 575 OFFCURVE",
"233 575 CURVE SMOOTH",
"311 575 OFFCURVE",
"336 511 OFFCURVE",
"351 493 CURVE",
"297 609 LINE",
"318 561 OFFCURVE",
"332 505 OFFCURVE",
"333 468 CURVE",
"404 460 LINE",
"407 481 OFFCURVE",
"410 514 OFFCURVE",
"410 547 CURVE SMOOTH",
"410 566 OFFCURVE",
"409 584 OFFCURVE",
"407 598 CURVE",
"407 598 OFFCURVE",
"344 623 OFFCURVE",
"259 623 CURVE SMOOTH",
"125 623 OFFCURVE",
"63 546 OFFCURVE",
"63 466 CURVE SMOOTH",
"63 318 OFFCURVE",
"326 291 OFFCURVE",
"326 145 CURVE SMOOTH",
"326 98 OFFCURVE",
"293 46 OFFCURVE",
"224 45 CURVE SMOOTH",
"152 45 OFFCURVE",
"135 78 OFFCURVE",
"104 114 CURVE",
"112 72 OFFCURVE",
"106 47 OFFCURVE",
"152 36 CURVE",
"122 70 OFFCURVE",
"120 106 OFFCURVE",
"117 152 CURVE",
"48 160 LINE",
"42 121 OFFCURVE",
"40 89 OFFCURVE",
"40 55 CURVE SMOOTH",
"40 39 OFFCURVE",
"41 25 OFFCURVE",
"42 13 CURVE",
"42 13 OFFCURVE",
"102 -11 OFFCURVE",
"210 -10 CURVE SMOOTH",
"366 -9 OFFCURVE"
);
}
);
width = 469;
},
{
layerId = "8B9D8DF0-167E-4E5A-BF63-AC43D342B811";
paths = (
{
closed = 1;
nodes = (
"429 88 OFFCURVE",
"436 170 CURVE SMOOTH",
"451 349 OFFCURVE",
"184 392 OFFCURVE",
"194 501 CURVE SMOOTH",
"197 544 OFFCURVE",
"233 575 OFFCURVE",
"284 575 CURVE SMOOTH",
"362 575 OFFCURVE",
"382 511 OFFCURVE",
"395 493 CURVE",
"351 609 LINE",
"368 561 OFFCURVE",
"377 505 OFFCURVE",
"375 468 CURVE",
"445 460 LINE",
"450 481 OFFCURVE",
"456 514 OFFCURVE",
"459 547 CURVE SMOOTH",
"460 566 OFFCURVE",
"461 584 OFFCURVE",
"460 598 CURVE",
"460 598 OFFCURVE",
"399 623 OFFCURVE",
"314 623 CURVE SMOOTH",
"180 623 OFFCURVE",
"112 546 OFFCURVE",
"105 466 CURVE SMOOTH",
"92 318 OFFCURVE",
"352 291 OFFCURVE",
"340 145 CURVE SMOOTH",
"335 98 OFFCURVE",
"298 46 OFFCURVE",
"229 45 CURVE SMOOTH",
"157 45 OFFCURVE",
"143 78 OFFCURVE",
"115 114 CURVE",
"119 72 OFFCURVE",
"111 47 OFFCURVE",
"156 36 CURVE",
"129 70 OFFCURVE",
"130 106 OFFCURVE",
"131 152 CURVE",
"63 160 LINE",
"53 121 OFFCURVE",
"49 89 OFFCURVE",
"46 55 CURVE SMOOTH",
"44 39 OFFCURVE",
"44 25 OFFCURVE",
"44 13 CURVE",
"44 13 OFFCURVE",
"102 -11 OFFCURVE",
"210 -10 CURVE SMOOTH",
"366 -9 OFFCURVE"
);
}
);
width = 469;
}
);
unicode = 0053;
},
{
color = 0;
glyphname = Germandbls;
lastChange = "2018-09-12 15:08:21 +0000";
layers = (
{
layerId = "51BB9282-3B82-4DF1-A67A-294D3E37D73A";
paths = (
{
closed = 1;
nodes = (
"252 9 OFFCURVE",
"252 9 CURVE",
"249 19 OFFCURVE",
"247 42 OFFCURVE",
"247 62 CURVE SMOOTH",
"247 83 OFFCURVE",
"248 105 OFFCURVE",
"250 126 CURVE",
"300 125 LINE",
"304 91 OFFCURVE",
"310 47 OFFCURVE",
"349 22 CURVE",
"322 27 OFFCURVE",
"295 41 OFFCURVE",
"283 60 CURVE",
"300 47 OFFCURVE",
"326 33 OFFCURVE",
"362 33 CURVE SMOOTH",
"401 33 OFFCURVE",
"429 74 OFFCURVE",
"429 125 CURVE SMOOTH",
"429 180 OFFCURVE",
"400 258 OFFCURVE",
"292 293 CURVE",
"276 312 LINE",
"296 340 OFFCURVE",
"385 406 OFFCURVE",
"385 454 CURVE SMOOTH",
"385 524 OFFCURVE",
"305 589 OFFCURVE",
"248 589 CURVE SMOOTH",
"211 589 OFFCURVE",
"195 562 OFFCURVE",
"193 527 CURVE",
"182 413 OFFCURVE",
"191 201 OFFCURVE",
"193 132 CURVE SMOOTH",
"194 88 OFFCURVE",
"197 44 OFFCURVE",
"202 0 CURVE",
"32 0 LINE",
"24 47 LINE",
"34 47 LINE SMOOTH",
"84 47 OFFCURVE",
"98 68 OFFCURVE",
"103 105 CURVE SMOOTH",
"107 126 OFFCURVE",
"110 160 OFFCURVE",
"110 195 CURVE SMOOTH",
"110 268 OFFCURVE",
"108 480 OFFCURVE",
"108 497 CURVE SMOOTH",
"108 596 OFFCURVE",
"192 634 OFFCURVE",
"254 634 CURVE SMOOTH",
"379 634 OFFCURVE",
"471 589 OFFCURVE",
"471 480 CURVE",
"441 427 OFFCURVE",
"368 360 OFFCURVE",
"337 329 CURVE",
"322 359 LINE",
"459 316 OFFCURVE",
"521 226 OFFCURVE",
"521 143 CURVE SMOOTH",
"521 63 OFFCURVE",
"468 -8 OFFCURVE",
"377 -8 CURVE",
"307 -11 OFFCURVE"
);
}
);
width = 531;
},
{
layerId = "8B9D8DF0-167E-4E5A-BF63-AC43D342B811";
paths = (
{
closed = 1;
nodes = (
"254 9 OFFCURVE",
"254 9 CURVE",
"251 19 OFFCURVE",
"251 42 OFFCURVE",
"253 62 CURVE SMOOTH",
"255 83 OFFCURVE",
"258 105 OFFCURVE",
"262 126 CURVE",
"312 125 LINE",
"313 91 OFFCURVE",
"315 47 OFFCURVE",
"352 22 CURVE",
"325 27 OFFCURVE",
"299 41 OFFCURVE",
"289 60 CURVE",
"305 47 OFFCURVE",
"330 33 OFFCURVE",
"366 33 CURVE SMOOTH",
"405 33 OFFCURVE",
"436 74 OFFCURVE",
"441 125 CURVE SMOOTH",
"445 180 OFFCURVE",
"423 258 OFFCURVE",
"318 293 CURVE",
"304 312 LINE",
"326 340 OFFCURVE",
"421 406 OFFCURVE",
"425 454 CURVE SMOOTH",
"432 524 OFFCURVE",
"357 589 OFFCURVE",
"300 589 CURVE SMOOTH",
"263 589 OFFCURVE",
"245 562 OFFCURVE",
"240 527 CURVE",
"219 413 OFFCURVE",
"209 201 OFFCURVE",
"205 132 CURVE SMOOTH",
"202 88 OFFCURVE",
"202 44 OFFCURVE",
"203 0 CURVE",
"33 0 LINE",
"29 47 LINE",
"39 47 LINE SMOOTH",
"89 47 OFFCURVE",
"105 68 OFFCURVE",
"113 105 CURVE SMOOTH",
"119 126 OFFCURVE",
"125 160 OFFCURVE",
"128 195 CURVE SMOOTH",
"134 268 OFFCURVE",
"151 480 OFFCURVE",
"152 497 CURVE SMOOTH",
"161 596 OFFCURVE",
"248 634 OFFCURVE",
"310 634 CURVE SMOOTH",
"435 634 OFFCURVE",
"523 589 OFFCURVE",
"514 480 CURVE",
"479 427 OFFCURVE",
"400 360 OFFCURVE",
"367 329 CURVE",
"354 359 LINE",
"487 316 OFFCURVE",
"541 226 OFFCURVE",
"534 143 CURVE SMOOTH",
"527 63 OFFCURVE",
"468 -8 OFFCURVE",
"377 -8 CURVE",
"307 -11 OFFCURVE"
);
}
);
width = 531;
}
);
unicode = 1E9E;
},
{
glyphname = Schwa;
lastChange = "2018-09-12 15:08:21 +0000";
layers = (
{
layerId = "51BB9282-3B82-4DF1-A67A-294D3E37D73A";
paths = (
{
closed = 1;
nodes = (
"407 598 OFFCURVE",
"269 598 CURVE SMOOTH",
"142 597 OFFCURVE",
"69 526 OFFCURVE",
"53 506 CURVE",
"72 480 LINE",
"74 480 OFFCURVE",
"135 537 OFFCURVE",
"229 535 CURVE SMOOTH",
"396 533 OFFCURVE",
"429 408 OFFCURVE",
"427 281 CURVE SMOOTH",
"425 105 OFFCURVE",
"349 54 OFFCURVE",
"283 54 CURVE SMOOTH",
"190 54 OFFCURVE",
"120 138 OFFCURVE",
"120 255 CURVE",
"212 256 LINE",
"455 278 LINE",
"440 324 LINE",
"33 322 LINE",
"12 125 OFFCURVE",
"107 2 OFFCURVE",
"268 3 CURVE SMOOTH",
"394 5 OFFCURVE",
"520 116 OFFCURVE",
"520 333 CURVE SMOOTH",
"520 507 OFFCURVE"
);
}
);
width = 558;
},
{
layerId = "8B9D8DF0-167E-4E5A-BF63-AC43D342B811";
paths = (
{
closed = 1;
nodes = (
"459 598 OFFCURVE",
"321 598 CURVE SMOOTH",
"194 597 OFFCURVE",
"115 526 OFFCURVE",
"97 506 CURVE",
"114 480 LINE",
"116 480 OFFCURVE",
"182 537 OFFCURVE",
"276 535 CURVE SMOOTH",
"442 533 OFFCURVE",
"464 408 OFFCURVE",
"451 281 CURVE SMOOTH",
"434 105 OFFCURVE",
"353 54 OFFCURVE",
"287 54 CURVE SMOOTH",
"194 54 OFFCURVE",
"132 138 OFFCURVE",
"142 255 CURVE",
"234 256 LINE",
"479 278 LINE",
"468 324 LINE",
"61 322 LINE",
"23 125 OFFCURVE",
"107 2 OFFCURVE",
"268 3 CURVE SMOOTH",
"394 5 OFFCURVE",
"530 116 OFFCURVE",
"549 333 CURVE SMOOTH",
"564 507 OFFCURVE"
);
}
);
width = 558;
}
);
unicode = 018F;
},
{
glyphname = T;
lastChange = "2018-09-12 15:08:21 +0000";
layers = (
{
layerId = "51BB9282-3B82-4DF1-A67A-294D3E37D73A";
paths = (
{
closed = 1;
nodes = (
"367 50 LINE",
"347 49 OFFCURVE",
"305 52 OFFCURVE",
"301 99 CURVE SMOOTH",
"290 233 OFFCURVE",
"298 440 OFFCURVE",
"319 601 CURVE",
"319 601 OFFCURVE",
"210 583 OFFCURVE",
"162 584 CURVE",
"167 574 LINE",
"190 574 OFFCURVE",
"208 572 OFFCURVE",
"211 538 CURVE SMOOTH",
"219 440 OFFCURVE",
"220 251 OFFCURVE",
"206 112 CURVE SMOOTH",
"203 76 OFFCURVE",
"176 49 OFFCURVE",
"122 47 CURVE",
"126 0 LINE",
"376 0 LINE"
);
},
{
closed = 1;
nodes = (
"523 595 OFFCURVE",
"524 617 CURVE",
"446 611 OFFCURVE",
"310 610 OFFCURVE",
"257 610 CURVE SMOOTH",
"166 610 OFFCURVE",
"99 611 OFFCURVE",
"16 616 CURVE",
"15 572 OFFCURVE",
"10 501 OFFCURVE",
"6 465 CURVE",
"70 474 LINE",
"81 501 OFFCURVE",
"87 558 OFFCURVE",
"116 586 CURVE",
"75 554 LINE",
"103 554 OFFCURVE",
"187 557 OFFCURVE",
"257 557 CURVE SMOOTH",
"323 557 OFFCURVE",
"399 561 OFFCURVE",
"467 537 CURVE",
"402 594 LINE",
"435 564 OFFCURVE",
"454 512 OFFCURVE",
"460 467 CURVE",
"515 460 LINE",
"515 464 OFFCURVE"
);
}
);
width = 532;
},
{
layerId = "8B9D8DF0-167E-4E5A-BF63-AC43D342B811";
paths = (
{
closed = 1;
nodes = (
"371 50 LINE",
"351 49 OFFCURVE",
"310 52 OFFCURVE",
"310 99 CURVE SMOOTH",
"310 233 OFFCURVE",
"336 440 OFFCURVE",
"372 601 CURVE",
"372 601 OFFCURVE",
"261 583 OFFCURVE",
"213 584 CURVE",
"217 574 LINE",
"240 574 OFFCURVE",
"258 572 OFFCURVE",
"258 538 CURVE SMOOTH",
"257 440 OFFCURVE",
"242 251 OFFCURVE",
"216 112 CURVE SMOOTH",
"210 76 OFFCURVE",
"180 49 OFFCURVE",
"126 47 CURVE",
"126 0 LINE",
"376 0 LINE"
);
},
{
closed = 1;
nodes = (
"575 595 OFFCURVE",
"578 617 CURVE",
"499 611 OFFCURVE",
"363 610 OFFCURVE",
"310 610 CURVE SMOOTH",
"219 610 OFFCURVE",
"152 611 OFFCURVE",
"70 616 CURVE",
"65 572 OFFCURVE",
"54 501 OFFCURVE",
"47 465 CURVE",
"111 474 LINE",
"125 501 OFFCURVE",
"136 558 OFFCURVE",
"167 586 CURVE",
"123 554 LINE",
"151 554 OFFCURVE",
"236 557 OFFCURVE",
"306 557 CURVE SMOOTH",
"372 557 OFFCURVE",
"448 561 OFFCURVE",
"514 537 CURVE",
"454 594 LINE",
"484 564 OFFCURVE",
"499 512 OFFCURVE",
"501 467 CURVE",
"555 460 LINE",
"556 464 OFFCURVE"
);
}
);
width = 532;
}
);
unicode = 0054;
},
{
glyphname = Tbar;
lastChange = "2018-09-12 15:08:21 +0000";
layers = (
{
components = (
{
name = T;
}
);
layerId = "51BB9282-3B82-4DF1-A67A-294D3E37D73A";
paths = (
{
closed = 1;
nodes = (
"478 311 OFFCURVE",
"483 337 OFFCURVE",
"484 358 CURVE",
"352 353 OFFCURVE",
"186 350 OFFCURVE",
"41 358 CURVE",
"30 285 LINE",
"477 285 LINE"
);
}
);
width = 532;
},
{
components = (
{
name = T;
transform = "{1, 0, 0.08749, 1, 0, 0}";
}
);
layerId = "8B9D8DF0-167E-4E5A-BF63-AC43D342B811";
paths = (
{
closed = 1;
nodes = (
"505 311 OFFCURVE",
"512 337 OFFCURVE",
"515 358 CURVE",
"383 353 OFFCURVE",
"217 350 OFFCURVE",
"72 358 CURVE",
"55 285 LINE",
"502 285 LINE"
);
}
);
width = 532;
}
);
unicode = 0166;
},
{
glyphname = U;
lastChange = "2018-09-12 15:08:21 +0000";
layers = (
{
layerId = "51BB9282-3B82-4DF1-A67A-294D3E37D73A";
paths = (
{
closed = 1;
nodes = (
"493 35 OFFCURVE",
"505 182 CURVE SMOOTH",
"512 265 OFFCURVE",
"506 384 OFFCURVE",
"513 511 CURVE SMOOTH",
"515 551 OFFCURVE",
"536 564 OFFCURVE",
"590 566 CURVE",
"588 581 OFFCURVE",
"584 616 OFFCURVE",
"584 616 CURVE",
"551 614 OFFCURVE",
"504 613 OFFCURVE",
"457 613 CURVE SMOOTH",
"420 613 OFFCURVE",
"381 614 OFFCURVE",
"347 615 CURVE",
"349 608 OFFCURVE",
"352 583 OFFCURVE",
"354 571 CURVE",
"408 571 OFFCURVE",
"444 564 OFFCURVE",
"444 494 CURVE SMOOTH",
"444 494 LINE SMOOTH",
"445 437 OFFCURVE",
"447 380 OFFCURVE",
"447 324 CURVE SMOOTH",
"447 284 OFFCURVE",
"446 245 OFFCURVE",
"443 206 CURVE SMOOTH",
"436 113 OFFCURVE",
"387 47 OFFCURVE",
"295 47 CURVE SMOOTH",
"201 47 OFFCURVE",
"159 109 OFFCURVE",
"152 194 CURVE SMOOTH",
"152 205 OFFCURVE",
"151 229 OFFCURVE",
"151 260 CURVE SMOOTH",
"151 325 OFFCURVE",
"153 420 OFFCURVE",
"158 487 CURVE SMOOTH",
"162 538 OFFCURVE",
"174 562 OFFCURVE",
"252 567 CURVE",
"249 581 OFFCURVE",
"246 617 OFFCURVE",
"246 617 CURVE",
"199 614 OFFCURVE",
"157 613 OFFCURVE",
"116 613 CURVE SMOOTH",
"72 613 OFFCURVE",
"29 614 OFFCURVE",
"-17 616 CURVE",
"-15 609 OFFCURVE",
"-12 580 OFFCURVE",
"-10 567 CURVE",
"54 568 OFFCURVE",
"65 547 OFFCURVE",
"69 493 CURVE SMOOTH",
"69 483 OFFCURVE",
"69 470 OFFCURVE",
"69 457 CURVE SMOOTH",
"69 382 OFFCURVE",
"63 259 OFFCURVE",
"63 179 CURVE SMOOTH",
"63 21 OFFCURVE",
"189 -13 OFFCURVE",
"278 -13 CURVE SMOOTH",
"377 -13 OFFCURVE"
);
}
);
width = 591;
},
{
layerId = "8B9D8DF0-167E-4E5A-BF63-AC43D342B811";
paths = (
{
closed = 1;
nodes = (
"497 35 OFFCURVE",
"522 182 CURVE SMOOTH",
"536 265 OFFCURVE",
"541 384 OFFCURVE",
"559 511 CURVE SMOOTH",
"564 551 OFFCURVE",
"586 564 OFFCURVE",
"641 566 CURVE",
"640 581 OFFCURVE",
"639 616 OFFCURVE",
"639 616 CURVE",
"606 614 OFFCURVE",
"559 613 OFFCURVE",
"512 613 CURVE SMOOTH",
"475 613 OFFCURVE",
"436 614 OFFCURVE",
"402 615 CURVE",
"403 608 OFFCURVE",
"404 583 OFFCURVE",
"405 571 CURVE",
"459 571 OFFCURVE",
"494 564 OFFCURVE",
"488 494 CURVE SMOOTH",
"488 494 LINE SMOOTH",
"484 437 OFFCURVE",
"481 380 OFFCURVE",
"476 324 CURVE SMOOTH",
"473 284 OFFCURVE",
"469 245 OFFCURVE",
"462 206 CURVE SMOOTH",
"447 113 OFFCURVE",
"392 47 OFFCURVE",
"300 47 CURVE SMOOTH",
"206 47 OFFCURVE",
"170 109 OFFCURVE",
"170 194 CURVE SMOOTH",
"171 205 OFFCURVE",
"172 229 OFFCURVE",
"175 260 CURVE SMOOTH",
"181 325 OFFCURVE",
"191 420 OFFCURVE",
"202 487 CURVE SMOOTH",
"210 538 OFFCURVE",
"224 562 OFFCURVE",
"303 567 CURVE",
"301 581 OFFCURVE",
"301 617 OFFCURVE",
"301 617 CURVE",
"254 614 OFFCURVE",
"212 613 OFFCURVE",
"171 613 CURVE SMOOTH",
"127 613 OFFCURVE",
"84 614 OFFCURVE",
"38 616 CURVE",
"39 609 OFFCURVE",
"40 580 OFFCURVE",
"41 567 CURVE",
"105 568 OFFCURVE",
"114 547 OFFCURVE",
"113 493 CURVE SMOOTH",
"112 483 OFFCURVE",
"111 470 OFFCURVE",
"110 457 CURVE SMOOTH",
"104 382 OFFCURVE",
"87 259 OFFCURVE",
"80 179 CURVE SMOOTH",
"66 21 OFFCURVE",
"189 -13 OFFCURVE",
"278 -13 CURVE SMOOTH",
"377 -13 OFFCURVE"
);
}
);
width = 591;
}
);
unicode = 0055;
},
{
glyphname = Uhorn;
lastChange = "2018-09-12 15:08:21 +0000";
layers = (
{
components = (
{
name = U;
}
);
layerId = "51BB9282-3B82-4DF1-A67A-294D3E37D73A";
paths = (
{
closed = 1;
nodes = (
"669 667 CURVE SMOOTH",
"668 708 OFFCURVE",
"644 762 OFFCURVE",
"597 762 CURVE SMOOTH",
"564 762 OFFCURVE",
"549 742 OFFCURVE",
"553 705 CURVE",
"584 697 OFFCURVE",
"612 680 OFFCURVE",
"612 651 CURVE SMOOTH",
"612 621 OFFCURVE",
"591 616 OFFCURVE",
"551 613 CURVE",
"575 565 LINE",
"624 565 OFFCURVE",
"670 597 OFFCURVE"
);
}
);
width = 669;
},
{
components = (
{
name = U;
transform = "{1, 0, 0.08749, 1, 1, 0}";
}
);
layerId = "8B9D8DF0-167E-4E5A-BF63-AC43D342B811";
paths = (
{
closed = 1;
nodes = (
"728 667 CURVE SMOOTH",
"731 708 OFFCURVE",
"712 762 OFFCURVE",
"665 762 CURVE SMOOTH",
"632 762 OFFCURVE",
"615 742 OFFCURVE",
"616 705 CURVE",
"646 697 OFFCURVE",
"673 680 OFFCURVE",
"670 651 CURVE SMOOTH",
"667 621 OFFCURVE",
"646 616 OFFCURVE",
"606 613 CURVE",
"626 565 LINE",
"675 565 OFFCURVE",
"723 597 OFFCURVE"
);
}
);
width = 669;
}
);
unicode = 01AF;
},
{
glyphname = V;
lastChange = "2018-09-12 15:08:21 +0000";
layers = (
{
layerId = "51BB9282-3B82-4DF1-A67A-294D3E37D73A";
paths = (
{
closed = 1;
nodes = (
"329 2 OFFCURVE",
"359 6 CURVE",
"404 145 OFFCURVE",
"478 330 OFFCURVE",
"550 511 CURVE SMOOTH",
"564 549 OFFCURVE",
"581 575 OFFCURVE",
"644 568 CURVE",
"636 615 LINE",
"557 608 OFFCURVE",
"472 612 OFFCURVE",
"387 615 CURVE",
"394 576 LINE",
"431 577 OFFCURVE",
"493 578 OFFCURVE",
"477 504 CURVE SMOOTH",
"465 455 OFFCURVE",
"370 206 OFFCURVE",
"316 59 CURVE",
"313 90 OFFCURVE",
"304 153 OFFCURVE",
"298 183 CURVE",
"265 290 OFFCURVE",
"216 428 OFFCURVE",
"190 520 CURVE SMOOTH",
"178 565 OFFCURVE",
"216 574 OFFCURVE",
"270 566 CURVE",
"263 615 LINE",
"199 611 OFFCURVE",
"90 611 OFFCURVE",
"4 615 CURVE",
"12 573 LINE",
"64 581 OFFCURVE",
"80 543 OFFCURVE",
"93 515 CURVE",
"170 309 OFFCURVE",
"213 144 OFFCURVE",
"260 -18 CURVE",
"290 -8 OFFCURVE"
);
}
);
width = 636;
},
{
layerId = "8B9D8DF0-167E-4E5A-BF63-AC43D342B811";
paths = (
{
closed = 1;
nodes = (
"331 2 OFFCURVE",
"361 6 CURVE",
"418 145 OFFCURVE",
"508 330 OFFCURVE",
"596 511 CURVE SMOOTH",
"614 549 OFFCURVE",
"633 575 OFFCURVE",
"695 568 CURVE",
"691 615 LINE",
"612 608 OFFCURVE",
"527 612 OFFCURVE",
"442 615 CURVE",
"446 576 LINE",
"483 577 OFFCURVE",
"545 578 OFFCURVE",
"523 504 CURVE SMOOTH",
"506 455 OFFCURVE",
"390 206 OFFCURVE",
"323 59 CURVE",
"322 90 OFFCURVE",
"319 153 OFFCURVE",
"316 183 CURVE",
"292 290 OFFCURVE",
"255 428 OFFCURVE",
"237 520 CURVE SMOOTH",
"229 565 OFFCURVE",
"268 574 OFFCURVE",
"321 566 CURVE",
"318 615 LINE",
"254 611 OFFCURVE",
"145 611 OFFCURVE",
"59 615 CURVE",
"64 573 LINE",
"116 581 OFFCURVE",
"129 543 OFFCURVE",
"140 515 CURVE",
"199 309 OFFCURVE",
"227 144 OFFCURVE",
"260 -18 CURVE",
"291 -8 OFFCURVE"
);
}
);
width = 636;
}
);
unicode = 0056;
},
{
glyphname = W;
lastChange = "2018-09-12 15:08:21 +0000";
layers = (
{
layerId = "51BB9282-3B82-4DF1-A67A-294D3E37D73A";
paths = (
{
closed = 1;
nodes = (
"665 2 OFFCURVE",
"695 6 CURVE",
"738 145 OFFCURVE",
"810 331 OFFCURVE",
"866 511 CURVE SMOOTH",
"879 551 OFFCURVE",
"897 568 OFFCURVE",
"952 569 CURVE",
"944 616 LINE",
"715 616 LINE",
"722 572 LINE",
"782 573 OFFCURVE",
"805 567 OFFCURVE",
"796 513 CURVE SMOOTH",
"788 464 OFFCURVE",
"700 228 OFFCURVE",
"651 77 CURVE",
"649 104 OFFCURVE",
"651 148 OFFCURVE",
"644 173 CURVE",
"611 285 OFFCURVE",
"574 424 OFFCURVE",
"547 520 CURVE SMOOTH",
"535 565 OFFCURVE",
"571 567 OFFCURVE",
"621 566 CURVE",
"614 615 LINE",
"361 615 LINE",
"367 573 LINE",
"420 574 OFFCURVE",
"437 547 OFFCURVE",
"452 500 CURVE SMOOTH",
"517 298 OFFCURVE",
"556 139 OFFCURVE",
"603 -18 CURVE",
"633 -8 OFFCURVE"
);
},
{
closed = 1;
nodes = (
"306 2 OFFCURVE",
"336 6 CURVE",
"394 145 OFFCURVE",
"472 315 OFFCURVE",
"536 487 CURVE",
"464 477 LINE",
"446 429 OFFCURVE",
"363 236 OFFCURVE",
"296 82 CURVE",
"290 109 OFFCURVE",
"289 159 OFFCURVE",
"283 184 CURVE",
"249 296 OFFCURVE",
"207 425 OFFCURVE",
"181 521 CURVE SMOOTH",
"169 567 OFFCURVE",
"215 570 OFFCURVE",
"263 568 CURVE",
"255 617 LINE",
"187 614 OFFCURVE",
"62 614 OFFCURVE",
"-5 617 CURVE",
"3 567 LINE",
"55 569 OFFCURVE",
"69 544 OFFCURVE",
"85 501 CURVE SMOOTH",
"155 300 OFFCURVE",
"193 139 OFFCURVE",
"239 -18 CURVE",
"270 -8 OFFCURVE"
);
}
);
width = 971;
},
{
layerId = "8B9D8DF0-167E-4E5A-BF63-AC43D342B811";
paths = (
{
closed = 1;
nodes = (
"667 2 OFFCURVE",
"697 6 CURVE",
"752 145 OFFCURVE",
"841 331 OFFCURVE",
"912 511 CURVE SMOOTH",
"929 551 OFFCURVE",
"948 568 OFFCURVE",
"1003 569 CURVE",
"999 616 LINE",
"770 616 LINE",
"774 572 LINE",
"834 573 OFFCURVE",
"856 567 OFFCURVE",
"842 513 CURVE SMOOTH",
"830 464 OFFCURVE",
"722 228 OFFCURVE",
"659 77 CURVE",
"660 104 OFFCURVE",
"666 148 OFFCURVE",
"661 173 CURVE",
"638 285 OFFCURVE",
"613 424 OFFCURVE",
"594 520 CURVE SMOOTH",
"586 565 OFFCURVE",
"622 567 OFFCURVE",
"672 566 CURVE",
"669 615 LINE",
"416 615 LINE",
"419 573 LINE",
"472 574 OFFCURVE",
"486 547 OFFCURVE",
"497 500 CURVE SMOOTH",
"545 298 OFFCURVE",
"570 139 OFFCURVE",
"603 -18 CURVE",
"634 -8 OFFCURVE"
);
},
{
closed = 1;
nodes = (
"308 2 OFFCURVE",
"338 6 CURVE",
"408 145 OFFCURVE",
"501 315 OFFCURVE",
"580 487 CURVE",
"507 477 LINE",
"485 429 OFFCURVE",
"385 236 OFFCURVE",
"305 82 CURVE",
"301 109 OFFCURVE",
"304 159 OFFCURVE",
"301 184 CURVE",
"276 296 OFFCURVE",
"246 425 OFFCURVE",
"228 521 CURVE SMOOTH",
"220 567 OFFCURVE",
"266 570 OFFCURVE",
"314 568 CURVE",
"311 617 LINE",
"242 614 OFFCURVE",
"117 614 OFFCURVE",
"51 617 CURVE",
"54 567 LINE",
"106 569 OFFCURVE",
"118 544 OFFCURVE",
"130 501 CURVE SMOOTH",
"183 300 OFFCURVE",
"207 139 OFFCURVE",
"239 -18 CURVE",
"271 -8 OFFCURVE"
);
}
);
width = 971;
}
);
unicode = 0057;
},
{
glyphname = X;
lastChange = "2018-09-12 15:08:21 +0000";
layers = (
{
layerId = "51BB9282-3B82-4DF1-A67A-294D3E37D73A";
paths = (
{
closed = 1;
nodes = (
"238 47 LINE",
"167 47 OFFCURVE",
"179 90 OFFCURVE",
"200 126 CURVE SMOOTH",
"232 181 OFFCURVE",
"278 249 OFFCURVE",
"320 294 CURVE",
"334 304 LINE",
"362 344 OFFCURVE",
"419 426 OFFCURVE",
"460 482 CURVE SMOOTH",
"501 537 OFFCURVE",
"534 567 OFFCURVE",
"594 567 CURVE",
"588 617 LINE",
"521 611 OFFCURVE",
"425 611 OFFCURVE",
"350 617 CURVE",
"356 563 LINE",
"411 562 OFFCURVE",
"432 554 OFFCURVE",
"402 505 CURVE SMOOTH",
"377 465 OFFCURVE",
"332 394 OFFCURVE",
"293 344 CURVE",
"263 323 LINE",
"223 258 OFFCURVE",
"149 153 OFFCURVE",
"117 113 CURVE SMOOTH",
"91 81 OFFCURVE",
"72 51 OFFCURVE",
"5 51 CURVE",
"11 1 LINE",
"245 1 LINE"
);
},
{
closed = 1;
nodes = (
"575 48 LINE",
"495 48 OFFCURVE",
"484 74 OFFCURVE",
"323 342 CURVE SMOOTH",
"310 361 OFFCURVE",
"263 447 OFFCURVE",
"230 503 CURVE SMOOTH",
"208 541 OFFCURVE",
"205 566 OFFCURVE",
"283 567 CURVE",
"275 616 LINE",
"199 615 OFFCURVE",
"97 610 OFFCURVE",
"15 617 CURVE",
"22 565 LINE",
"93 565 OFFCURVE",
"95 547 OFFCURVE",
"136 481 CURVE SMOOTH",
"182 404 OFFCURVE",
"219 346 OFFCURVE",
"253 287 CURVE",
"266 272 LINE",
"292 227 OFFCURVE",
"331 156 OFFCURVE",
"357 110 CURVE SMOOTH",
"387 56 OFFCURVE",
"350 49 OFFCURVE",
"306 48 CURVE",
"315 1 LINE",
"588 1 LINE"
);
}
);
width = 620;
},
{
layerId = "8B9D8DF0-167E-4E5A-BF63-AC43D342B811";
paths = (
{
closed = 1;
nodes = (
"242 47 LINE",
"171 47 OFFCURVE",
"187 90 OFFCURVE",
"211 126 CURVE SMOOTH",
"248 181 OFFCURVE",
"300 249 OFFCURVE",
"346 294 CURVE",
"361 304 LINE",
"392 344 OFFCURVE",
"456 426 OFFCURVE",
"502 482 CURVE SMOOTH",
"548 537 OFFCURVE",
"584 567 OFFCURVE",
"644 567 CURVE",
"642 617 LINE",
"574 611 OFFCURVE",
"478 611 OFFCURVE",
"404 617 CURVE",
"405 563 LINE",
"460 562 OFFCURVE",
"480 554 OFFCURVE",
"446 505 CURVE SMOOTH",
"418 465 OFFCURVE",
"366 394 OFFCURVE",
"323 344 CURVE",
"291 323 LINE",
"245 258 OFFCURVE",
"162 153 OFFCURVE",
"127 113 CURVE SMOOTH",
"98 81 OFFCURVE",
"76 51 OFFCURVE",
"9 51 CURVE",
"11 1 LINE",
"245 1 LINE"
);
},
{
closed = 1;
nodes = (
"579 48 LINE",
"499 48 OFFCURVE",
"490 74 OFFCURVE",
"353 342 CURVE SMOOTH",
"341 361 OFFCURVE",
"302 447 OFFCURVE",
"274 503 CURVE SMOOTH",
"255 541 OFFCURVE",
"254 566 OFFCURVE",
"333 567 CURVE",
"329 616 LINE",
"253 615 OFFCURVE",
"150 610 OFFCURVE",
"69 617 CURVE",
"71 565 LINE",
"142 565 OFFCURVE",
"143 547 OFFCURVE",
"178 481 CURVE SMOOTH",
"217 404 OFFCURVE",
"249 346 OFFCURVE",
"278 287 CURVE",
"290 272 LINE",
"312 227 OFFCURVE",
"345 156 OFFCURVE",
"367 110 CURVE SMOOTH",
"392 56 OFFCURVE",
"354 49 OFFCURVE",
"310 48 CURVE",
"315 1 LINE",
"588 1 LINE"
);
}
);
width = 620;
}
);
unicode = 0058;
},
{
glyphname = Y;
lastChange = "2018-09-12 15:08:21 +0000";
layers = (
{
layerId = "51BB9282-3B82-4DF1-A67A-294D3E37D73A";
paths = (
{
closed = 1;
nodes = (
"290 246 OFFCURVE",
"313 248 CURVE",
"341 310 OFFCURVE",
"403 389 OFFCURVE",
"477 510 CURVE SMOOTH",
"500 547 OFFCURVE",
"522 571 OFFCURVE",
"568 573 CURVE",
"560 618 LINE",
"485 614 OFFCURVE",
"411 613 OFFCURVE",
"336 618 CURVE",
"343 569 LINE",
"396 571 OFFCURVE",
"436 556 OFFCURVE",
"412 512 CURVE SMOOTH",
"367 429 OFFCURVE",
"314 352 OFFCURVE",
"280 296 CURVE",
"255 376 LINE",
"227 426 OFFCURVE",
"204 478 OFFCURVE",
"186 516 CURVE SMOOTH",
"165 557 OFFCURVE",
"180 571 OFFCURVE",
"239 576 CURVE",
"228 618 LINE",
"140 615 OFFCURVE",
"75 614 OFFCURVE",
"-12 618 CURVE",
"-6 573 LINE",
"30 574 OFFCURVE",
"59 562 OFFCURVE",
"85 514 CURVE SMOOTH",
"164 370 OFFCURVE",
"193 310 OFFCURVE",
"234 231 CURVE",
"260 239 OFFCURVE"
);
},
{
closed = 1;
nodes = (
"390 53 LINE",
"350 48 OFFCURVE",
"334 56 OFFCURVE",
"326 94 CURVE SMOOTH",
"317 130 OFFCURVE",
"307 187 OFFCURVE",
"324 296 CURVE",
"223 287 LINE",
"234 192 OFFCURVE",
"233 151 OFFCURVE",
"228 112 CURVE SMOOTH",
"223 72 OFFCURVE",
"206 42 OFFCURVE",
"150 53 CURVE",
"156 -1 LINE",
"407 0 LINE"
);
}
);
width = 558;
},
{
layerId = "8B9D8DF0-167E-4E5A-BF63-AC43D342B811";
paths = (
{
closed = 1;
nodes = (
"312 246 OFFCURVE",
"335 248 CURVE",
"368 310 OFFCURVE",
"437 389 OFFCURVE",
"522 510 CURVE SMOOTH",
"548 547 OFFCURVE",
"572 571 OFFCURVE",
"618 573 CURVE",
"614 618 LINE",
"539 614 OFFCURVE",
"465 613 OFFCURVE",
"390 618 CURVE",
"393 569 LINE",
"446 571 OFFCURVE",
"485 556 OFFCURVE",
"457 512 CURVE SMOOTH",
"405 429 OFFCURVE",
"345 352 OFFCURVE",
"306 296 CURVE",
"288 376 LINE",
"264 426 OFFCURVE",
"246 478 OFFCURVE",
"231 516 CURVE SMOOTH",
"214 557 OFFCURVE",
"230 571 OFFCURVE",
"289 576 CURVE",
"282 618 LINE",
"194 615 OFFCURVE",
"129 614 OFFCURVE",
"42 618 CURVE",
"44 573 LINE",
"80 574 OFFCURVE",
"108 562 OFFCURVE",
"130 514 CURVE SMOOTH",
"196 370 OFFCURVE",
"220 310 OFFCURVE",
"254 231 CURVE",
"281 239 OFFCURVE"
);
},
{
closed = 1;
nodes = (
"395 53 LINE",
"354 48 OFFCURVE",
"339 56 OFFCURVE",
"334 94 CURVE SMOOTH",
"328 130 OFFCURVE",
"323 187 OFFCURVE",
"350 296 CURVE",
"248 287 LINE",
"251 192 OFFCURVE",
"246 151 OFFCURVE",
"238 112 CURVE SMOOTH",
"229 72 OFFCURVE",
"210 42 OFFCURVE",
"155 53 CURVE",
"156 -1 LINE",
"407 0 LINE"
);
}
);
width = 558;
}
);
unicode = 0059;
},
{
glyphname = Z;
lastChange = "2018-09-12 15:08:21 +0000";
layers = (
{
layerId = "51BB9282-3B82-4DF1-A67A-294D3E37D73A";
paths = (
{
closed = 1;
nodes = (
"527 62 LINE SMOOTH",
"527 107 OFFCURVE",
"525 163 OFFCURVE",
"525 163 CURVE",
"462 157 LINE",
"459 128 OFFCURVE",
"451 90 OFFCURVE",
"437 61 CURVE",
"400 55 OFFCURVE",
"309 55 OFFCURVE",
"246 56 CURVE SMOOTH",
"199 57 OFFCURVE",
"136 59 OFFCURVE",
"112 82 CURVE",
"144 43 LINE",
"159 57 OFFCURVE",
"443 517 OFFCURVE",
"511 569 CURVE",
"505 616 LINE",
"447 613 OFFCURVE",
"318 614 OFFCURVE",
"254 614 CURVE SMOOTH",
"188 614 OFFCURVE",
"97 614 OFFCURVE",
"61 616 CURVE",
"62 554 LINE SMOOTH",
"62 508 OFFCURVE",
"65 452 OFFCURVE",
"65 452 CURVE",
"129 458 LINE",
"132 490 OFFCURVE",
"141 528 OFFCURVE",
"159 559 CURVE",
"203 562 OFFCURVE",
"288 564 OFFCURVE",
"344 564 CURVE SMOOTH",
"383 564 OFFCURVE",
"379 554 OFFCURVE",
"370 541 CURVE SMOOTH",
"293 417 OFFCURVE",
"95 106 OFFCURVE",
"22 55 CURVE",
"21 35 OFFCURVE",
"27 11 OFFCURVE",
"26 0 CURVE",
"527 0 LINE"
);
}
);
width = 563;
},
{
layerId = "8B9D8DF0-167E-4E5A-BF63-AC43D342B811";
paths = (
{
closed = 1;
nodes = (
"532 62 LINE SMOOTH",
"536 107 OFFCURVE",
"539 163 OFFCURVE",
"539 163 CURVE",
"476 157 LINE",
"470 128 OFFCURVE",
"459 90 OFFCURVE",
"442 61 CURVE",
"405 55 OFFCURVE",
"314 55 OFFCURVE",
"251 56 CURVE SMOOTH",
"204 57 OFFCURVE",
"141 59 OFFCURVE",
"119 82 CURVE",
"148 43 LINE",
"164 57 OFFCURVE",
"488 517 OFFCURVE",
"561 569 CURVE",
"559 616 LINE",
"501 613 OFFCURVE",
"372 614 OFFCURVE",
"308 614 CURVE SMOOTH",
"242 614 OFFCURVE",
"151 614 OFFCURVE",
"115 616 CURVE",
"110 554 LINE SMOOTH",
"106 508 OFFCURVE",
"105 452 OFFCURVE",
"105 452 CURVE",
"169 458 LINE",
"175 490 OFFCURVE",
"187 528 OFFCURVE",
"208 559 CURVE",
"252 562 OFFCURVE",
"337 564 OFFCURVE",
"393 564 CURVE SMOOTH",
"432 564 OFFCURVE",
"427 554 OFFCURVE",
"417 541 CURVE SMOOTH",
"329 417 OFFCURVE",
"104 106 OFFCURVE",
"27 55 CURVE",
"24 35 OFFCURVE",
"28 11 OFFCURVE",
"26 0 CURVE",
"527 0 LINE"
);
}
);
width = 563;
}
);
unicode = 005A;
},
{
glyphname = a;
lastChange = "2018-09-12 15:08:21 +0000";
layers = (
{
layerId = "51BB9282-3B82-4DF1-A67A-294D3E37D73A";
paths = (
{
closed = 1;
nodes = (
"91 -10 OFFCURVE",
"156 -10 CURVE SMOOTH",
"291 -10 OFFCURVE",
"333 92 OFFCURVE",
"333 92 CURVE",
"312 124 LINE",
"307 93 OFFCURVE",
"263 49 OFFCURVE",
"200 49 CURVE SMOOTH",
"156 49 OFFCURVE",
"129 75 OFFCURVE",
"129 119 CURVE SMOOTH",
"129 178 OFFCURVE",
"176 224 OFFCURVE",
"253 224 CURVE SMOOTH",
"298 224 OFFCURVE",
"332 210 OFFCURVE",
"332 210 CURVE",
"332 274 LINE",
"332 274 OFFCURVE",
"275 271 OFFCURVE",
"204 255 CURVE SMOOTH",
"85 228 OFFCURVE",
"31 174 OFFCURVE",
"31 96 CURVE SMOOTH",
"31 25 OFFCURVE"
);
},
{
closed = 1;
nodes = (
"61 400 OFFCURVE",
"61 378 CURVE SMOOTH",
"61 356 OFFCURVE",
"62 328 OFFCURVE",
"64 302 CURVE",
"132 309 LINE",
"136 359 OFFCURVE",
"149 394 OFFCURVE",
"166 429 CURVE",
"126 365 LINE",
"150 391 OFFCURVE",
"172 427 OFFCURVE",
"227 427 CURVE SMOOTH",
"259 427 OFFCURVE",
"293 410 OFFCURVE",
"307 352 CURVE SMOOTH",
"312 331 OFFCURVE",
"314 288 OFFCURVE",
"314 240 CURVE SMOOTH",
"314 186 OFFCURVE",
"311 125 OFFCURVE",
"306 88 CURVE",
"314 88 LINE",
"317 29 OFFCURVE",
"332 -8 OFFCURVE",
"390 -8 CURVE SMOOTH",
"424 -8 OFFCURVE",
"455 6 OFFCURVE",
"467 12 CURVE",
"458 42 LINE",
"448 42 LINE",
"393 42 OFFCURVE",
"393 100 OFFCURVE",
"393 162 CURVE SMOOTH",
"393 226 OFFCURVE",
"399 293 OFFCURVE",
"398 341 CURVE SMOOTH",
"396 440 OFFCURVE",
"358 470 OFFCURVE",
"259 470 CURVE SMOOTH",
"175 470 OFFCURVE",
"99 436 OFFCURVE",
"62 415 CURVE",
"62 415 OFFCURVE"
);
}
);
width = 479;
},
{
layerId = "8B9D8DF0-167E-4E5A-BF63-AC43D342B811";
paths = (
{
closed = 1;
nodes = (
"91 -10 OFFCURVE",
"156 -10 CURVE SMOOTH",
"291 -10 OFFCURVE",
"342 92 OFFCURVE",
"342 92 CURVE",
"324 124 LINE",
"316 93 OFFCURVE",
"268 49 OFFCURVE",
"205 49 CURVE SMOOTH",
"161 49 OFFCURVE",
"136 75 OFFCURVE",
"140 119 CURVE SMOOTH",
"145 178 OFFCURVE",
"196 224 OFFCURVE",
"273 224 CURVE SMOOTH",
"318 224 OFFCURVE",
"351 210 OFFCURVE",
"351 210 CURVE",
"357 274 LINE",
"357 274 OFFCURVE",
"300 271 OFFCURVE",
"227 255 CURVE SMOOTH",
"106 228 OFFCURVE",
"47 174 OFFCURVE",
"40 96 CURVE SMOOTH",
"34 25 OFFCURVE"
);
},
{
closed = 1;
nodes = (
"97 400 OFFCURVE",
"95 378 CURVE SMOOTH",
"93 356 OFFCURVE",
"92 328 OFFCURVE",
"91 302 CURVE",
"160 309 LINE",
"168 359 OFFCURVE",
"184 394 OFFCURVE",
"204 429 CURVE",
"159 365 LINE",
"185 391 OFFCURVE",
"210 427 OFFCURVE",
"265 427 CURVE SMOOTH",
"297 427 OFFCURVE",
"330 410 OFFCURVE",
"339 352 CURVE SMOOTH",
"342 331 OFFCURVE",
"340 288 OFFCURVE",
"336 240 CURVE SMOOTH",
"331 186 OFFCURVE",
"323 125 OFFCURVE",
"315 88 CURVE",
"323 88 LINE",
"320 29 OFFCURVE",
"332 -8 OFFCURVE",
"390 -8 CURVE SMOOTH",
"424 -8 OFFCURVE",
"456 6 OFFCURVE",
"469 12 CURVE",
"463 42 LINE",
"453 42 LINE",
"398 42 OFFCURVE",
"403 100 OFFCURVE",
"408 162 CURVE SMOOTH",
"414 226 OFFCURVE",
"426 293 OFFCURVE",
"429 341 CURVE SMOOTH",
"435 440 OFFCURVE",
"400 470 OFFCURVE",
"301 470 CURVE SMOOTH",
"217 470 OFFCURVE",
"138 436 OFFCURVE",
"99 415 CURVE",
"99 415 OFFCURVE"
);
}
);
width = 479;
}
);
unicode = 0061;
},
{
glyphname = ae;
lastChange = "2018-09-12 15:08:21 +0000";
layers = (
{
layerId = "51BB9282-3B82-4DF1-A67A-294D3E37D73A";
paths = (
{
closed = 1;
nodes = (
"91 -10 OFFCURVE",
"156 -10 CURVE SMOOTH",
"291 -10 OFFCURVE",
"333 92 OFFCURVE",
"333 92 CURVE",
"312 124 LINE",
"307 93 OFFCURVE",
"263 49 OFFCURVE",
"200 49 CURVE SMOOTH",
"156 49 OFFCURVE",
"129 75 OFFCURVE",
"129 119 CURVE SMOOTH",
"129 178 OFFCURVE",
"176 224 OFFCURVE",
"253 224 CURVE SMOOTH",
"298 224 OFFCURVE",
"332 210 OFFCURVE",
"332 210 CURVE",
"332 274 LINE",
"332 274 OFFCURVE",
"275 271 OFFCURVE",
"204 255 CURVE SMOOTH",
"85 228 OFFCURVE",
"31 174 OFFCURVE",
"31 96 CURVE SMOOTH",
"31 25 OFFCURVE"
);
},
{
closed = 1;
nodes = (
"61 400 OFFCURVE",
"61 378 CURVE SMOOTH",
"61 356 OFFCURVE",
"62 328 OFFCURVE",
"64 302 CURVE",
"132 309 LINE",
"136 359 OFFCURVE",
"149 394 OFFCURVE",
"166 429 CURVE",
"126 365 LINE",
"150 391 OFFCURVE",
"172 427 OFFCURVE",
"227 427 CURVE SMOOTH",
"259 427 OFFCURVE",
"293 410 OFFCURVE",
"307 352 CURVE SMOOTH",
"312 331 OFFCURVE",
"314 288 OFFCURVE",
"314 240 CURVE SMOOTH",
"314 186 OFFCURVE",
"311 125 OFFCURVE",
"306 88 CURVE",
"314 88 LINE",
"317 29 OFFCURVE",
"332 -8 OFFCURVE",
"390 -8 CURVE SMOOTH",
"424 -8 OFFCURVE",
"455 6 OFFCURVE",
"467 12 CURVE",
"458 42 LINE",
"448 42 LINE",
"393 42 OFFCURVE",
"393 100 OFFCURVE",
"393 162 CURVE SMOOTH",
"393 226 OFFCURVE",
"399 293 OFFCURVE",
"398 341 CURVE SMOOTH",
"396 440 OFFCURVE",
"358 470 OFFCURVE",
"259 470 CURVE SMOOTH",
"175 470 OFFCURVE",
"99 436 OFFCURVE",
"62 415 CURVE",
"62 415 OFFCURVE"
);
},
{
closed = 1;
nodes = (
"418 -16 OFFCURVE",
"541 -15 CURVE SMOOTH",
"638 -15 OFFCURVE",
"691 42 OFFCURVE",
"703 59 CURVE",
"688 85 LINE",
"686 85 OFFCURVE",
"639 40 OFFCURVE",
"564 41 CURVE SMOOTH",
"442 42 OFFCURVE",
"413 137 OFFCURVE",
"414 239 CURVE SMOOTH",
"416 350 OFFCURVE",
"465 422 OFFCURVE",
"531 422 CURVE SMOOTH",
"593 422 OFFCURVE",
"624 354 OFFCURVE",
"624 279 CURVE",
"575 278 LINE",
"392 260 LINE",
"404 223 LINE",
"719 225 LINE",
"736 383 OFFCURVE",
"654 464 OFFCURVE",
"544 463 CURVE SMOOTH",
"429 461 OFFCURVE",
"322 373 OFFCURVE",
"322 197 CURVE SMOOTH",
"322 58 OFFCURVE"
);
}
);
width = 948;
},
{
layerId = "8B9D8DF0-167E-4E5A-BF63-AC43D342B811";
paths = (
{
closed = 1;
nodes = (
"91 -10 OFFCURVE",
"156 -10 CURVE SMOOTH",
"291 -10 OFFCURVE",
"342 92 OFFCURVE",
"342 92 CURVE",
"324 124 LINE",
"316 93 OFFCURVE",
"269 49 OFFCURVE",
"206 49 CURVE SMOOTH",
"162 49 OFFCURVE",
"137 75 OFFCURVE",
"141 119 CURVE SMOOTH",
"146 178 OFFCURVE",
"197 224 OFFCURVE",
"274 224 CURVE SMOOTH",
"319 224 OFFCURVE",
"352 210 OFFCURVE",
"352 210 CURVE",
"357 274 LINE",
"357 274 OFFCURVE",
"300 271 OFFCURVE",
"228 255 CURVE SMOOTH",
"106 228 OFFCURVE",
"48 174 OFFCURVE",
"41 96 CURVE SMOOTH",
"35 25 OFFCURVE"
);
},
{
closed = 1;
nodes = (
"97 400 OFFCURVE",
"95 378 CURVE SMOOTH",
"93 356 OFFCURVE",
"92 328 OFFCURVE",
"92 302 CURVE",
"160 309 LINE",
"169 359 OFFCURVE",
"185 394 OFFCURVE",
"205 429 CURVE",
"159 365 LINE",
"186 391 OFFCURVE",
"211 427 OFFCURVE",
"266 427 CURVE SMOOTH",
"298 427 OFFCURVE",
"330 410 OFFCURVE",
"339 352 CURVE SMOOTH",
"342 331 OFFCURVE",
"341 288 OFFCURVE",
"336 240 CURVE SMOOTH",
"332 186 OFFCURVE",
"323 125 OFFCURVE",
"315 88 CURVE",
"323 88 LINE",
"321 29 OFFCURVE",
"333 -8 OFFCURVE",
"391 -8 CURVE SMOOTH",
"425 -8 OFFCURVE",
"457 6 OFFCURVE",
"469 12 CURVE",
"463 42 LINE",
"453 42 LINE",
"398 42 OFFCURVE",
"403 100 OFFCURVE",
"408 162 CURVE SMOOTH",
"414 226 OFFCURVE",
"426 293 OFFCURVE",
"429 341 CURVE SMOOTH",
"436 440 OFFCURVE",
"400 470 OFFCURVE",
"301 470 CURVE SMOOTH",
"217 470 OFFCURVE",
"138 436 OFFCURVE",
"100 415 CURVE",
"100 415 OFFCURVE"
);
},
{
closed = 1;
nodes = (
"418 -16 OFFCURVE",
"541 -15 CURVE SMOOTH",
"638 -15 OFFCURVE",
"696 42 OFFCURVE",
"709 59 CURVE",
"697 85 LINE",
"695 85 OFFCURVE",
"644 40 OFFCURVE",
"569 41 CURVE SMOOTH",
"447 42 OFFCURVE",
"426 137 OFFCURVE",
"436 239 CURVE SMOOTH",
"448 350 OFFCURVE",
"503 422 OFFCURVE",
"569 422 CURVE SMOOTH",
"631 422 OFFCURVE",
"656 354 OFFCURVE",
"650 279 CURVE",
"601 278 LINE",
"416 260 LINE",
"425 223 LINE",
"740 225 LINE",
"771 383 OFFCURVE",
"696 464 OFFCURVE",
"586 463 CURVE SMOOTH",
"471 461 OFFCURVE",
"356 373 OFFCURVE",
"341 197 CURVE SMOOTH",
"328 58 OFFCURVE"
);
}
);
width = 948;
}
);
unicode = 00E6;
},
{
glyphname = b;
lastChange = "2018-09-12 15:08:21 +0000";
layers = (
{
layerId = "51BB9282-3B82-4DF1-A67A-294D3E37D73A";
paths = (
{
closed = 1;
nodes = (
"487 139 OFFCURVE",
"491 265 CURVE SMOOTH",
"495 403 OFFCURVE",
"417 472 OFFCURVE",
"321 472 CURVE SMOOTH",
"256 472 OFFCURVE",
"178 431 OFFCURVE",
"141 344 CURVE",
"164 311 LINE",
"192 376 OFFCURVE",
"243 410 OFFCURVE",
"286 411 CURVE SMOOTH",
"337 412 OFFCURVE",
"396 372 OFFCURVE",
"395 266 CURVE SMOOTH",
"394 126 OFFCURVE",
"341 37 OFFCURVE",
"256 39 CURVE SMOOTH",
"173 39 OFFCURVE",
"130 109 OFFCURVE",
"130 109 CURVE",
"79 17 LINE",
"112 4 OFFCURVE",
"166 -10 OFFCURVE",
"242 -9 CURVE SMOOTH",
"419 -8 OFFCURVE"
);
},
{
closed = 1;
nodes = (
"174 62 OFFCURVE",
"171 92 OFFCURVE",
"169 125 CURVE SMOOTH",
"166 169 OFFCURVE",
"158 525 OFFCURVE",
"182 655 CURVE",
"182 655 OFFCURVE",
"51 638 OFFCURVE",
"-13 639 CURVE",
"-9 590 LINE",
"46 591 OFFCURVE",
"76 581 OFFCURVE",
"81 544 CURVE SMOOTH",
"95 440 OFFCURVE",
"89 98 OFFCURVE",
"79 17 CURVE",
"176 51 LINE"
);
}
);
width = 530;
},
{
layerId = "8B9D8DF0-167E-4E5A-BF63-AC43D342B811";
paths = (
{
closed = 1;
nodes = (
"500 139 OFFCURVE",
"515 265 CURVE SMOOTH",
"531 403 OFFCURVE",
"459 472 OFFCURVE",
"363 472 CURVE SMOOTH",
"298 472 OFFCURVE",
"216 431 OFFCURVE",
"172 344 CURVE",
"192 311 LINE",
"226 376 OFFCURVE",
"280 410 OFFCURVE",
"323 411 CURVE SMOOTH",
"374 412 OFFCURVE",
"429 372 OFFCURVE",
"419 266 CURVE SMOOTH",
"406 126 OFFCURVE",
"345 37 OFFCURVE",
"260 39 CURVE SMOOTH",
"177 39 OFFCURVE",
"140 109 OFFCURVE",
"140 109 CURVE",
"81 17 LINE",
"113 4 OFFCURVE",
"166 -10 OFFCURVE",
"242 -9 CURVE SMOOTH",
"419 -8 OFFCURVE"
);
},
{
closed = 1;
nodes = (
"180 62 OFFCURVE",
"180 92 OFFCURVE",
"181 125 CURVE SMOOTH",
"182 169 OFFCURVE",
"205 525 OFFCURVE",
"240 655 CURVE",
"240 655 OFFCURVE",
"108 638 OFFCURVE",
"44 639 CURVE",
"43 590 LINE",
"98 591 OFFCURVE",
"128 581 OFFCURVE",
"129 544 CURVE SMOOTH",
"134 440 OFFCURVE",
"98 98 OFFCURVE",
"81 17 CURVE",
"181 51 LINE"
);
}
);
width = 530;
}
);
unicode = 0062;
},
{
glyphname = c;
lastChange = "2018-09-12 15:08:21 +0000";
layers = (
{
layerId = "51BB9282-3B82-4DF1-A67A-294D3E37D73A";
paths = (
{
closed = 1;
nodes = (
"115 470 OFFCURVE",
"294 470 CURVE SMOOTH",
"364 470 OFFCURVE",
"408 447 OFFCURVE",
"408 447 CURVE",
"409 437 OFFCURVE",
"409 424 OFFCURVE",
"409 410 CURVE SMOOTH",
"409 383 OFFCURVE",
"408 352 OFFCURVE",
"404 330 CURVE",
"358 334 LINE",
"342 367 OFFCURVE",
"327 397 OFFCURVE",
"290 424 CURVE",
"316 417 OFFCURVE",
"333 402 OFFCURVE",
"344 383 CURVE",
"327 397 OFFCURVE",
"293 418 OFFCURVE",
"253 418 CURVE SMOOTH",
"175 418 OFFCURVE",
"128 333 OFFCURVE",
"128 216 CURVE SMOOTH",
"128 108 OFFCURVE",
"185 41 OFFCURVE",
"280 41 CURVE SMOOTH",
"331 41 OFFCURVE",
"374 62 OFFCURVE",
"403 86 CURVE",
"420 59 LINE",
"377 11 OFFCURVE",
"319 -16 OFFCURVE",
"246 -16 CURVE SMOOTH",
"132 -16 OFFCURVE",
"34 40 OFFCURVE",
"34 198 CURVE SMOOTH",
"34 320 OFFCURVE"
);
}
);
width = 447;
},
{
layerId = "8B9D8DF0-167E-4E5A-BF63-AC43D342B811";
paths = (
{
closed = 1;
nodes = (
"158 470 OFFCURVE",
"337 470 CURVE SMOOTH",
"407 470 OFFCURVE",
"449 447 OFFCURVE",
"449 447 CURVE",
"449 437 OFFCURVE",
"447 424 OFFCURVE",
"446 410 CURVE SMOOTH",
"444 383 OFFCURVE",
"440 352 OFFCURVE",
"434 330 CURVE",
"389 334 LINE",
"376 367 OFFCURVE",
"363 397 OFFCURVE",
"328 424 CURVE",
"354 417 OFFCURVE",
"370 402 OFFCURVE",
"379 383 CURVE",
"363 397 OFFCURVE",
"331 418 OFFCURVE",
"291 418 CURVE SMOOTH",
"213 418 OFFCURVE",
"159 333 OFFCURVE",
"148 216 CURVE SMOOTH",
"139 108 OFFCURVE",
"190 41 OFFCURVE",
"285 41 CURVE SMOOTH",
"336 41 OFFCURVE",
"381 62 OFFCURVE",
"412 86 CURVE",
"427 59 LINE",
"379 11 OFFCURVE",
"319 -16 OFFCURVE",
"246 -16 CURVE SMOOTH",
"132 -16 OFFCURVE",
"39 40 OFFCURVE",
"53 198 CURVE SMOOTH",
"63 320 OFFCURVE"
);
}
);
width = 447;
}
);
leftMetricsKey = "=o";
unicode = 0063;
},
{
glyphname = d;
lastChange = "2018-09-12 15:08:21 +0000";
layers = (
{
layerId = "51BB9282-3B82-4DF1-A67A-294D3E37D73A";
paths = (
{
closed = 1;
nodes = (
"524 -6 OFFCURVE",
"551 10 CURVE",
"541 44 LINE",
"534 42 OFFCURVE",
"527 42 OFFCURVE",
"521 42 CURVE SMOOTH",
"476 42 OFFCURVE",
"459 69 OFFCURVE",
"455 125 CURVE SMOOTH",
"454 144 OFFCURVE",
"451 224 OFFCURVE",
"451 318 CURVE SMOOTH",
"451 438 OFFCURVE",
"455 582 OFFCURVE",
"469 655 CURVE",
"469 655 OFFCURVE",
"349 639 OFFCURVE",
"282 639 CURVE SMOOTH",
"273 639 LINE",
"277 590 LINE",
"283 590 LINE SMOOTH",
"335 590 OFFCURVE",
"366 579 OFFCURVE",
"367 544 CURVE SMOOTH",
"370 492 OFFCURVE",
"373 390 OFFCURVE",
"373 296 CURVE SMOOTH",
"373 219 OFFCURVE",
"370 146 OFFCURVE",
"366 109 CURVE",
"373 76 LINE",
"373 34 OFFCURVE",
"391 -16 OFFCURVE",
"460 -16 CURVE SMOOTH",
"493 -16 OFFCURVE"
);
},
{
closed = 1;
nodes = (
"369 51 OFFCURVE",
"393 108 CURVE",
"370 139 LINE",
"354 100 OFFCURVE",
"313 52 OFFCURVE",
"260 52 CURVE SMOOTH",
"176 52 OFFCURVE",
"139 120 OFFCURVE",
"139 207 CURVE SMOOTH",
"139 328 OFFCURVE",
"197 420 OFFCURVE",
"288 420 CURVE SMOOTH",
"344 420 OFFCURVE",
"383 385 OFFCURVE",
"383 385 CURVE",
"414 453 LINE",
"395 460 OFFCURVE",
"362 467 OFFCURVE",
"325 467 CURVE SMOOTH",
"132 467 OFFCURVE",
"43 314 OFFCURVE",
"43 191 CURVE SMOOTH",
"43 73 OFFCURVE",
"116 -10 OFFCURVE",
"226 -10 CURVE SMOOTH",
"320 -10 OFFCURVE"
);
}
);
width = 574;
},
{
layerId = "8B9D8DF0-167E-4E5A-BF63-AC43D342B811";
paths = (
{
closed = 1;
nodes = (
"525 -6 OFFCURVE",
"553 10 CURVE",
"546 44 LINE",
"539 42 OFFCURVE",
"532 42 OFFCURVE",
"526 42 CURVE SMOOTH",
"481 42 OFFCURVE",
"466 69 OFFCURVE",
"467 125 CURVE SMOOTH",
"468 144 OFFCURVE",
"472 224 OFFCURVE",
"480 318 CURVE SMOOTH",
"491 438 OFFCURVE",
"507 582 OFFCURVE",
"528 655 CURVE",
"528 655 OFFCURVE",
"406 639 OFFCURVE",
"339 639 CURVE SMOOTH",
"330 639 LINE",
"330 590 LINE",
"336 590 LINE SMOOTH",
"388 590 OFFCURVE",
"418 579 OFFCURVE",
"416 544 CURVE SMOOTH",
"414 492 OFFCURVE",
"409 390 OFFCURVE",
"400 296 CURVE SMOOTH",
"394 219 OFFCURVE",
"384 146 OFFCURVE",
"377 109 CURVE",
"381 76 LINE",
"377 34 OFFCURVE",
"391 -16 OFFCURVE",
"460 -16 CURVE SMOOTH",
"493 -16 OFFCURVE"
);
},
{
closed = 1;
nodes = (
"375 51 OFFCURVE",
"404 108 CURVE",
"384 139 LINE",
"364 100 OFFCURVE",
"319 52 OFFCURVE",
"266 52 CURVE SMOOTH",
"182 52 OFFCURVE",
"151 120 OFFCURVE",
"159 207 CURVE SMOOTH",
"169 328 OFFCURVE",
"235 420 OFFCURVE",
"326 420 CURVE SMOOTH",
"382 420 OFFCURVE",
"418 385 OFFCURVE",
"418 385 CURVE",
"455 453 LINE",
"437 460 OFFCURVE",
"404 467 OFFCURVE",
"367 467 CURVE SMOOTH",
"174 467 OFFCURVE",
"72 314 OFFCURVE",
"61 191 CURVE SMOOTH",
"51 73 OFFCURVE",
"117 -10 OFFCURVE",
"227 -10 CURVE SMOOTH",
"321 -10 OFFCURVE"
);
}
);
width = 574;
}
);
unicode = 0064;
userData = {
com.typemytype.robofont.layerData = {
"Jan 30 17, 19:39" = {
anchors = (
);
components = (
);
contours = (
{
points = (
{
smooth = 0;
x = 640;
y = -21;
},
{
smooth = 0;
x = 681;
y = -8;
},
{
segmentType = curve;
smooth = 0;
x = 716;
y = 13;
},
{
segmentType = line;
smooth = 0;
x = 703;
y = 57;
},
{
smooth = 0;
x = 693;
y = 55;
},
{
smooth = 0;
x = 684;
y = 55;
},
{
segmentType = curve;
smooth = 1;
x = 676;
y = 55;
},
{
smooth = 0;
x = 618;
y = 55;
},
{
smooth = 0;
x = 596;
y = 90;
},
{
segmentType = curve;
smooth = 1;
x = 591;
y = 162;
},
{
smooth = 0;
x = 589;
y = 187;
},
{
smooth = 0;
x = 586;
y = 291;
},
{
segmentType = curve;
smooth = 1;
x = 586;
y = 413;
},
{
smooth = 0;
x = 586;
y = 569;
},
{
smooth = 0;
x = 591;
y = 756;
},
{
segmentType = curve;
smooth = 0;
x = 609;
y = 850;
},
{
smooth = 0;
x = 609;
y = 850;
},
{
smooth = 0;
x = 453;
y = 830;
},
{
segmentType = curve;
smooth = 1;
x = 366;
y = 830;
},
{
segmentType = line;
smooth = 0;
x = 355;
y = 830;
},
{
segmentType = line;
smooth = 0;
x = 360;
y = 766;
},
{
segmentType = line;
smooth = 1;
x = 367;
y = 766;
},
{
smooth = 0;
x = 435;
y = 766;
},
{
smooth = 0;
x = 475;
y = 752;
},
{
segmentType = curve;
smooth = 1;
x = 477;
y = 707;
},
{
smooth = 0;
x = 480;
y = 639;
},
{
smooth = 0;
x = 484;
y = 507;
},
{
segmentType = curve;
smooth = 1;
x = 484;
y = 385;
},
{
smooth = 0;
x = 484;
y = 284;
},
{
smooth = 0;
x = 481;
y = 189;
},
{
segmentType = curve;
smooth = 0;
x = 475;
y = 142;
},
{
segmentType = line;
smooth = 0;
x = 484;
y = 99;
},
{
smooth = 0;
x = 484;
y = 44;
},
{
smooth = 0;
x = 508;
y = -21;
},
{
segmentType = curve;
smooth = 1;
x = 598;
y = -21;
}
);
},
{
points = (
{
smooth = 0;
x = 403;
y = -13;
},
{
smooth = 0;
x = 479;
y = 66;
},
{
segmentType = curve;
smooth = 0;
x = 511;
y = 140;
},
{
segmentType = line;
smooth = 0;
x = 480;
y = 181;
},
{
smooth = 0;
x = 460;
y = 130;
},
{
smooth = 0;
x = 407;
y = 67;
},
{
segmentType = curve;
smooth = 1;
x = 328;
y = 67;
},
{
smooth = 0;
x = 228;
y = 67;
},
{
smooth = 0;
x = 180;
y = 156;
},
{
segmentType = curve;
smooth = 1;
x = 180;
y = 261;
},
{
smooth = 0;
x = 180;
y = 426;
},
{
smooth = 0;
x = 256;
y = 545;
},
{
segmentType = curve;
smooth = 1;
x = 374;
y = 545;
},
{
smooth = 0;
x = 447;
y = 545;
},
{
smooth = 0;
x = 498;
y = 500;
},
{
segmentType = curve;
smooth = 0;
x = 498;
y = 500;
},
{
segmentType = line;
smooth = 0;
x = 538;
y = 588;
},
{
smooth = 0;
x = 513;
y = 597;
},
{
smooth = 0;
x = 470;
y = 606;
},
{
segmentType = curve;
smooth = 1;
x = 422;
y = 606;
},
{
smooth = 0;
x = 171;
y = 606;
},
{
smooth = 0;
x = 56;
y = 408;
},
{
segmentType = curve;
smooth = 1;
x = 56;
y = 248;
},
{
smooth = 0;
x = 56;
y = 95;
},
{
smooth = 0;
x = 164;
y = -13;
},
{
segmentType = curve;
smooth = 1;
x = 307;
y = -13;
}
);
}
);
lib = {
};
name = d;
unicodes = (
);
width = 745;
};
};
};
},
{
color = 0;
glyphname = eth;
lastChange = "2018-09-12 15:08:21 +0000";
layers = (
{
layerId = "51BB9282-3B82-4DF1-A67A-294D3E37D73A";
paths = (
{
closed = 1;
nodes = (
"451 87 OFFCURVE",
"451 269 CURVE SMOOTH",
"451 460 OFFCURVE",
"308 628 OFFCURVE",
"164 684 CURVE",
"152 678 OFFCURVE",
"144 658 OFFCURVE",
"144 644 CURVE",
"290 554 OFFCURVE",
"364 461 OFFCURVE",
"364 277 CURVE SMOOTH",
"364 185 OFFCURVE",
"359 51 OFFCURVE",
"246 51 CURVE SMOOTH",
"149 51 OFFCURVE",
"119 132 OFFCURVE",
"119 217 CURVE SMOOTH",
"119 311 OFFCURVE",
"179 378 OFFCURVE",
"257 378 CURVE SMOOTH",
"314 378 OFFCURVE",
"351 364 OFFCURVE",
"374 341 CURVE",
"369 400 LINE",
"351 407 OFFCURVE",
"316 420 OFFCURVE",
"270 420 CURVE SMOOTH",
"105 420 OFFCURVE",
"33 302 OFFCURVE",
"34 188 CURVE SMOOTH",
"35 84 OFFCURVE",
"102 -2 OFFCURVE",
"236 -2 CURVE SMOOTH",
"362 -2 OFFCURVE"
);
},
{
closed = 1;
nodes = (
"280 543 OFFCURVE",
"363 580 OFFCURVE",
"422 603 CURVE",
"400 651 LINE",
"336 619 OFFCURVE",
"247 577 OFFCURVE",
"152 535 CURVE",
"172 489 LINE"
);
}
);
width = 486;
},
{
layerId = "8B9D8DF0-167E-4E5A-BF63-AC43D342B811";
paths = (
{
closed = 1;
nodes = (
"459 87 OFFCURVE",
"475 269 CURVE SMOOTH",
"491 460 OFFCURVE",
"363 628 OFFCURVE",
"224 684 CURVE",
"211 678 OFFCURVE",
"202 658 OFFCURVE",
"201 644 CURVE",
"339 554 OFFCURVE",
"405 461 OFFCURVE",
"388 277 CURVE SMOOTH",
"380 185 OFFCURVE",
"364 51 OFFCURVE",
"251 51 CURVE SMOOTH",
"154 51 OFFCURVE",
"131 132 OFFCURVE",
"138 217 CURVE SMOOTH",
"146 311 OFFCURVE",
"212 378 OFFCURVE",
"290 378 CURVE SMOOTH",
"347 378 OFFCURVE",
"383 364 OFFCURVE",
"404 341 CURVE",
"404 400 LINE",
"387 407 OFFCURVE",
"353 420 OFFCURVE",
"307 420 CURVE SMOOTH",
"142 420 OFFCURVE",
"60 302 OFFCURVE",
"51 188 CURVE SMOOTH",
"43 84 OFFCURVE",
"102 -2 OFFCURVE",
"236 -2 CURVE SMOOTH",
"362 -2 OFFCURVE"
);
},
{
closed = 1;
nodes = (
"328 543 OFFCURVE",
"414 580 OFFCURVE",
"475 603 CURVE",
"457 651 LINE",
"390 619 OFFCURVE",
"298 577 OFFCURVE",
"199 535 CURVE",
"215 489 LINE"
);
}
);
width = 486;
}
);
leftMetricsKey = "=o";
rightMetricsKey = "=o";
unicode = 00F0;
},
{
glyphname = e;
lastChange = "2018-09-12 15:08:21 +0000";
layers = (
{
layerId = "51BB9282-3B82-4DF1-A67A-294D3E37D73A";
paths = (
{
closed = 1;
nodes = (
"132 -16 OFFCURVE",
"254 -15 CURVE SMOOTH",
"352 -15 OFFCURVE",
"404 42 OFFCURVE",
"417 59 CURVE",
"401 85 LINE",
"400 85 OFFCURVE",
"353 40 OFFCURVE",
"277 41 CURVE SMOOTH",
"156 42 OFFCURVE",
"126 137 OFFCURVE",
"128 239 CURVE SMOOTH",
"129 350 OFFCURVE",
"179 422 OFFCURVE",
"244 422 CURVE SMOOTH",
"306 423 OFFCURVE",
"338 354 OFFCURVE",
"338 279 CURVE",
"289 278 LINE",
"105 260 LINE",
"118 223 LINE",
"433 225 LINE",
"450 383 OFFCURVE",
"367 464 OFFCURVE",
"258 463 CURVE SMOOTH",
"142 461 OFFCURVE",
"35 373 OFFCURVE",
"35 197 CURVE SMOOTH",
"35 58 OFFCURVE"
);
}
);
width = 470;
},
{
layerId = "8B9D8DF0-167E-4E5A-BF63-AC43D342B811";
paths = (
{
closed = 1;
nodes = (
"132 -16 OFFCURVE",
"254 -15 CURVE SMOOTH",
"352 -15 OFFCURVE",
"409 42 OFFCURVE",
"423 59 CURVE",
"410 85 LINE",
"409 85 OFFCURVE",
"358 40 OFFCURVE",
"282 41 CURVE SMOOTH",
"161 42 OFFCURVE",
"139 137 OFFCURVE",
"150 239 CURVE SMOOTH",
"161 350 OFFCURVE",
"217 422 OFFCURVE",
"282 422 CURVE SMOOTH",
"344 423 OFFCURVE",
"370 354 OFFCURVE",
"364 279 CURVE",
"315 278 LINE",
"129 260 LINE",
"139 223 LINE",
"454 225 LINE",
"485 383 OFFCURVE",
"409 464 OFFCURVE",
"300 463 CURVE SMOOTH",
"184 461 OFFCURVE",
"69 373 OFFCURVE",
"54 197 CURVE SMOOTH",
"41 58 OFFCURVE"
);
}
);
width = 470;
}
);
unicode = 0065;
},
{
glyphname = schwa;
lastChange = "2018-09-12 15:08:21 +0000";
layers = (
{
layerId = "51BB9282-3B82-4DF1-A67A-294D3E37D73A";
paths = (
{
closed = 1;
nodes = (
"357 464 OFFCURVE",
"234 463 CURVE SMOOTH",
"136 462 OFFCURVE",
"84 405 OFFCURVE",
"72 389 CURVE",
"87 362 LINE",
"89 362 OFFCURVE",
"136 407 OFFCURVE",
"211 407 CURVE SMOOTH",
"333 405 OFFCURVE",
"362 310 OFFCURVE",
"360 208 CURVE SMOOTH",
"359 97 OFFCURVE",
"310 25 OFFCURVE",
"244 25 CURVE SMOOTH",
"182 25 OFFCURVE",
"143 93 OFFCURVE",
"143 169 CURVE",
"199 169 LINE",
"383 187 LINE",
"370 224 LINE",
"55 223 LINE",
"39 64 OFFCURVE",
"121 -17 OFFCURVE",
"230 -15 CURVE SMOOTH",
"346 -14 OFFCURVE",
"453 75 OFFCURVE",
"453 250 CURVE SMOOTH",
"453 390 OFFCURVE"
);
}
);
width = 470;
},
{
layerId = "8B9D8DF0-167E-4E5A-BF63-AC43D342B811";
paths = (
{
closed = 1;
nodes = (
"399 464 OFFCURVE",
"276 463 CURVE SMOOTH",
"178 462 OFFCURVE",
"121 405 OFFCURVE",
"107 389 CURVE",
"120 362 LINE",
"122 362 OFFCURVE",
"173 407 OFFCURVE",
"248 407 CURVE SMOOTH",
"370 405 OFFCURVE",
"390 310 OFFCURVE",
"380 208 CURVE SMOOTH",
"369 97 OFFCURVE",
"314 25 OFFCURVE",
"248 25 CURVE SMOOTH",
"186 25 OFFCURVE",
"152 93 OFFCURVE",
"159 169 CURVE",
"215 169 LINE",
"401 187 LINE",
"391 224 LINE",
"76 223 LINE",
"46 64 OFFCURVE",
"121 -17 OFFCURVE",
"230 -15 CURVE SMOOTH",
"346 -14 OFFCURVE",
"461 75 OFFCURVE",
"476 250 CURVE SMOOTH",
"488 390 OFFCURVE"
);
}
);
width = 470;
}
);
unicode = 0259;
},
{
glyphname = f;
lastChange = "2018-09-12 15:08:21 +0000";
layers = (
{
layerId = "51BB9282-3B82-4DF1-A67A-294D3E37D73A";
paths = (
{
closed = 1;
nodes = (
"268 42 LINE",
"217 40 OFFCURVE",
"189 69 OFFCURVE",
"184 140 CURVE SMOOTH",
"178 249 OFFCURVE",
"181 400 OFFCURVE",
"182 517 CURVE SMOOTH",
"184 617 OFFCURVE",
"205 649 OFFCURVE",
"239 653 CURVE SMOOTH",
"296 659 OFFCURVE",
"340 601 OFFCURVE",
"372 553 CURVE",
"388 584 OFFCURVE",
"405 640 OFFCURVE",
"405 682 CURVE",
"405 682 OFFCURVE",
"357 699 OFFCURVE",
"306 699 CURVE SMOOTH",
"216 700 OFFCURVE",
"105 655 OFFCURVE",
"103 480 CURVE SMOOTH",
"103 464 OFFCURVE",
"102 450 OFFCURVE",
"102 436 CURVE",
"103 424 OFFCURVE",
"101 412 OFFCURVE",
"101 400 CURVE SMOOTH",
"103 314 OFFCURVE",
"105 242 OFFCURVE",
"105 169 CURVE SMOOTH",
"105 87 OFFCURVE",
"109 42 OFFCURVE",
"19 47 CURVE",
"25 0 LINE",
"276 0 LINE"
);
},
{
closed = 1;
nodes = (
"306 402 LINE",
"296 453 LINE",
"195 449 OFFCURVE",
"132 449 OFFCURVE",
"23 453 CURVE",
"31 400 LINE",
"68 400 OFFCURVE",
"125 390 OFFCURVE",
"126 339 CURVE",
"158 388 LINE"
);
}
);
width = 376;
},
{
layerId = "8B9D8DF0-167E-4E5A-BF63-AC43D342B811";
paths = (
{
closed = 1;
nodes = (
"272 42 LINE",
"220 40 OFFCURVE",
"195 69 OFFCURVE",
"196 140 CURVE SMOOTH",
"200 249 OFFCURVE",
"216 400 OFFCURVE",
"227 517 CURVE SMOOTH",
"238 617 OFFCURVE",
"262 649 OFFCURVE",
"296 653 CURVE SMOOTH",
"354 659 OFFCURVE",
"393 601 OFFCURVE",
"420 553 CURVE",
"439 584 OFFCURVE",
"461 640 OFFCURVE",
"465 682 CURVE",
"465 682 OFFCURVE",
"418 699 OFFCURVE",
"367 699 CURVE SMOOTH",
"277 700 OFFCURVE",
"162 655 OFFCURVE",
"145 480 CURVE SMOOTH",
"144 464 OFFCURVE",
"141 450 OFFCURVE",
"140 436 CURVE",
"140 424 OFFCURVE",
"137 412 OFFCURVE",
"136 400 CURVE SMOOTH",
"130 314 OFFCURVE",
"126 242 OFFCURVE",
"120 169 CURVE SMOOTH",
"113 87 OFFCURVE",
"113 42 OFFCURVE",
"23 47 CURVE",
"25 0 LINE",
"276 0 LINE"
);
},
{
closed = 1;
nodes = (
"341 402 LINE",
"336 453 LINE",
"234 449 OFFCURVE",
"171 449 OFFCURVE",
"63 453 CURVE",
"66 400 LINE",
"103 400 OFFCURVE",
"159 390 OFFCURVE",
"156 339 CURVE",
"192 388 LINE"
);
}
);
width = 376;
}
);
unicode = 0066;
},
{
glyphname = g;
lastChange = "2018-09-12 15:08:21 +0000";
layers = (
{
layerId = "51BB9282-3B82-4DF1-A67A-294D3E37D73A";
paths = (
{
closed = 1;
nodes = (
"523 -121 OFFCURVE",
"524 -18 CURVE SMOOTH",
"525 91 OFFCURVE",
"389 100 OFFCURVE",
"206 100 CURVE SMOOTH",
"159 100 OFFCURVE",
"169 143 OFFCURVE",
"210 176 CURVE",
"199 199 LINE",
"147 169 OFFCURVE",
"98 134 OFFCURVE",
"65 95 CURVE",
"72 53 OFFCURVE",
"94 46 OFFCURVE",
"149 44 CURVE SMOOTH",
"271 38 OFFCURVE",
"427 44 OFFCURVE",
"427 -44 CURVE SMOOTH",
"428 -92 OFFCURVE",
"371 -159 OFFCURVE",
"262 -159 CURVE SMOOTH",
"175 -159 OFFCURVE",
"129 -132 OFFCURVE",
"129 -82 CURVE",
"129 -16 OFFCURVE",
"214 34 OFFCURVE",
"282 49 CURVE",
"205 54 LINE",
"124 23 OFFCURVE",
"38 -22 OFFCURVE",
"39 -103 CURVE SMOOTH",
"39 -166 OFFCURVE",
"112 -206 OFFCURVE",
"233 -206 CURVE SMOOTH",
"404 -206 OFFCURVE"
);
},
{
closed = 1;
nodes = (
"445 236 OFFCURVE",
"445 348 CURVE SMOOTH",
"445 439 OFFCURVE",
"343 470 OFFCURVE",
"270 470 CURVE SMOOTH",
"161 470 OFFCURVE",
"56 404 OFFCURVE",
"57 296 CURVE SMOOTH",
"58 222 OFFCURVE",
"126 176 OFFCURVE",
"237 176 CURVE SMOOTH",
"342 176 OFFCURVE"
);
},
{
closed = 1;
nodes = (
"150 244 OFFCURVE",
"150 315 CURVE SMOOTH",
"150 383 OFFCURVE",
"206 429 OFFCURVE",
"258 429 CURVE SMOOTH",
"320 429 OFFCURVE",
"350 379 OFFCURVE",
"350 330 CURVE SMOOTH",
"350 270 OFFCURVE",
"314 219 OFFCURVE",
"248 218 CURVE SMOOTH",
"199 217 OFFCURVE"
);
},
{
closed = 1;
nodes = (
"571 439 OFFCURVE",
"567 467 CURVE",
"488 421 OFFCURVE",
"427 399 OFFCURVE",
"403 397 CURVE",
"436 365 LINE",
"475 365 OFFCURVE",
"526 365 OFFCURVE",
"569 363 CURVE",
"572 387 OFFCURVE"
);
}
);
width = 592;
},
{
layerId = "8B9D8DF0-167E-4E5A-BF63-AC43D342B811";
paths = (
{
closed = 1;
nodes = (
"530 -121 OFFCURVE",
"540 -18 CURVE SMOOTH",
"551 91 OFFCURVE",
"416 100 OFFCURVE",
"233 100 CURVE SMOOTH",
"186 100 OFFCURVE",
"200 143 OFFCURVE",
"243 176 CURVE",
"234 199 LINE",
"180 169 OFFCURVE",
"128 134 OFFCURVE",
"91 95 CURVE",
"95 53 OFFCURVE",
"116 46 OFFCURVE",
"171 44 CURVE SMOOTH",
"292 38 OFFCURVE",
"449 44 OFFCURVE",
"441 -44 CURVE SMOOTH",
"438 -92 OFFCURVE",
"375 -159 OFFCURVE",
"266 -159 CURVE SMOOTH",
"179 -159 OFFCURVE",
"135 -132 OFFCURVE",
"140 -82 CURVE",
"146 -16 OFFCURVE",
"235 34 OFFCURVE",
"304 49 CURVE",
"228 54 LINE",
"144 23 OFFCURVE",
"54 -22 OFFCURVE",
"48 -103 CURVE SMOOTH",
"42 -166 OFFCURVE",
"112 -206 OFFCURVE",
"233 -206 CURVE SMOOTH",
"404 -206 OFFCURVE"
);
},
{
closed = 1;
nodes = (
"484 236 OFFCURVE",
"493 348 CURVE SMOOTH",
"501 439 OFFCURVE",
"402 470 OFFCURVE",
"329 470 CURVE SMOOTH",
"220 470 OFFCURVE",
"109 404 OFFCURVE",
"101 296 CURVE SMOOTH",
"95 222 OFFCURVE",
"159 176 OFFCURVE",
"270 176 CURVE SMOOTH",
"375 176 OFFCURVE"
);
},
{
closed = 1;
nodes = (
"189 244 OFFCURVE",
"196 315 CURVE SMOOTH",
"202 383 OFFCURVE",
"262 429 OFFCURVE",
"314 429 CURVE SMOOTH",
"376 429 OFFCURVE",
"401 379 OFFCURVE",
"397 330 CURVE SMOOTH",
"392 270 OFFCURVE",
"351 219 OFFCURVE",
"285 218 CURVE SMOOTH",
"236 217 OFFCURVE"
);
},
{
closed = 1;
nodes = (
"627 439 OFFCURVE",
"626 467 CURVE",
"543 421 OFFCURVE",
"480 399 OFFCURVE",
"456 397 CURVE",
"486 365 LINE",
"525 365 OFFCURVE",
"576 365 OFFCURVE",
"619 363 CURVE",
"624 387 OFFCURVE"
);
}
);
width = 592;
}
);
unicode = 0067;
},
{
glyphname = h;
lastChange = "2018-09-12 15:08:21 +0000";
layers = (
{
layerId = "51BB9282-3B82-4DF1-A67A-294D3E37D73A";
paths = (
{
closed = 1;
nodes = (
"564 39 LINE",
"540 39 OFFCURVE",
"496 43 OFFCURVE",
"495 101 CURVE",
"497 162 OFFCURVE",
"500 232 OFFCURVE",
"500 287 CURVE SMOOTH",
"500 322 OFFCURVE",
"499 353 OFFCURVE",
"497 370 CURVE SMOOTH",
"486 443 OFFCURVE",
"441 471 OFFCURVE",
"383 471 CURVE SMOOTH",
"300 471 OFFCURVE",
"216 402 OFFCURVE",
"178 350 CURVE",
"197 321 LINE",
"197 321 OFFCURVE",
"249 395 OFFCURVE",
"327 395 CURVE SMOOTH",
"373 395 OFFCURVE",
"405 370 OFFCURVE",
"412 321 CURVE SMOOTH",
"415 298 OFFCURVE",
"417 267 OFFCURVE",
"417 233 CURVE SMOOTH",
"417 193 OFFCURVE",
"416 147 OFFCURVE",
"411 105 CURVE SMOOTH",
"403 43 OFFCURVE",
"368 43 OFFCURVE",
"322 48 CURVE",
"330 0 LINE",
"571 0 LINE"
);
},
{
closed = 1;
nodes = (
"273 39 LINE",
"269 39 LINE SMOOTH",
"225 39 OFFCURVE",
"202 59 OFFCURVE",
"202 132 CURVE SMOOTH",
"202 250 OFFCURVE",
"206 528 OFFCURVE",
"221 655 CURVE",
"221 655 OFFCURVE",
"95 637 OFFCURVE",
"30 638 CURVE",
"35 590 LINE",
"95 590 OFFCURVE",
"119 588 OFFCURVE",
"122 554 CURVE",
"124 498 OFFCURVE",
"125 435 OFFCURVE",
"125 372 CURVE SMOOTH",
"125 270 OFFCURVE",
"122 169 OFFCURVE",
"118 105 CURVE",
"113 68 OFFCURVE",
"89 47 OFFCURVE",
"39 47 CURVE SMOOTH",
"29 47 LINE",
"37 0 LINE",
"281 0 LINE"
);
}
);
width = 598;
},
{
layerId = "8B9D8DF0-167E-4E5A-BF63-AC43D342B811";
paths = (
{
closed = 1;
nodes = (
"567 39 LINE",
"543 39 OFFCURVE",
"500 43 OFFCURVE",
"504 101 CURVE",
"511 162 OFFCURVE",
"520 232 OFFCURVE",
"525 287 CURVE SMOOTH",
"528 322 OFFCURVE",
"530 353 OFFCURVE",
"529 370 CURVE SMOOTH",
"525 443 OFFCURVE",
"482 471 OFFCURVE",
"424 471 CURVE SMOOTH",
"341 471 OFFCURVE",
"251 402 OFFCURVE",
"209 350 CURVE",
"225 321 LINE",
"225 321 OFFCURVE",
"284 395 OFFCURVE",
"362 395 CURVE SMOOTH",
"408 395 OFFCURVE",
"437 370 OFFCURVE",
"440 321 CURVE SMOOTH",
"441 298 OFFCURVE",
"440 267 OFFCURVE",
"437 233 CURVE SMOOTH",
"434 193 OFFCURVE",
"429 147 OFFCURVE",
"420 105 CURVE SMOOTH",
"407 43 OFFCURVE",
"372 43 OFFCURVE",
"326 48 CURVE",
"330 0 LINE",
"571 0 LINE"
);
},
{
closed = 1;
nodes = (
"276 39 LINE",
"272 39 LINE SMOOTH",
"228 39 OFFCURVE",
"207 59 OFFCURVE",
"214 132 CURVE SMOOTH",
"224 250 OFFCURVE",
"252 528 OFFCURVE",
"278 655 CURVE",
"278 655 OFFCURVE",
"151 637 OFFCURVE",
"86 638 CURVE",
"87 590 LINE",
"147 590 OFFCURVE",
"170 588 OFFCURVE",
"170 554 CURVE",
"168 498 OFFCURVE",
"163 435 OFFCURVE",
"158 372 CURVE SMOOTH",
"149 270 OFFCURVE",
"137 169 OFFCURVE",
"127 105 CURVE",
"119 68 OFFCURVE",
"93 47 OFFCURVE",
"43 47 CURVE SMOOTH",
"33 47 LINE",
"37 0 LINE",
"281 0 LINE"
);
}
);
width = 598;
}
);
unicode = 0068;
},
{
glyphname = idotless;
lastChange = "2018-09-12 15:08:21 +0000";
layers = (
{
layerId = "51BB9282-3B82-4DF1-A67A-294D3E37D73A";
paths = (
{
closed = 1;
nodes = (
"269 39 LINE",
"265 39 LINE SMOOTH",
"221 39 OFFCURVE",
"199 56 OFFCURVE",
"198 132 CURVE SMOOTH",
"197 210 OFFCURVE",
"202 351 OFFCURVE",
"217 477 CURVE",
"217 477 OFFCURVE",
"95 460 OFFCURVE",
"30 461 CURVE",
"35 413 LINE",
"95 413 OFFCURVE",
"119 410 OFFCURVE",
"122 377 CURVE",
"124 321 OFFCURVE",
"125 258 OFFCURVE",
"125 195 CURVE SMOOTH",
"125 160 OFFCURVE",
"122 126 OFFCURVE",
"118 105 CURVE",
"113 68 OFFCURVE",
"89 47 OFFCURVE",
"39 47 CURVE SMOOTH",
"29 47 LINE",
"37 0 LINE",
"277 0 LINE"
);
}
);
width = 305;
},
{
layerId = "8B9D8DF0-167E-4E5A-BF63-AC43D342B811";
paths = (
{
closed = 1;
nodes = (
"272 39 LINE",
"268 39 LINE SMOOTH",
"224 39 OFFCURVE",
"204 56 OFFCURVE",
"210 132 CURVE SMOOTH",
"215 210 OFFCURVE",
"233 351 OFFCURVE",
"259 477 CURVE",
"259 477 OFFCURVE",
"135 460 OFFCURVE",
"70 461 CURVE",
"71 413 LINE",
"131 413 OFFCURVE",
"155 410 OFFCURVE",
"155 377 CURVE",
"152 321 OFFCURVE",
"148 258 OFFCURVE",
"142 195 CURVE SMOOTH",
"139 160 OFFCURVE",
"133 126 OFFCURVE",
"127 105 CURVE",
"119 68 OFFCURVE",
"93 47 OFFCURVE",
"43 47 CURVE SMOOTH",
"33 47 LINE",
"37 0 LINE",
"277 0 LINE"
);
}
);
width = 305;
}
);
unicode = 0131;
},
{
glyphname = j;
lastChange = "2018-09-12 15:08:21 +0000";
layers = (
{
components = (
{
name = dotaccent;
transform = "{1, 0, 0, 1, 140, -7}";
}
);
layerId = "51BB9282-3B82-4DF1-A67A-294D3E37D73A";
paths = (
{
closed = 1;
nodes = (
"201 366 OFFCURVE",
"209 466 CURVE",
"209 466 OFFCURVE",
"101 456 OFFCURVE",
"14 457 CURVE",
"18 410 LINE",
"89 410 OFFCURVE",
"112 387 OFFCURVE",
"116 353 CURVE SMOOTH",
"120 306 OFFCURVE",
"130 150 OFFCURVE",
"119 -2 CURVE SMOOTH",
"108 -116 OFFCURVE",
"52 -164 OFFCURVE",
"-22 -146 CURVE",
"-39 -185 LINE",
"-28 -191 OFFCURVE",
"11 -204 OFFCURVE",
"53 -203 CURVE SMOOTH",
"151 -203 OFFCURVE",
"203 -142 OFFCURVE",
"201 -6 CURVE SMOOTH",
"200 76 OFFCURVE"
);
}
);
width = 282;
},
{
components = (
{
name = dotaccent;
transform = "{1, 0, 0.08749, 1, 157, -7}";
}
);
layerId = "8B9D8DF0-167E-4E5A-BF63-AC43D342B811";
paths = (
{
closed = 1;
nodes = (
"251 366 OFFCURVE",
"268 466 CURVE",
"268 466 OFFCURVE",
"159 456 OFFCURVE",
"72 457 CURVE",
"72 410 LINE",
"143 410 OFFCURVE",
"164 387 OFFCURVE",
"165 353 CURVE SMOOTH",
"165 306 OFFCURVE",
"161 150 OFFCURVE",
"137 -2 CURVE SMOOTH",
"116 -116 OFFCURVE",
"55 -164 OFFCURVE",
"-17 -146 CURVE",
"-37 -185 LINE",
"-27 -191 OFFCURVE",
"11 -204 OFFCURVE",
"53 -203 CURVE SMOOTH",
"151 -203 OFFCURVE",
"208 -142 OFFCURVE",
"218 -6 CURVE SMOOTH",
"224 76 OFFCURVE"
);
}
);
width = 282;
}
);
unicode = 006A;
},
{
glyphname = jdotless;
lastChange = "2018-09-12 15:08:21 +0000";
layers = (
{
layerId = "51BB9282-3B82-4DF1-A67A-294D3E37D73A";
paths = (
{
closed = 1;
nodes = (
"201 366 OFFCURVE",
"209 466 CURVE",
"209 466 OFFCURVE",
"101 456 OFFCURVE",
"14 457 CURVE",
"18 410 LINE",
"89 410 OFFCURVE",
"112 387 OFFCURVE",
"116 353 CURVE SMOOTH",
"120 306 OFFCURVE",
"130 150 OFFCURVE",
"119 -2 CURVE SMOOTH",
"108 -116 OFFCURVE",
"52 -164 OFFCURVE",
"-22 -146 CURVE",
"-39 -185 LINE",
"-28 -191 OFFCURVE",
"11 -204 OFFCURVE",
"53 -203 CURVE SMOOTH",
"151 -203 OFFCURVE",
"203 -142 OFFCURVE",
"201 -6 CURVE SMOOTH",
"200 76 OFFCURVE"
);
}
);
width = 232;
},
{
layerId = "8B9D8DF0-167E-4E5A-BF63-AC43D342B811";
paths = (
{
closed = 1;
nodes = (
"251 366 OFFCURVE",
"268 466 CURVE",
"268 466 OFFCURVE",
"159 456 OFFCURVE",
"72 457 CURVE",
"72 410 LINE",
"143 410 OFFCURVE",
"164 387 OFFCURVE",
"165 353 CURVE SMOOTH",
"165 306 OFFCURVE",
"161 150 OFFCURVE",
"137 -2 CURVE SMOOTH",
"116 -116 OFFCURVE",
"55 -164 OFFCURVE",
"-17 -146 CURVE",
"-37 -185 LINE",
"-27 -191 OFFCURVE",
"11 -204 OFFCURVE",
"53 -203 CURVE SMOOTH",
"151 -203 OFFCURVE",
"208 -142 OFFCURVE",
"218 -6 CURVE SMOOTH",
"224 76 OFFCURVE"
);
}
);
width = 232;
}
);
unicode = 0237;
},
{
glyphname = k;
lastChange = "2018-09-12 15:08:21 +0000";
layers = (
{
layerId = "51BB9282-3B82-4DF1-A67A-294D3E37D73A";
paths = (
{
closed = 1;
nodes = (
"273 39 LINE",
"269 39 LINE SMOOTH",
"225 39 OFFCURVE",
"202 59 OFFCURVE",
"202 132 CURVE SMOOTH",
"202 250 OFFCURVE",
"206 528 OFFCURVE",
"221 655 CURVE",
"221 655 OFFCURVE",
"95 637 OFFCURVE",
"30 638 CURVE",
"35 590 LINE",
"95 590 OFFCURVE",
"119 588 OFFCURVE",
"122 554 CURVE",
"124 498 OFFCURVE",
"125 435 OFFCURVE",
"125 372 CURVE SMOOTH",
"125 270 OFFCURVE",
"122 169 OFFCURVE",
"118 105 CURVE",
"113 68 OFFCURVE",
"89 47 OFFCURVE",
"39 47 CURVE SMOOTH",
"29 47 LINE",
"37 0 LINE",
"281 0 LINE"
);
},
{
closed = 1;
nodes = (
"507 -5 OFFCURVE",
"556 9 CURVE",
"547 49 LINE",
"416 51 OFFCURVE",
"316 265 OFFCURVE",
"321 275 CURVE",
"295 267 OFFCURVE",
"259 257 OFFCURVE",
"236 263 CURVE",
"264 206 OFFCURVE",
"366 6 OFFCURVE",
"436 -6 CURVE",
"470 -8 OFFCURVE"
);
},
{
closed = 1;
nodes = (
"295 236 OFFCURVE",
"319 242 CURVE",
"341 263 OFFCURVE",
"399 330 OFFCURVE",
"450 383 CURVE SMOOTH",
"473 407 OFFCURVE",
"488 419 OFFCURVE",
"512 420 CURVE",
"502 457 LINE",
"428 454 OFFCURVE",
"362 453 OFFCURVE",
"303 457 CURVE",
"318 417 LINE",
"378 419 OFFCURVE",
"373 399 OFFCURVE",
"363 383 CURVE SMOOTH",
"330 334 OFFCURVE",
"277 290 OFFCURVE",
"263 282 CURVE",
"242 282 OFFCURVE",
"224 286 OFFCURVE",
"203 290 CURVE",
"187 236 LINE",
"227 236 OFFCURVE"
);
}
);
width = 563;
},
{
layerId = "8B9D8DF0-167E-4E5A-BF63-AC43D342B811";
paths = (
{
closed = 1;
nodes = (
"277 39 LINE",
"273 39 LINE SMOOTH",
"229 39 OFFCURVE",
"208 59 OFFCURVE",
"214 132 CURVE SMOOTH",
"224 250 OFFCURVE",
"253 528 OFFCURVE",
"279 655 CURVE",
"279 655 OFFCURVE",
"151 637 OFFCURVE",
"86 638 CURVE",
"87 590 LINE",
"147 590 OFFCURVE",
"171 588 OFFCURVE",
"171 554 CURVE",
"168 498 OFFCURVE",
"164 435 OFFCURVE",
"158 372 CURVE SMOOTH",
"149 270 OFFCURVE",
"137 169 OFFCURVE",
"128 105 CURVE",
"120 68 OFFCURVE",
"94 47 OFFCURVE",
"44 47 CURVE SMOOTH",
"34 47 LINE",
"38 0 LINE",
"282 0 LINE"
);
},
{
closed = 1;
nodes = (
"507 -5 OFFCURVE",
"557 9 CURVE",
"552 49 LINE",
"421 51 OFFCURVE",
"340 265 OFFCURVE",
"346 275 CURVE",
"319 267 OFFCURVE",
"282 257 OFFCURVE",
"260 263 CURVE",
"283 206 OFFCURVE",
"367 6 OFFCURVE",
"436 -6 CURVE",
"470 -8 OFFCURVE"
);
},
{
closed = 1;
nodes = (
"316 236 OFFCURVE",
"341 242 CURVE",
"365 263 OFFCURVE",
"428 330 OFFCURVE",
"484 383 CURVE SMOOTH",
"509 407 OFFCURVE",
"525 419 OFFCURVE",
"549 420 CURVE",
"543 457 LINE",
"468 454 OFFCURVE",
"402 453 OFFCURVE",
"344 457 CURVE",
"355 417 LINE",
"415 419 OFFCURVE",
"408 399 OFFCURVE",
"397 383 CURVE SMOOTH",
"360 334 OFFCURVE",
"303 290 OFFCURVE",
"288 282 CURVE",
"267 282 OFFCURVE",
"250 286 OFFCURVE",
"229 290 CURVE",
"208 236 LINE",
"248 236 OFFCURVE"
);
}
);
width = 563;
}
);
unicode = 006B;
},
{
glyphname = kgreenlandic;
lastChange = "2018-09-12 15:08:21 +0000";
layers = (
{
layerId = "51BB9282-3B82-4DF1-A67A-294D3E37D73A";
paths = (
{
closed = 1;
nodes = (
"515 1 OFFCURVE",
"603 0 CURVE",
"594 47 LINE",
"553 46 OFFCURVE",
"536 62 OFFCURVE",
"356 263 CURVE",
"359 230 LINE",
"388 266 OFFCURVE",
"467 339 OFFCURVE",
"515 381 CURVE SMOOTH",
"540 403 OFFCURVE",
"563 425 OFFCURVE",
"594 424 CURVE",
"587 470 LINE",
"587 470 OFFCURVE",
"490 464 OFFCURVE",
"397 467 CURVE",
"404 420 LINE",
"460 423 OFFCURVE",
"457 400 OFFCURVE",
"444 385 CURVE SMOOTH",
"394 330 OFFCURVE",
"325 268 OFFCURVE",
"296 242 CURVE",
"303 213 LINE",
"368 143 OFFCURVE",
"402 96 OFFCURVE",
"414 79 CURVE SMOOTH",
"436 49 OFFCURVE",
"424 43 OFFCURVE",
"396 44 CURVE",
"407 0 LINE",
"494 0 OFFCURVE"
);
},
{
closed = 1;
nodes = (
"339 44 LINE",
"299 41 OFFCURVE",
"261 55 OFFCURVE",
"258 110 CURVE SMOOTH",
"252 219 OFFCURVE",
"255 272 OFFCURVE",
"262 363 CURVE SMOOTH",
"266 411 OFFCURVE",
"298 421 OFFCURVE",
"337 420 CURVE",
"331 468 LINE",
"249 464 OFFCURVE",
"205 463 OFFCURVE",
"111 467 CURVE",
"112 460 OFFCURVE",
"115 431 OFFCURVE",
"117 419 CURVE",
"177 420 OFFCURVE",
"187 396 OFFCURVE",
"187 347 CURVE SMOOTH",
"187 222 OFFCURVE",
"187 183 OFFCURVE",
"183 108 CURVE SMOOTH",
"181 59 OFFCURVE",
"167 50 OFFCURVE",
"116 49 CURVE",
"122 -1 LINE",
"347 0 LINE"
);
}
);
width = 571;
},
{
layerId = "8B9D8DF0-167E-4E5A-BF63-AC43D342B811";
paths = (
{
closed = 1;
nodes = (
"515 1 OFFCURVE",
"603 0 CURVE",
"598 47 LINE",
"557 46 OFFCURVE",
"542 62 OFFCURVE",
"379 263 CURVE",
"379 230 LINE",
"411 266 OFFCURVE",
"497 339 OFFCURVE",
"548 381 CURVE SMOOTH",
"575 403 OFFCURVE",
"600 425 OFFCURVE",
"631 424 CURVE",
"628 470 LINE",
"628 470 OFFCURVE",
"531 464 OFFCURVE",
"438 467 CURVE",
"441 420 LINE",
"497 423 OFFCURVE",
"492 400 OFFCURVE",
"478 385 CURVE SMOOTH",
"423 330 OFFCURVE",
"349 268 OFFCURVE",
"317 242 CURVE",
"322 213 LINE",
"381 143 OFFCURVE",
"410 96 OFFCURVE",
"421 79 CURVE SMOOTH",
"440 49 OFFCURVE",
"428 43 OFFCURVE",
"400 44 CURVE",
"407 0 LINE",
"494 0 OFFCURVE"
);
},
{
closed = 1;
nodes = (
"343 44 LINE",
"303 41 OFFCURVE",
"266 55 OFFCURVE",
"268 110 CURVE SMOOTH",
"271 219 OFFCURVE",
"279 272 OFFCURVE",
"294 363 CURVE SMOOTH",
"302 411 OFFCURVE",
"335 421 OFFCURVE",
"374 420 CURVE",
"372 468 LINE",
"290 464 OFFCURVE",
"246 463 OFFCURVE",
"152 467 CURVE",
"152 460 OFFCURVE",
"153 431 OFFCURVE",
"154 419 CURVE",
"214 420 OFFCURVE",
"222 396 OFFCURVE",
"217 347 CURVE SMOOTH",
"207 222 OFFCURVE",
"203 183 OFFCURVE",
"193 108 CURVE SMOOTH",
"186 59 OFFCURVE",
"171 50 OFFCURVE",
"120 49 CURVE",
"122 -1 LINE",
"347 0 LINE"
);
}
);
width = 571;
}
);
unicode = 0138;
},
{
glyphname = l;
lastChange = "2018-09-12 15:08:21 +0000";
layers = (
{
layerId = "51BB9282-3B82-4DF1-A67A-294D3E37D73A";
paths = (
{
closed = 1;
nodes = (
"273 39 LINE",
"269 39 LINE SMOOTH",
"225 39 OFFCURVE",
"203 56 OFFCURVE",
"202 132 CURVE SMOOTH",
"199 250 OFFCURVE",
"206 528 OFFCURVE",
"221 655 CURVE",
"221 655 OFFCURVE",
"95 637 OFFCURVE",
"30 638 CURVE",
"35 590 LINE",
"95 590 OFFCURVE",
"119 588 OFFCURVE",
"122 554 CURVE",
"124 498 OFFCURVE",
"125 435 OFFCURVE",
"125 372 CURVE SMOOTH",
"125 270 OFFCURVE",
"122 169 OFFCURVE",
"118 105 CURVE",
"113 68 OFFCURVE",
"89 47 OFFCURVE",
"39 47 CURVE SMOOTH",
"29 47 LINE",
"37 0 LINE",
"281 0 LINE"
);
}
);
width = 307;
},
{
layerId = "8B9D8DF0-167E-4E5A-BF63-AC43D342B811";
paths = (
{
closed = 1;
nodes = (
"276 39 LINE",
"272 39 LINE SMOOTH",
"228 39 OFFCURVE",
"208 56 OFFCURVE",
"214 132 CURVE SMOOTH",
"221 250 OFFCURVE",
"252 528 OFFCURVE",
"278 655 CURVE",
"278 655 OFFCURVE",
"151 637 OFFCURVE",
"86 638 CURVE",
"87 590 LINE",
"147 590 OFFCURVE",
"170 588 OFFCURVE",
"170 554 CURVE",
"168 498 OFFCURVE",
"163 435 OFFCURVE",
"158 372 CURVE SMOOTH",
"149 270 OFFCURVE",
"137 169 OFFCURVE",
"127 105 CURVE",
"119 68 OFFCURVE",
"93 47 OFFCURVE",
"43 47 CURVE SMOOTH",
"33 47 LINE",
"37 0 LINE",
"281 0 LINE"
);
}
);
width = 307;
}
);
unicode = 006C;
},
{
glyphname = m;
lastChange = "2018-09-12 15:08:21 +0000";
layers = (
{
layerId = "51BB9282-3B82-4DF1-A67A-294D3E37D73A";
paths = (
{
closed = 1;
nodes = (
"862 39 LINE",
"838 39 OFFCURVE",
"794 43 OFFCURVE",
"793 101 CURVE",
"795 162 OFFCURVE",
"798 232 OFFCURVE",
"798 287 CURVE SMOOTH",
"798 322 OFFCURVE",
"797 353 OFFCURVE",
"795 370 CURVE SMOOTH",
"784 443 OFFCURVE",
"739 471 OFFCURVE",
"681 471 CURVE SMOOTH",
"598 471 OFFCURVE",
"514 402 OFFCURVE",
"476 350 CURVE",
"495 321 LINE",
"495 321 OFFCURVE",
"547 395 OFFCURVE",
"625 395 CURVE SMOOTH",
"671 395 OFFCURVE",
"703 370 OFFCURVE",
"710 321 CURVE SMOOTH",
"713 298 OFFCURVE",
"715 267 OFFCURVE",
"715 233 CURVE SMOOTH",
"715 193 OFFCURVE",
"714 147 OFFCURVE",
"709 105 CURVE SMOOTH",
"701 43 OFFCURVE",
"662 42 OFFCURVE",
"629 45 CURVE",
"637 0 LINE",
"869 0 LINE"
);
},
{
closed = 1;
nodes = (
"280 37 LINE",
"250 37 OFFCURVE",
"214 42 OFFCURVE",
"214 105 CURVE SMOOTH",
"215 194 OFFCURVE",
"217 305 OFFCURVE",
"221 391 CURVE",
"204 381 LINE",
"209 401 OFFCURVE",
"218 468 OFFCURVE",
"218 468 CURVE SMOOTH",
"218 468 OFFCURVE",
"91 457 OFFCURVE",
"30 458 CURVE",
"35 411 LINE",
"131 409 OFFCURVE",
"132 374 OFFCURVE",
"132 291 CURVE SMOOTH",
"132 240 OFFCURVE",
"132 162 OFFCURVE",
"126 94 CURVE SMOOTH",
"122 53 OFFCURVE",
"82 43 OFFCURVE",
"39 48 CURVE",
"45 0 LINE",
"287 0 LINE"
);
},
{
closed = 1;
nodes = (
"564 39 LINE",
"540 39 OFFCURVE",
"502 43 OFFCURVE",
"501 101 CURVE",
"504 162 OFFCURVE",
"506 232 OFFCURVE",
"506 287 CURVE SMOOTH",
"506 322 OFFCURVE",
"505 353 OFFCURVE",
"503 370 CURVE SMOOTH",
"492 443 OFFCURVE",
"451 471 OFFCURVE",
"393 471 CURVE SMOOTH",
"310 471 OFFCURVE",
"235 420 OFFCURVE",
"197 373 CURVE",
"216 344 LINE",
"216 344 OFFCURVE",
"256 397 OFFCURVE",
"333 397 CURVE SMOOTH",
"379 397 OFFCURVE",
"408 370 OFFCURVE",
"415 321 CURVE SMOOTH",
"418 298 OFFCURVE",
"420 267 OFFCURVE",
"420 233 CURVE SMOOTH",
"420 193 OFFCURVE",
"419 147 OFFCURVE",
"414 105 CURVE SMOOTH",
"407 43 OFFCURVE",
"373 43 OFFCURVE",
"340 46 CURVE",
"348 0 LINE",
"571 0 LINE"
);
}
);
width = 890;
},
{
layerId = "8B9D8DF0-167E-4E5A-BF63-AC43D342B811";
paths = (
{
closed = 1;
nodes = (
"865 39 LINE",
"841 39 OFFCURVE",
"798 43 OFFCURVE",
"802 101 CURVE",
"809 162 OFFCURVE",
"818 232 OFFCURVE",
"823 287 CURVE SMOOTH",
"826 322 OFFCURVE",
"828 353 OFFCURVE",
"827 370 CURVE SMOOTH",
"823 443 OFFCURVE",
"780 471 OFFCURVE",
"722 471 CURVE SMOOTH",
"639 471 OFFCURVE",
"549 402 OFFCURVE",
"507 350 CURVE",
"523 321 LINE",
"523 321 OFFCURVE",
"582 395 OFFCURVE",
"660 395 CURVE SMOOTH",
"706 395 OFFCURVE",
"735 370 OFFCURVE",
"738 321 CURVE SMOOTH",
"739 298 OFFCURVE",
"738 267 OFFCURVE",
"735 233 CURVE SMOOTH",
"732 193 OFFCURVE",
"727 147 OFFCURVE",
"718 105 CURVE SMOOTH",
"705 43 OFFCURVE",
"666 42 OFFCURVE",
"633 45 CURVE",
"637 0 LINE",
"869 0 LINE"
);
},
{
closed = 1;
nodes = (
"283 37 LINE",
"253 37 OFFCURVE",
"218 42 OFFCURVE",
"223 105 CURVE SMOOTH",
"232 194 OFFCURVE",
"244 305 OFFCURVE",
"255 391 CURVE",
"237 381 LINE",
"244 401 OFFCURVE",
"259 468 OFFCURVE",
"259 468 CURVE SMOOTH",
"259 468 OFFCURVE",
"131 457 OFFCURVE",
"70 458 CURVE",
"71 411 LINE",
"167 409 OFFCURVE",
"165 374 OFFCURVE",
"157 291 CURVE SMOOTH",
"153 240 OFFCURVE",
"146 162 OFFCURVE",
"134 94 CURVE SMOOTH",
"127 53 OFFCURVE",
"86 43 OFFCURVE",
"43 48 CURVE",
"45 0 LINE",
"287 0 LINE"
);
},
{
closed = 1;
nodes = (
"567 39 LINE",
"543 39 OFFCURVE",
"506 43 OFFCURVE",
"510 101 CURVE",
"518 162 OFFCURVE",
"526 232 OFFCURVE",
"531 287 CURVE SMOOTH",
"534 322 OFFCURVE",
"536 353 OFFCURVE",
"535 370 CURVE SMOOTH",
"531 443 OFFCURVE",
"492 471 OFFCURVE",
"434 471 CURVE SMOOTH",
"351 471 OFFCURVE",
"272 420 OFFCURVE",
"230 373 CURVE",
"246 344 LINE",
"246 344 OFFCURVE",
"291 397 OFFCURVE",
"368 397 CURVE SMOOTH",
"414 397 OFFCURVE",
"440 370 OFFCURVE",
"443 321 CURVE SMOOTH",
"444 298 OFFCURVE",
"443 267 OFFCURVE",
"440 233 CURVE SMOOTH",
"437 193 OFFCURVE",
"432 147 OFFCURVE",
"423 105 CURVE SMOOTH",
"411 43 OFFCURVE",
"377 43 OFFCURVE",
"344 46 CURVE",
"348 0 LINE",
"571 0 LINE"
);
}
);
width = 890;
}
);
unicode = 006D;
},
{
glyphname = n;
lastChange = "2018-09-12 15:08:21 +0000";
layers = (
{
layerId = "51BB9282-3B82-4DF1-A67A-294D3E37D73A";
paths = (
{
closed = 1;
nodes = (
"587 39 LINE",
"563 39 OFFCURVE",
"519 43 OFFCURVE",
"518 101 CURVE",
"521 162 OFFCURVE",
"523 232 OFFCURVE",
"523 287 CURVE SMOOTH",
"523 322 OFFCURVE",
"522 353 OFFCURVE",
"520 370 CURVE SMOOTH",
"509 443 OFFCURVE",
"464 471 OFFCURVE",
"406 471 CURVE SMOOTH",
"323 471 OFFCURVE",
"239 402 OFFCURVE",
"201 350 CURVE",
"220 321 LINE",
"220 321 OFFCURVE",
"273 395 OFFCURVE",
"350 395 CURVE SMOOTH",
"396 395 OFFCURVE",
"428 370 OFFCURVE",
"435 321 CURVE SMOOTH",
"438 298 OFFCURVE",
"440 267 OFFCURVE",
"440 233 CURVE SMOOTH",
"440 193 OFFCURVE",
"439 147 OFFCURVE",
"434 105 CURVE SMOOTH",
"427 43 OFFCURVE",
"391 43 OFFCURVE",
"345 48 CURVE",
"353 0 LINE",
"594 0 LINE"
);
},
{
closed = 1;
nodes = (
"287 37 LINE",
"258 37 OFFCURVE",
"222 42 OFFCURVE",
"222 105 CURVE SMOOTH",
"223 194 OFFCURVE",
"221 282 OFFCURVE",
"225 368 CURVE",
"208 358 LINE",
"213 378 OFFCURVE",
"226 468 OFFCURVE",
"226 468 CURVE SMOOTH",
"226 468 OFFCURVE",
"99 457 OFFCURVE",
"38 458 CURVE",
"43 411 LINE",
"139 409 OFFCURVE",
"140 374 OFFCURVE",
"140 291 CURVE SMOOTH",
"140 240 OFFCURVE",
"140 162 OFFCURVE",
"133 94 CURVE SMOOTH",
"129 53 OFFCURVE",
"97 46 OFFCURVE",
"47 48 CURVE",
"53 0 LINE",
"295 0 LINE"
);
}
);
width = 622;
},
{
layerId = "8B9D8DF0-167E-4E5A-BF63-AC43D342B811";
paths = (
{
closed = 1;
nodes = (
"590 39 LINE",
"566 39 OFFCURVE",
"523 43 OFFCURVE",
"527 101 CURVE",
"535 162 OFFCURVE",
"543 232 OFFCURVE",
"548 287 CURVE SMOOTH",
"551 322 OFFCURVE",
"553 353 OFFCURVE",
"552 370 CURVE SMOOTH",
"548 443 OFFCURVE",
"505 471 OFFCURVE",
"447 471 CURVE SMOOTH",
"364 471 OFFCURVE",
"274 402 OFFCURVE",
"232 350 CURVE",
"248 321 LINE",
"248 321 OFFCURVE",
"308 395 OFFCURVE",
"385 395 CURVE SMOOTH",
"431 395 OFFCURVE",
"460 370 OFFCURVE",
"463 321 CURVE SMOOTH",
"464 298 OFFCURVE",
"463 267 OFFCURVE",
"460 233 CURVE SMOOTH",
"457 193 OFFCURVE",
"452 147 OFFCURVE",
"443 105 CURVE SMOOTH",
"431 43 OFFCURVE",
"395 43 OFFCURVE",
"349 48 CURVE",
"353 0 LINE",
"594 0 LINE"
);
},
{
closed = 1;
nodes = (
"290 37 LINE",
"261 37 OFFCURVE",
"226 42 OFFCURVE",
"231 105 CURVE SMOOTH",
"240 194 OFFCURVE",
"246 282 OFFCURVE",
"257 368 CURVE",
"239 358 LINE",
"246 378 OFFCURVE",
"267 468 OFFCURVE",
"267 468 CURVE SMOOTH",
"267 468 OFFCURVE",
"139 457 OFFCURVE",
"78 458 CURVE",
"79 411 LINE",
"175 409 OFFCURVE",
"173 374 OFFCURVE",
"165 291 CURVE SMOOTH",
"161 240 OFFCURVE",
"154 162 OFFCURVE",
"141 94 CURVE SMOOTH",
"134 53 OFFCURVE",
"101 46 OFFCURVE",
"51 48 CURVE",
"53 0 LINE",
"295 0 LINE"
);
}
);
width = 622;
}
);
unicode = 006E;
},
{
glyphname = eng;
lastChange = "2018-09-12 15:08:21 +0000";
layers = (
{
layerId = "51BB9282-3B82-4DF1-A67A-294D3E37D73A";
paths = (
{
closed = 1;
nodes = (
"287 37 LINE",
"258 37 OFFCURVE",
"222 42 OFFCURVE",
"222 105 CURVE SMOOTH",
"223 194 OFFCURVE",
"221 282 OFFCURVE",
"225 368 CURVE",
"208 358 LINE",
"213 378 OFFCURVE",
"226 468 OFFCURVE",
"226 468 CURVE SMOOTH",
"226 468 OFFCURVE",
"99 457 OFFCURVE",
"38 458 CURVE",
"43 411 LINE",
"139 409 OFFCURVE",
"140 374 OFFCURVE",
"140 291 CURVE SMOOTH",
"140 240 OFFCURVE",
"140 162 OFFCURVE",
"133 94 CURVE SMOOTH",
"129 53 OFFCURVE",
"97 46 OFFCURVE",
"47 48 CURVE",
"53 0 LINE",
"295 0 LINE"
);
},
{
closed = 1;
nodes = (
"523 218 OFFCURVE",
"523 287 CURVE SMOOTH",
"523 322 OFFCURVE",
"522 353 OFFCURVE",
"520 370 CURVE SMOOTH",
"509 443 OFFCURVE",
"464 471 OFFCURVE",
"406 471 CURVE SMOOTH",
"323 471 OFFCURVE",
"239 402 OFFCURVE",
"201 350 CURVE",
"220 321 LINE",
"220 321 OFFCURVE",
"273 395 OFFCURVE",
"350 395 CURVE SMOOTH",
"396 395 OFFCURVE",
"427 370 OFFCURVE",
"434 321 CURVE SMOOTH",
"437 298 OFFCURVE",
"440 267 OFFCURVE",
"440 233 CURVE SMOOTH",
"440 126 OFFCURVE",
"440 20 OFFCURVE",
"440 -44 CURVE SMOOTH",
"440 -162 OFFCURVE",
"382 -209 OFFCURVE",
"320 -193 CURVE",
"340 -226 LINE",
"329 -204 OFFCURVE",
"313 -181 OFFCURVE",
"310 -132 CURVE",
"257 -131 LINE",
"249 -154 OFFCURVE",
"245 -179 OFFCURVE",
"243 -203 CURVE",
"259 -226 OFFCURVE",
"317 -244 OFFCURVE",
"363 -244 CURVE SMOOTH",
"454 -244 OFFCURVE",
"517 -172 OFFCURVE",
"516 -89 CURVE",
"516 -12 OFFCURVE"
);
}
);
width = 462;
},
{
layerId = "8B9D8DF0-167E-4E5A-BF63-AC43D342B811";
paths = (
{
closed = 1;
nodes = (
"312 37 LINE",
"283 37 OFFCURVE",
"247 42 OFFCURVE",
"253 105 CURVE SMOOTH",
"261 194 OFFCURVE",
"267 282 OFFCURVE",
"279 368 CURVE",
"261 358 LINE",
"267 378 OFFCURVE",
"288 468 OFFCURVE",
"288 468 CURVE SMOOTH",
"288 468 OFFCURVE",
"160 457 OFFCURVE",
"99 458 CURVE",
"100 411 LINE",
"196 409 OFFCURVE",
"194 374 OFFCURVE",
"187 291 CURVE SMOOTH",
"182 240 OFFCURVE",
"176 162 OFFCURVE",
"163 94 CURVE SMOOTH",
"155 53 OFFCURVE",
"122 46 OFFCURVE",
"73 48 CURVE",
"74 0 LINE",
"316 0 LINE"
);
},
{
closed = 1;
nodes = (
"563 218 OFFCURVE",
"569 287 CURVE SMOOTH",
"573 322 OFFCURVE",
"574 353 OFFCURVE",
"574 370 CURVE SMOOTH",
"569 443 OFFCURVE",
"527 471 OFFCURVE",
"469 471 CURVE SMOOTH",
"386 471 OFFCURVE",
"296 402 OFFCURVE",
"253 350 CURVE",
"269 321 LINE",
"269 321 OFFCURVE",
"329 395 OFFCURVE",
"406 395 CURVE SMOOTH",
"452 395 OFFCURVE",
"481 370 OFFCURVE",
"483 321 CURVE SMOOTH",
"484 298 OFFCURVE",
"485 267 OFFCURVE",
"482 233 CURVE SMOOTH",
"472 126 OFFCURVE",
"463 20 OFFCURVE",
"457 -44 CURVE SMOOTH",
"447 -162 OFFCURVE",
"385 -209 OFFCURVE",
"324 -193 CURVE",
"342 -226 LINE",
"332 -204 OFFCURVE",
"319 -181 OFFCURVE",
"320 -132 CURVE",
"267 -131 LINE",
"257 -154 OFFCURVE",
"251 -179 OFFCURVE",
"247 -203 CURVE",
"261 -226 OFFCURVE",
"317 -244 OFFCURVE",
"363 -244 CURVE SMOOTH",
"454 -244 OFFCURVE",
"523 -172 OFFCURVE",
"530 -89 CURVE",
"536 -12 OFFCURVE"
);
}
);
width = 462;
}
);
unicode = 014B;
},
{
glyphname = o;
lastChange = "2018-09-12 15:08:21 +0000";
layers = (
{
layerId = "51BB9282-3B82-4DF1-A67A-294D3E37D73A";
paths = (
{
closed = 1;
nodes = (
"470 114 OFFCURVE",
"474 249 CURVE SMOOTH",
"479 409 OFFCURVE",
"397 473 OFFCURVE",
"279 474 CURVE SMOOTH",
"138 474 OFFCURVE",
"32 359 OFFCURVE",
"34 189 CURVE SMOOTH",
"35 69 OFFCURVE",
"101 -12 OFFCURVE",
"230 -14 CURVE SMOOTH",
"402 -17 OFFCURVE"
);
},
{
closed = 1;
nodes = (
"128 120 OFFCURVE",
"132 245 CURVE SMOOTH",
"136 389 OFFCURVE",
"209 425 OFFCURVE",
"245 428 CURVE SMOOTH",
"330 436 OFFCURVE",
"387 350 OFFCURVE",
"383 229 CURVE SMOOTH",
"380 129 OFFCURVE",
"340 42 OFFCURVE",
"265 34 CURVE SMOOTH",
"177 24 OFFCURVE"
);
}
);
width = 509;
},
{
layerId = "8B9D8DF0-167E-4E5A-BF63-AC43D342B811";
paths = (
{
closed = 1;
nodes = (
"481 114 OFFCURVE",
"497 249 CURVE SMOOTH",
"516 409 OFFCURVE",
"440 473 OFFCURVE",
"322 474 CURVE SMOOTH",
"181 474 OFFCURVE",
"65 359 OFFCURVE",
"52 189 CURVE SMOOTH",
"42 69 OFFCURVE",
"101 -12 OFFCURVE",
"230 -14 CURVE SMOOTH",
"402 -17 OFFCURVE"
);
},
{
closed = 1;
nodes = (
"140 120 OFFCURVE",
"155 245 CURVE SMOOTH",
"171 389 OFFCURVE",
"247 425 OFFCURVE",
"284 428 CURVE SMOOTH",
"369 436 OFFCURVE",
"419 350 OFFCURVE",
"404 229 CURVE SMOOTH",
"393 129 OFFCURVE",
"345 42 OFFCURVE",
"269 34 CURVE SMOOTH",
"180 24 OFFCURVE"
);
}
);
width = 509;
}
);
unicode = 006F;
},
{
glyphname = ohorn;
lastChange = "2018-09-12 15:08:21 +0000";
layers = (
{
components = (
{
name = o;
}
);
layerId = "51BB9282-3B82-4DF1-A67A-294D3E37D73A";
paths = (
{
closed = 1;
nodes = (
"501 527 CURVE SMOOTH",
"501 566 OFFCURVE",
"484 585 OFFCURVE",
"464 596 CURVE",
"441 598 OFFCURVE",
"420 591 OFFCURVE",
"405 581 CURVE",
"420 564 OFFCURVE",
"431 548 OFFCURVE",
"431 518 CURVE SMOOTH",
"431 470 OFFCURVE",
"403 462 OFFCURVE",
"387 460 CURVE SMOOTH",
"376 458 OFFCURVE",
"349 465 OFFCURVE",
"339 465 CURVE",
"387 413 LINE",
"435 419 OFFCURVE",
"501 460 OFFCURVE"
);
}
);
width = 509;
},
{
components = (
{
name = o;
transform = "{1, 0, 0.08749, 1, 1, 0}";
}
);
layerId = "8B9D8DF0-167E-4E5A-BF63-AC43D342B811";
paths = (
{
closed = 1;
nodes = (
"548 527 CURVE SMOOTH",
"552 566 OFFCURVE",
"536 585 OFFCURVE",
"517 596 CURVE",
"495 598 OFFCURVE",
"473 591 OFFCURVE",
"457 581 CURVE",
"471 564 OFFCURVE",
"480 548 OFFCURVE",
"478 518 CURVE SMOOTH",
"473 470 OFFCURVE",
"445 462 OFFCURVE",
"428 460 CURVE SMOOTH",
"417 458 OFFCURVE",
"391 465 OFFCURVE",
"381 465 CURVE",
"424 413 LINE",
"473 419 OFFCURVE",
"542 460 OFFCURVE"
);
}
);
width = 509;
}
);
unicode = 01A1;
},
{
glyphname = ohornhookabove;
lastChange = "2018-09-12 15:08:21 +0000";
layers = (
{
components = (
{
name = hookabovecomb;
transform = "{1, 0, 0, 1, 268, -103}";
},
{
name = o;
}
);
layerId = "51BB9282-3B82-4DF1-A67A-294D3E37D73A";
paths = (
{
closed = 1;
nodes = (
"482 460 OFFCURVE",
"481 504 CURVE SMOOTH",
"480 547 OFFCURVE",
"453 606 OFFCURVE",
"401 606 CURVE SMOOTH",
"368 606 OFFCURVE",
"353 587 OFFCURVE",
"357 550 CURVE",
"388 540 OFFCURVE",
"424 517 OFFCURVE",
"424 487 CURVE SMOOTH",
"424 467 OFFCURVE",
"400 459 OFFCURVE",
"378 459 CURVE SMOOTH",
"367 459 OFFCURVE",
"356 460 OFFCURVE",
"346 463 CURVE",
"386 423 LINE",
"392 417 OFFCURVE",
"393 415 OFFCURVE",
"397 415 CURVE SMOOTH",
"460 415 OFFCURVE"
);
}
);
width = 509;
},
{
components = (
{
name = hookabovecomb;
transform = "{1, 0, 0.08749, 1, 260, -103}";
},
{
name = o;
transform = "{1, 0, 0.08749, 1, 1, 0}";
}
);
layerId = "8B9D8DF0-167E-4E5A-BF63-AC43D342B811";
paths = (
{
closed = 1;
nodes = (
"523 460 OFFCURVE",
"526 504 CURVE SMOOTH",
"529 547 OFFCURVE",
"507 606 OFFCURVE",
"455 606 CURVE SMOOTH",
"422 606 OFFCURVE",
"406 587 OFFCURVE",
"406 550 CURVE",
"436 540 OFFCURVE",
"470 517 OFFCURVE",
"468 487 CURVE SMOOTH",
"466 467 OFFCURVE",
"441 459 OFFCURVE",
"419 459 CURVE SMOOTH",
"408 459 OFFCURVE",
"397 460 OFFCURVE",
"388 463 CURVE",
"424 423 LINE",
"430 417 OFFCURVE",
"431 415 OFFCURVE",
"435 415 CURVE SMOOTH",
"498 415 OFFCURVE"
);
}
);
width = 509;
}
);
unicode = 1EDF;
},
{
glyphname = p;
lastChange = "2018-09-12 15:08:21 +0000";
layers = (
{
layerId = "51BB9282-3B82-4DF1-A67A-294D3E37D73A";
paths = (
{
closed = 1;
nodes = (
"100 410 OFFCURVE",
"127 386 OFFCURVE",
"131 351 CURVE SMOOTH",
"132 338 OFFCURVE",
"133 316 OFFCURVE",
"133 289 CURVE SMOOTH",
"133 252 OFFCURVE",
"132 137 OFFCURVE",
"129 40 CURVE SMOOTH",
"127 -75 OFFCURVE",
"129 -118 OFFCURVE",
"69 -126 CURVE SMOOTH",
"62 -127 OFFCURVE",
"55 -128 OFFCURVE",
"46 -128 CURVE",
"52 -176 LINE",
"313 -176 LINE",
"306 -139 LINE",
"302 -139 OFFCURVE",
"298 -139 OFFCURVE",
"294 -138 CURVE",
"220 -132 OFFCURVE",
"216 -74 OFFCURVE",
"214 23 CURVE SMOOTH",
"213 63 OFFCURVE",
"213 102 OFFCURVE",
"213 136 CURVE SMOOTH",
"213 215 LINE SMOOTH",
"213 269 OFFCURVE",
"216 325 OFFCURVE",
"219 376 CURVE",
"201 370 LINE",
"206 390 OFFCURVE",
"219 468 OFFCURVE",
"219 468 CURVE SMOOTH",
"219 468 OFFCURVE",
"140 457 OFFCURVE",
"68 457 CURVE SMOOTH",
"55 457 OFFCURVE",
"42 457 OFFCURVE",
"31 458 CURVE",
"36 409 LINE"
);
},
{
closed = 1;
nodes = (
"225 -3 OFFCURVE",
"260 -3 CURVE SMOOTH",
"426 -3 OFFCURVE",
"548 120 OFFCURVE",
"548 283 CURVE SMOOTH",
"548 405 OFFCURVE",
"476 473 OFFCURVE",
"378 473 CURVE SMOOTH",
"291 473 OFFCURVE",
"217 412 OFFCURVE",
"193 355 CURVE",
"216 323 LINE",
"233 364 OFFCURVE",
"283 410 OFFCURVE",
"336 410 CURVE SMOOTH",
"417 410 OFFCURVE",
"445 337 OFFCURVE",
"445 258 CURVE SMOOTH",
"445 148 OFFCURVE",
"403 45 OFFCURVE",
"301 45 CURVE SMOOTH",
"246 45 OFFCURVE",
"206 77 OFFCURVE",
"206 77 CURVE",
"175 9 LINE",
"194 2 OFFCURVE"
);
}
);
width = 592;
},
{
layerId = "8B9D8DF0-167E-4E5A-BF63-AC43D342B811";
paths = (
{
closed = 1;
nodes = (
"151 410 OFFCURVE",
"176 386 OFFCURVE",
"177 351 CURVE SMOOTH",
"177 338 OFFCURVE",
"176 316 OFFCURVE",
"174 289 CURVE SMOOTH",
"170 252 OFFCURVE",
"159 137 OFFCURVE",
"148 40 CURVE SMOOTH",
"136 -75 OFFCURVE",
"134 -118 OFFCURVE",
"73 -126 CURVE SMOOTH",
"66 -127 OFFCURVE",
"59 -128 OFFCURVE",
"50 -128 CURVE",
"52 -176 LINE",
"313 -176 LINE",
"309 -139 LINE",
"305 -139 OFFCURVE",
"301 -139 OFFCURVE",
"297 -138 CURVE",
"224 -132 OFFCURVE",
"225 -74 OFFCURVE",
"231 23 CURVE SMOOTH",
"234 63 OFFCURVE",
"237 102 OFFCURVE",
"240 136 CURVE SMOOTH",
"247 215 LINE SMOOTH",
"252 269 OFFCURVE",
"260 325 OFFCURVE",
"267 376 CURVE",
"249 370 LINE",
"256 390 OFFCURVE",
"275 468 OFFCURVE",
"275 468 CURVE SMOOTH",
"275 468 OFFCURVE",
"195 457 OFFCURVE",
"123 457 CURVE SMOOTH",
"110 457 OFFCURVE",
"97 457 OFFCURVE",
"86 458 CURVE",
"87 409 LINE"
);
},
{
closed = 1;
nodes = (
"240 -3 OFFCURVE",
"275 -3 CURVE SMOOTH",
"441 -3 OFFCURVE",
"574 120 OFFCURVE",
"588 283 CURVE SMOOTH",
"599 405 OFFCURVE",
"533 473 OFFCURVE",
"435 473 CURVE SMOOTH",
"348 473 OFFCURVE",
"268 412 OFFCURVE",
"239 355 CURVE",
"260 323 LINE",
"280 364 OFFCURVE",
"334 410 OFFCURVE",
"387 410 CURVE SMOOTH",
"468 410 OFFCURVE",
"490 337 OFFCURVE",
"483 258 CURVE SMOOTH",
"473 148 OFFCURVE",
"422 45 OFFCURVE",
"320 45 CURVE SMOOTH",
"265 45 OFFCURVE",
"228 77 OFFCURVE",
"228 77 CURVE",
"191 9 LINE",
"210 2 OFFCURVE"
);
}
);
width = 592;
}
);
unicode = 0070;
},
{
glyphname = thorn;
lastChange = "2018-09-12 15:08:21 +0000";
layers = (
{
layerId = "51BB9282-3B82-4DF1-A67A-294D3E37D73A";
paths = (
{
closed = 1;
nodes = (
"100 564 OFFCURVE",
"127 540 OFFCURVE",
"131 505 CURVE SMOOTH",
"132 492 OFFCURVE",
"133 470 OFFCURVE",
"133 443 CURVE SMOOTH",
"133 406 OFFCURVE",
"132 137 OFFCURVE",
"129 40 CURVE SMOOTH",
"127 -75 OFFCURVE",
"129 -118 OFFCURVE",
"69 -126 CURVE SMOOTH",
"62 -127 OFFCURVE",
"55 -128 OFFCURVE",
"46 -128 CURVE",
"52 -176 LINE",
"313 -176 LINE",
"306 -139 LINE",
"302 -139 OFFCURVE",
"298 -139 OFFCURVE",
"294 -138 CURVE",
"220 -132 OFFCURVE",
"216 -74 OFFCURVE",
"214 23 CURVE SMOOTH",
"213 103 OFFCURVE",
"213 332 OFFCURVE",
"213 369 CURVE SMOOTH",
"213 470 OFFCURVE",
"212 523 OFFCURVE",
"219 622 CURVE SMOOTH",
"219 622 OFFCURVE",
"140 611 OFFCURVE",
"68 611 CURVE SMOOTH",
"55 611 OFFCURVE",
"42 611 OFFCURVE",
"31 612 CURVE",
"36 563 LINE"
);
},
{
closed = 1;
nodes = (
"269 -9 OFFCURVE",
"329 4 CURVE SMOOTH",
"485 39 OFFCURVE",
"549 176 OFFCURVE",
"548 285 CURVE SMOOTH",
"547 406 OFFCURVE",
"475 473 OFFCURVE",
"378 473 CURVE SMOOTH",
"287 473 OFFCURVE",
"213 412 OFFCURVE",
"187 355 CURVE",
"211 323 LINE",
"228 365 OFFCURVE",
"281 411 OFFCURVE",
"339 410 CURVE SMOOTH",
"418 407 OFFCURVE",
"446 334 OFFCURVE",
"445 255 CURVE SMOOTH",
"444 139 OFFCURVE",
"398 62 OFFCURVE",
"330 48 CURVE SMOOTH",
"260 33 OFFCURVE",
"206 77 OFFCURVE",
"206 77 CURVE",
"175 9 LINE",
"206 -2 OFFCURVE"
);
}
);
width = 592;
},
{
layerId = "8B9D8DF0-167E-4E5A-BF63-AC43D342B811";
paths = (
{
closed = 1;
nodes = (
"165 564 OFFCURVE",
"190 540 OFFCURVE",
"191 505 CURVE SMOOTH",
"190 492 OFFCURVE",
"190 470 OFFCURVE",
"187 443 CURVE SMOOTH",
"184 406 OFFCURVE",
"159 137 OFFCURVE",
"148 40 CURVE SMOOTH",
"136 -75 OFFCURVE",
"134 -118 OFFCURVE",
"73 -126 CURVE SMOOTH",
"66 -127 OFFCURVE",
"59 -128 OFFCURVE",
"50 -128 CURVE",
"52 -176 LINE",
"313 -176 LINE",
"309 -139 LINE",
"305 -139 OFFCURVE",
"301 -139 OFFCURVE",
"297 -138 CURVE",
"224 -132 OFFCURVE",
"225 -74 OFFCURVE",
"231 23 CURVE SMOOTH",
"237 103 OFFCURVE",
"257 332 OFFCURVE",
"261 369 CURVE SMOOTH",
"270 470 OFFCURVE",
"273 523 OFFCURVE",
"289 622 CURVE SMOOTH",
"289 622 OFFCURVE",
"209 611 OFFCURVE",
"137 611 CURVE SMOOTH",
"124 611 OFFCURVE",
"111 611 OFFCURVE",
"100 612 CURVE",
"101 563 LINE"
);
},
{
closed = 1;
nodes = (
"284 -9 OFFCURVE",
"345 4 CURVE SMOOTH",
"504 39 OFFCURVE",
"580 176 OFFCURVE",
"588 285 CURVE SMOOTH",
"598 406 OFFCURVE",
"532 473 OFFCURVE",
"435 473 CURVE SMOOTH",
"344 473 OFFCURVE",
"264 412 OFFCURVE",
"233 355 CURVE",
"255 323 LINE",
"275 365 OFFCURVE",
"332 411 OFFCURVE",
"390 410 CURVE SMOOTH",
"469 407 OFFCURVE",
"491 334 OFFCURVE",
"483 255 CURVE SMOOTH",
"472 139 OFFCURVE",
"419 62 OFFCURVE",
"350 48 CURVE SMOOTH",
"278 33 OFFCURVE",
"228 77 OFFCURVE",
"228 77 CURVE",
"191 9 LINE",
"221 -2 OFFCURVE"
);
}
);
width = 592;
}
);
unicode = 00FE;
},
{
glyphname = q;
lastChange = "2018-09-12 15:08:21 +0000";
layers = (
{
layerId = "51BB9282-3B82-4DF1-A67A-294D3E37D73A";
paths = (
{
closed = 1;
nodes = (
"347 36 OFFCURVE",
"384 123 CURVE",
"358 155 LINE",
"330 90 OFFCURVE",
"276 56 OFFCURVE",
"233 55 CURVE SMOOTH",
"185 55 OFFCURVE",
"127 92 OFFCURVE",
"128 197 CURVE SMOOTH",
"129 334 OFFCURVE",
"184 414 OFFCURVE",
"247 426 CURVE SMOOTH",
"337 442 OFFCURVE",
"387 349 OFFCURVE",
"387 349 CURVE",
"443 449 LINE",
"410 462 OFFCURVE",
"360 476 OFFCURVE",
"284 475 CURVE SMOOTH",
"113 474 OFFCURVE",
"39 341 OFFCURVE",
"35 201 CURVE SMOOTH",
"30 69 OFFCURVE",
"99 -6 OFFCURVE",
"210 -6 CURVE SMOOTH",
"281 -6 OFFCURVE"
);
},
{
closed = 1;
nodes = (
"514 -139 LINE",
"466 -139 OFFCURVE",
"443 -99 OFFCURVE",
"440 -50 CURVE SMOOTH",
"433 126 OFFCURVE",
"430 350 OFFCURVE",
"443 449 CURVE",
"288 464 LINE",
"298 430 LINE",
"358 439 OFFCURVE",
"349 404 OFFCURVE",
"353 341 CURVE SMOOTH",
"355 319 OFFCURVE",
"357 122 OFFCURVE",
"356 15 CURVE SMOOTH",
"353 -96 OFFCURVE",
"344 -123 OFFCURVE",
"264 -128 CURVE",
"270 -176 LINE",
"518 -176 LINE"
);
}
);
width = 525;
},
{
layerId = "8B9D8DF0-167E-4E5A-BF63-AC43D342B811";
paths = (
{
closed = 1;
nodes = (
"366 36 OFFCURVE",
"410 123 CURVE",
"387 155 LINE",
"353 90 OFFCURVE",
"296 56 OFFCURVE",
"253 55 CURVE SMOOTH",
"205 55 OFFCURVE",
"150 92 OFFCURVE",
"161 197 CURVE SMOOTH",
"174 334 OFFCURVE",
"236 414 OFFCURVE",
"300 426 CURVE SMOOTH",
"391 442 OFFCURVE",
"433 349 OFFCURVE",
"433 349 CURVE",
"498 449 LINE",
"466 462 OFFCURVE",
"417 476 OFFCURVE",
"341 475 CURVE SMOOTH",
"170 474 OFFCURVE",
"84 341 OFFCURVE",
"68 201 CURVE SMOOTH",
"51 69 OFFCURVE",
"114 -6 OFFCURVE",
"225 -6 CURVE SMOOTH",
"296 -6 OFFCURVE"
);
},
{
closed = 1;
nodes = (
"517 -139 LINE",
"469 -139 OFFCURVE",
"450 -99 OFFCURVE",
"451 -50 CURVE SMOOTH",
"459 126 OFFCURVE",
"476 350 OFFCURVE",
"498 449 CURVE",
"344 464 LINE",
"351 430 LINE",
"412 439 OFFCURVE",
"400 404 OFFCURVE",
"398 341 CURVE SMOOTH",
"398 319 OFFCURVE",
"383 122 OFFCURVE",
"373 15 CURVE SMOOTH",
"360 -96 OFFCURVE",
"349 -123 OFFCURVE",
"268 -128 CURVE",
"270 -176 LINE",
"518 -176 LINE"
);
}
);
width = 525;
}
);
unicode = 0071;
},
{
glyphname = r;
lastChange = "2018-09-12 15:08:21 +0000";
layers = (
{
layerId = "51BB9282-3B82-4DF1-A67A-294D3E37D73A";
paths = (
{
closed = 1;
nodes = (
"112 410 OFFCURVE",
"132 391 OFFCURVE",
"138 349 CURVE SMOOTH",
"140 333 OFFCURVE",
"140 314 OFFCURVE",
"140 291 CURVE SMOOTH",
"140 240 OFFCURVE",
"140 162 OFFCURVE",
"133 94 CURVE SMOOTH",
"130 62 OFFCURVE",
"110 49 OFFCURVE",
"82 48 CURVE",
"73 47 OFFCURVE",
"65 47 OFFCURVE",
"56 48 CURVE",
"62 0 LINE",
"325 0 LINE",
"317 37 LINE",
"306 37 LINE",
"274 39 OFFCURVE",
"223 49 OFFCURVE",
"222 113 CURVE SMOOTH",
"220 202 OFFCURVE",
"221 282 OFFCURVE",
"225 368 CURVE",
"210 358 LINE",
"215 378 OFFCURVE",
"226 468 OFFCURVE",
"226 468 CURVE SMOOTH",
"226 468 OFFCURVE",
"126 459 OFFCURVE",
"61 458 CURVE SMOOTH",
"38 458 LINE",
"43 411 LINE"
);
},
{
closed = 1;
nodes = (
"255 357 OFFCURVE",
"296 370 CURVE SMOOTH",
"331 381 OFFCURVE",
"386 370 OFFCURVE",
"386 370 CURVE",
"322 381 LINE",
"352 370 OFFCURVE",
"364 350 OFFCURVE",
"369 332 CURVE",
"417 330 LINE",
"422 365 OFFCURVE",
"427 441 OFFCURVE",
"426 470 CURVE",
"331 470 OFFCURVE",
"197 383 OFFCURVE",
"172 293 CURVE",
"191 265 LINE",
"216 322 OFFCURVE"
);
}
);
width = 446;
},
{
layerId = "8B9D8DF0-167E-4E5A-BF63-AC43D342B811";
paths = (
{
closed = 1;
nodes = (
"148 410 OFFCURVE",
"166 391 OFFCURVE",
"169 349 CURVE SMOOTH",
"169 333 OFFCURVE",
"167 314 OFFCURVE",
"165 291 CURVE SMOOTH",
"161 240 OFFCURVE",
"154 162 OFFCURVE",
"141 94 CURVE SMOOTH",
"135 62 OFFCURVE",
"114 49 OFFCURVE",
"86 48 CURVE",
"77 47 OFFCURVE",
"69 47 OFFCURVE",
"60 48 CURVE",
"62 0 LINE",
"325 0 LINE",
"320 37 LINE",
"309 37 LINE",
"277 39 OFFCURVE",
"227 49 OFFCURVE",
"232 113 CURVE SMOOTH",
"238 202 OFFCURVE",
"246 282 OFFCURVE",
"257 368 CURVE",
"241 358 LINE",
"248 378 OFFCURVE",
"267 468 OFFCURVE",
"267 468 CURVE SMOOTH",
"267 468 OFFCURVE",
"166 459 OFFCURVE",
"101 458 CURVE SMOOTH",
"78 458 LINE",
"79 411 LINE"
);
},
{
closed = 1;
nodes = (
"286 357 OFFCURVE",
"328 370 CURVE SMOOTH",
"364 381 OFFCURVE",
"418 370 OFFCURVE",
"418 370 CURVE",
"355 381 LINE",
"384 370 OFFCURVE",
"395 350 OFFCURVE",
"398 332 CURVE",
"446 330 LINE",
"454 365 OFFCURVE",
"466 441 OFFCURVE",
"467 470 CURVE",
"372 470 OFFCURVE",
"231 383 OFFCURVE",
"198 293 CURVE",
"214 265 LINE",
"244 322 OFFCURVE"
);
}
);
width = 446;
}
);
leftMetricsKey = "=n";
unicode = 0072;
},
{
glyphname = s;
lastChange = "2018-09-12 15:08:21 +0000";
layers = (
{
layerId = "51BB9282-3B82-4DF1-A67A-294D3E37D73A";
paths = (
{
closed = 1;
nodes = (
"49 5 OFFCURVE",
"49 5 CURVE",
"49 14 OFFCURVE",
"48 25 OFFCURVE",
"48 38 CURVE SMOOTH",
"48 64 OFFCURVE",
"50 95 OFFCURVE",
"55 127 CURVE",
"119 120 LINE",
"121 84 OFFCURVE",
"121 50 OFFCURVE",
"139 23 CURVE",
"108 32 OFFCURVE",
"105 65 OFFCURVE",
"100 99 CURVE",
"109 80 OFFCURVE",
"134 28 OFFCURVE",
"197 28 CURVE SMOOTH",
"248 28 OFFCURVE",
"282 57 OFFCURVE",
"282 105 CURVE SMOOTH",
"282 203 OFFCURVE",
"60 206 OFFCURVE",
"60 334 CURVE SMOOTH",
"60 406 OFFCURVE",
"119 467 OFFCURVE",
"227 467 CURVE SMOOTH",
"299 467 OFFCURVE",
"353 447 OFFCURVE",
"353 447 CURVE",
"353 436 OFFCURVE",
"354 422 OFFCURVE",
"354 407 CURVE SMOOTH",
"354 381 OFFCURVE",
"353 353 OFFCURVE",
"350 336 CURVE",
"289 343 LINE",
"288 371 OFFCURVE",
"276 418 OFFCURVE",
"260 455 CURVE",
"303 356 LINE",
"292 368 OFFCURVE",
"276 427 OFFCURVE",
"211 427 CURVE SMOOTH",
"171 427 OFFCURVE",
"140 403 OFFCURVE",
"140 366 CURVE SMOOTH",
"140 262 OFFCURVE",
"367 271 OFFCURVE",
"367 125 CURVE SMOOTH",
"367 43 OFFCURVE",
"298 -19 OFFCURVE",
"189 -19 CURVE SMOOTH",
"113 -19 OFFCURVE"
);
}
);
width = 398;
},
{
layerId = "8B9D8DF0-167E-4E5A-BF63-AC43D342B811";
paths = (
{
closed = 1;
nodes = (
"51 5 OFFCURVE",
"51 5 CURVE",
"52 14 OFFCURVE",
"52 25 OFFCURVE",
"53 38 CURVE SMOOTH",
"55 64 OFFCURVE",
"60 95 OFFCURVE",
"68 127 CURVE",
"131 120 LINE",
"130 84 OFFCURVE",
"127 50 OFFCURVE",
"143 23 CURVE",
"112 32 OFFCURVE",
"112 65 OFFCURVE",
"110 99 CURVE",
"118 80 OFFCURVE",
"138 28 OFFCURVE",
"201 28 CURVE SMOOTH",
"252 28 OFFCURVE",
"289 57 OFFCURVE",
"293 105 CURVE SMOOTH",
"301 203 OFFCURVE",
"80 206 OFFCURVE",
"91 334 CURVE SMOOTH",
"97 406 OFFCURVE",
"162 467 OFFCURVE",
"270 467 CURVE SMOOTH",
"342 467 OFFCURVE",
"394 447 OFFCURVE",
"394 447 CURVE",
"393 436 OFFCURVE",
"393 422 OFFCURVE",
"391 407 CURVE SMOOTH",
"389 381 OFFCURVE",
"386 353 OFFCURVE",
"381 336 CURVE",
"321 343 LINE",
"322 371 OFFCURVE",
"314 418 OFFCURVE",
"301 455 CURVE",
"336 356 LINE",
"326 368 OFFCURVE",
"315 427 OFFCURVE",
"250 427 CURVE SMOOTH",
"210 427 OFFCURVE",
"177 403 OFFCURVE",
"174 366 CURVE SMOOTH",
"165 262 OFFCURVE",
"392 271 OFFCURVE",
"380 125 CURVE SMOOTH",
"372 43 OFFCURVE",
"298 -19 OFFCURVE",
"189 -19 CURVE SMOOTH",
"113 -19 OFFCURVE"
);
}
);
width = 398;
}
);
unicode = 0073;
userData = {
com.typemytype.robofont.layerData = {
"Regular Nov 4 16, 19:41" = {
anchors = (
{
name = top;
x = 284;
y = 670;
},
{
name = bottom;
x = 256;
y = -10;
}
);
components = (
);
contours = (
{
points = (
{
smooth = 0;
x = 387;
y = -25;
},
{
smooth = 0;
x = 477;
y = 56;
},
{
segmentType = curve;
smooth = 1;
x = 477;
y = 162;
},
{
smooth = 0;
x = 477;
y = 352;
},
{
smooth = 0;
x = 182;
y = 340;
},
{
segmentType = curve;
smooth = 1;
x = 182;
y = 475;
},
{
smooth = 0;
x = 182;
y = 524;
},
{
smooth = 0;
x = 222;
y = 555;
},
{
segmentType = curve;
smooth = 1;
x = 274;
y = 555;
},
{
smooth = 0;
x = 358;
y = 554;
},
{
smooth = 0;
x = 379;
y = 478;
},
{
segmentType = curve;
smooth = 0;
x = 393;
y = 462;
},
{
segmentType = line;
smooth = 1;
x = 338;
y = 591;
},
{
smooth = 0;
x = 359;
y = 543;
},
{
smooth = 0;
x = 374;
y = 482;
},
{
segmentType = curve;
smooth = 0;
x = 375;
y = 445;
},
{
segmentType = line;
smooth = 0;
x = 455;
y = 437;
},
{
smooth = 0;
x = 458;
y = 459;
},
{
smooth = 0;
x = 460;
y = 495;
},
{
segmentType = curve;
smooth = 1;
x = 460;
y = 528;
},
{
smooth = 0;
x = 460;
y = 548;
},
{
smooth = 0;
x = 459;
y = 566;
},
{
segmentType = curve;
smooth = 0;
x = 458;
y = 580;
},
{
smooth = 0;
x = 458;
y = 580;
},
{
smooth = 0;
x = 388;
y = 606;
},
{
segmentType = curve;
smooth = 1;
x = 295;
y = 606;
},
{
smooth = 0;
x = 154;
y = 606;
},
{
smooth = 0;
x = 78;
y = 527;
},
{
segmentType = curve;
smooth = 1;
x = 78;
y = 434;
},
{
smooth = 0;
x = 78;
y = 267;
},
{
smooth = 0;
x = 366;
y = 264;
},
{
segmentType = curve;
smooth = 1;
x = 366;
y = 136;
},
{
smooth = 0;
x = 366;
y = 74;
},
{
smooth = 0;
x = 322;
y = 36;
},
{
segmentType = curve;
smooth = 1;
x = 256;
y = 36;
},
{
smooth = 0;
x = 168;
y = 36;
},
{
smooth = 0;
x = 147;
y = 94;
},
{
segmentType = curve;
smooth = 0;
x = 115;
y = 128;
},
{
smooth = 0;
x = 122;
y = 85;
},
{
smooth = 0;
x = 134;
y = 41;
},
{
segmentType = curve;
smooth = 0;
x = 175;
y = 30;
},
{
smooth = 0;
x = 151;
y = 65;
},
{
smooth = 0;
x = 142;
y = 109;
},
{
segmentType = curve;
smooth = 0;
x = 139;
y = 156;
},
{
segmentType = line;
smooth = 0;
x = 56;
y = 165;
},
{
smooth = 0;
x = 50;
y = 124;
},
{
smooth = 0;
x = 47;
y = 83;
},
{
segmentType = curve;
smooth = 1;
x = 47;
y = 49;
},
{
smooth = 0;
x = 47;
y = 33;
},
{
smooth = 0;
x = 48;
y = 18;
},
{
segmentType = curve;
smooth = 0;
x = 49;
y = 7;
},
{
smooth = 0;
x = 49;
y = 7;
},
{
smooth = 0;
x = 132;
y = -25;
},
{
segmentType = curve;
smooth = 1;
x = 245;
y = -25;
}
);
}
);
lib = {
};
name = s;
unicodes = (
);
width = 531;
};
};
};
},
{
glyphname = germandbls;
lastChange = "2018-09-13 20:21:48 +0000";
layers = (
{
layerId = "51BB9282-3B82-4DF1-A67A-294D3E37D73A";
paths = (
{
closed = 1;
nodes = (
"252 9 OFFCURVE",
"252 9 CURVE",
"249 19 OFFCURVE",
"247 42 OFFCURVE",
"247 62 CURVE SMOOTH",
"247 83 OFFCURVE",
"248 105 OFFCURVE",
"250 126 CURVE",
"300 125 LINE",
"304 91 OFFCURVE",
"310 47 OFFCURVE",
"349 22 CURVE",
"322 27 OFFCURVE",
"295 41 OFFCURVE",
"283 60 CURVE",
"300 47 OFFCURVE",
"326 33 OFFCURVE",
"362 33 CURVE SMOOTH",
"401 33 OFFCURVE",
"429 74 OFFCURVE",
"429 125 CURVE SMOOTH",
"429 180 OFFCURVE",
"400 258 OFFCURVE",
"292 293 CURVE",
"276 312 LINE",
"296 340 OFFCURVE",
"345 406 OFFCURVE",
"345 484 CURVE SMOOTH",
"345 544 OFFCURVE",
"305 589 OFFCURVE",
"248 589 CURVE SMOOTH",
"211 589 OFFCURVE",
"195 562 OFFCURVE",
"193 527 CURVE",
"182 413 OFFCURVE",
"191 201 OFFCURVE",
"193 132 CURVE SMOOTH",
"194 88 OFFCURVE",
"197 44 OFFCURVE",
"202 0 CURVE",
"32 0 LINE",
"24 47 LINE",
"34 47 LINE SMOOTH",
"84 47 OFFCURVE",
"98 68 OFFCURVE",
"103 105 CURVE SMOOTH",
"107 126 OFFCURVE",
"110 160 OFFCURVE",
"110 195 CURVE SMOOTH",
"110 268 OFFCURVE",
"109 342 OFFCURVE",
"106 404 CURVE",
"115 311 LINE",
"107 361 OFFCURVE",
"97 381 OFFCURVE",
"20 381 CURVE",
"15 429 LINE",
"49 429 OFFCURVE",
"94 433 OFFCURVE",
"144 441 CURVE",
"108 428 LINE",
"108 449 OFFCURVE",
"108 480 OFFCURVE",
"108 497 CURVE SMOOTH",
"108 596 OFFCURVE",
"192 634 OFFCURVE",
"277 634 CURVE SMOOTH",
"379 634 OFFCURVE",
"441 579 OFFCURVE",
"441 500 CURVE SMOOTH",
"441 427 OFFCURVE",
"368 360 OFFCURVE",
"337 329 CURVE",
"322 359 LINE",
"459 316 OFFCURVE",
"521 226 OFFCURVE",
"521 143 CURVE SMOOTH",
"521 63 OFFCURVE",
"468 -8 OFFCURVE",
"377 -8 CURVE",
"307 -11 OFFCURVE"
);
}
);
width = 552;
},
{
layerId = "8B9D8DF0-167E-4E5A-BF63-AC43D342B811";
paths = (
{
closed = 1;
nodes = (
"254 9 OFFCURVE",
"254 9 CURVE",
"251 19 OFFCURVE",
"251 42 OFFCURVE",
"253 62 CURVE SMOOTH",
"255 83 OFFCURVE",
"258 105 OFFCURVE",
"262 126 CURVE",
"312 125 LINE",
"313 91 OFFCURVE",
"315 47 OFFCURVE",
"352 22 CURVE",
"325 27 OFFCURVE",
"299 41 OFFCURVE",
"289 60 CURVE",
"305 47 OFFCURVE",
"330 33 OFFCURVE",
"366 33 CURVE SMOOTH",
"405 33 OFFCURVE",
"436 74 OFFCURVE",
"441 125 CURVE SMOOTH",
"445 180 OFFCURVE",
"423 258 OFFCURVE",
"318 293 CURVE",
"304 312 LINE",
"326 340 OFFCURVE",
"381 406 OFFCURVE",
"388 484 CURVE SMOOTH",
"393 544 OFFCURVE",
"357 589 OFFCURVE",
"300 589 CURVE SMOOTH",
"263 589 OFFCURVE",
"245 562 OFFCURVE",
"240 527 CURVE",
"219 413 OFFCURVE",
"209 201 OFFCURVE",
"205 132 CURVE SMOOTH",
"202 88 OFFCURVE",
"202 44 OFFCURVE",
"203 0 CURVE",
"33 0 LINE",
"29 47 LINE",
"39 47 LINE SMOOTH",
"89 47 OFFCURVE",
"105 68 OFFCURVE",
"113 105 CURVE SMOOTH",
"119 126 OFFCURVE",
"125 160 OFFCURVE",
"128 195 CURVE SMOOTH",
"134 268 OFFCURVE",
"140 342 OFFCURVE",
"142 404 CURVE",
"143 311 LINE",
"139 361 OFFCURVE",
"131 381 OFFCURVE",
"54 381 CURVE",
"53 429 LINE",
"87 429 OFFCURVE",
"133 433 OFFCURVE",
"183 441 CURVE",
"146 428 LINE",
"148 449 OFFCURVE",
"151 480 OFFCURVE",
"152 497 CURVE SMOOTH",
"161 596 OFFCURVE",
"248 634 OFFCURVE",
"333 634 CURVE SMOOTH",
"435 634 OFFCURVE",
"492 579 OFFCURVE",
"485 500 CURVE SMOOTH",
"479 427 OFFCURVE",
"400 360 OFFCURVE",
"367 329 CURVE",
"354 359 LINE",
"487 316 OFFCURVE",
"541 226 OFFCURVE",
"534 143 CURVE SMOOTH",
"527 63 OFFCURVE",
"468 -8 OFFCURVE",
"377 -8 CURVE",
"307 -11 OFFCURVE"
);
}
);
width = 572;
}
);
rightMetricsKey = "=B";
unicode = 00DF;
userData = {
public.markColor = "0.85,0.26,0.06,1";
};
},
{
glyphname = t;
lastChange = "2018-09-12 15:08:21 +0000";
layers = (
{
layerId = "51BB9282-3B82-4DF1-A67A-294D3E37D73A";
paths = (
{
closed = 1;
nodes = (
"313 25 OFFCURVE",
"330 43 CURVE",
"310 69 LINE",
"291 57 OFFCURVE",
"271 51 OFFCURVE",
"253 51 CURVE SMOOTH",
"223 51 OFFCURVE",
"194 66 OFFCURVE",
"182 99 CURVE SMOOTH",
"173 125 OFFCURVE",
"177 189 OFFCURVE",
"177 283 CURVE SMOOTH",
"177 312 OFFCURVE",
"179 358 OFFCURVE",
"182 390 CURVE",
"311 400 LINE",
"302 450 LINE",
"184 450 LINE",
"186 506 OFFCURVE",
"189 562 OFFCURVE",
"193 610 CURVE",
"105 591 LINE",
"104 522 OFFCURVE",
"104 450 OFFCURVE",
"104 450 CURVE SMOOTH",
"12 450 LINE",
"19 398 LINE",
"65 398 OFFCURVE",
"99 383 OFFCURVE",
"99 383 CURVE",
"102 297 OFFCURVE",
"91 149 OFFCURVE",
"91 99 CURVE SMOOTH",
"91 28 OFFCURVE",
"122 -13 OFFCURVE",
"195 -13 CURVE SMOOTH",
"258 -13 OFFCURVE"
);
}
);
width = 354;
},
{
layerId = "8B9D8DF0-167E-4E5A-BF63-AC43D342B811";
paths = (
{
closed = 1;
nodes = (
"316 25 OFFCURVE",
"335 43 CURVE",
"317 69 LINE",
"297 57 OFFCURVE",
"277 51 OFFCURVE",
"259 51 CURVE SMOOTH",
"229 51 OFFCURVE",
"201 66 OFFCURVE",
"192 99 CURVE SMOOTH",
"185 125 OFFCURVE",
"195 189 OFFCURVE",
"203 283 CURVE SMOOTH",
"205 312 OFFCURVE",
"211 358 OFFCURVE",
"217 390 CURVE",
"347 400 LINE",
"343 450 LINE",
"225 450 LINE",
"231 506 OFFCURVE",
"239 562 OFFCURVE",
"248 610 CURVE",
"158 591 LINE",
"151 522 OFFCURVE",
"145 450 OFFCURVE",
"145 450 CURVE SMOOTH",
"53 450 LINE",
"55 398 LINE",
"101 398 OFFCURVE",
"134 383 OFFCURVE",
"134 383 CURVE",
"129 297 OFFCURVE",
"105 149 OFFCURVE",
"101 99 CURVE SMOOTH",
"95 28 OFFCURVE",
"122 -13 OFFCURVE",
"195 -13 CURVE SMOOTH",
"258 -13 OFFCURVE"
);
}
);
width = 354;
}
);
unicode = 0074;
},
{
glyphname = tbar;
lastChange = "2018-09-12 15:08:21 +0000";
layers = (
{
components = (
{
name = t;
}
);
layerId = "51BB9282-3B82-4DF1-A67A-294D3E37D73A";
paths = (
{
closed = 1;
nodes = (
"294 253 OFFCURVE",
"293 265 OFFCURVE",
"292 286 CURVE",
"206 283 OFFCURVE",
"93 280 OFFCURVE",
"10 286 CURVE",
"15 226 LINE",
"298 226 LINE"
);
}
);
width = 462;
},
{
components = (
{
name = t;
transform = "{1, 0, 0.08749, 1, 1, 0}";
}
);
layerId = "8B9D8DF0-167E-4E5A-BF63-AC43D342B811";
paths = (
{
closed = 1;
nodes = (
"317 253 OFFCURVE",
"317 265 OFFCURVE",
"318 286 CURVE",
"232 283 OFFCURVE",
"119 280 OFFCURVE",
"36 286 CURVE",
"36 226 LINE",
"319 226 LINE"
);
}
);
width = 462;
}
);
unicode = 0167;
},
{
glyphname = u;
lastChange = "2018-09-12 15:08:21 +0000";
layers = (
{
layerId = "51BB9282-3B82-4DF1-A67A-294D3E37D73A";
paths = (
{
closed = 1;
nodes = (
"369 59 OFFCURVE",
"407 111 CURVE",
"387 139 LINE",
"387 139 OFFCURVE",
"335 65 OFFCURVE",
"257 65 CURVE SMOOTH",
"212 65 OFFCURVE",
"177 91 OFFCURVE",
"170 139 CURVE SMOOTH",
"167 162 OFFCURVE",
"166 193 OFFCURVE",
"166 227 CURVE SMOOTH",
"166 309 OFFCURVE",
"171 396 OFFCURVE",
"184 463 CURVE",
"130 456 OFFCURVE",
"68 450 OFFCURVE",
"-3 454 CURVE",
"2 404 LINE",
"25 406 OFFCURVE",
"92 403 OFFCURVE",
"89 348 CURVE SMOOTH",
"87 290 OFFCURVE",
"83 228 OFFCURVE",
"83 173 CURVE SMOOTH",
"83 139 OFFCURVE",
"85 107 OFFCURVE",
"88 90 CURVE SMOOTH",
"99 18 OFFCURVE",
"143 -11 OFFCURVE",
"202 -11 CURVE SMOOTH",
"284 -11 OFFCURVE"
);
},
{
closed = 1;
nodes = (
"547 43 LINE",
"461 45 OFFCURVE",
"467 89 OFFCURVE",
"467 169 CURVE SMOOTH",
"467 240 OFFCURVE",
"472 346 OFFCURVE",
"480 457 CURVE",
"392 447 LINE",
"384 370 OFFCURVE",
"383 312 OFFCURVE",
"383 246 CURVE SMOOTH",
"383 190 LINE SMOOTH",
"383 156 OFFCURVE",
"383 124 OFFCURVE",
"382 92 CURVE",
"382 92 OFFCURVE",
"390 109 OFFCURVE",
"396 109 CURVE SMOOTH",
"398 109 OFFCURVE",
"397 105 OFFCURVE",
"397 99 CURVE",
"392 79 OFFCURVE",
"387 0 OFFCURVE",
"387 0 CURVE",
"554 0 LINE"
);
},
{
closed = 1;
nodes = (
"481 464 LINE",
"437 457 OFFCURVE",
"346 451 OFFCURVE",
"290 455 CURVE",
"296 409 LINE",
"325 410 OFFCURVE",
"389 412 OFFCURVE",
"385 345 CURVE",
"474 355 LINE"
);
}
);
width = 561;
},
{
layerId = "8B9D8DF0-167E-4E5A-BF63-AC43D342B811";
paths = (
{
closed = 1;
nodes = (
"375 59 OFFCURVE",
"418 111 CURVE",
"400 139 LINE",
"400 139 OFFCURVE",
"342 65 OFFCURVE",
"264 65 CURVE SMOOTH",
"219 65 OFFCURVE",
"186 91 OFFCURVE",
"183 139 CURVE SMOOTH",
"182 162 OFFCURVE",
"184 193 OFFCURVE",
"187 227 CURVE SMOOTH",
"194 309 OFFCURVE",
"207 396 OFFCURVE",
"225 463 CURVE",
"171 456 OFFCURVE",
"108 450 OFFCURVE",
"38 454 CURVE",
"38 404 LINE",
"61 406 OFFCURVE",
"128 403 OFFCURVE",
"120 348 CURVE SMOOTH",
"113 290 OFFCURVE",
"104 228 OFFCURVE",
"99 173 CURVE SMOOTH",
"96 139 OFFCURVE",
"95 107 OFFCURVE",
"97 90 CURVE SMOOTH",
"102 18 OFFCURVE",
"143 -11 OFFCURVE",
"202 -11 CURVE SMOOTH",
"284 -11 OFFCURVE"
);
},
{
closed = 1;
nodes = (
"552 43 LINE",
"466 45 OFFCURVE",
"476 89 OFFCURVE",
"483 169 CURVE SMOOTH",
"489 240 OFFCURVE",
"503 346 OFFCURVE",
"521 457 CURVE",
"432 447 LINE",
"417 370 OFFCURVE",
"411 312 OFFCURVE",
"405 246 CURVE SMOOTH",
"401 190 LINE SMOOTH",
"398 156 OFFCURVE",
"395 124 OFFCURVE",
"391 92 CURVE",
"391 92 OFFCURVE",
"400 109 OFFCURVE",
"406 109 CURVE SMOOTH",
"408 109 OFFCURVE",
"407 105 OFFCURVE",
"407 99 CURVE",
"400 79 OFFCURVE",
"388 0 OFFCURVE",
"388 0 CURVE",
"555 0 LINE"
);
},
{
closed = 1;
nodes = (
"523 464 LINE",
"478 457 OFFCURVE",
"386 451 OFFCURVE",
"331 455 CURVE",
"333 409 LINE",
"362 410 OFFCURVE",
"426 412 OFFCURVE",
"416 345 CURVE",
"506 355 LINE"
);
}
);
width = 561;
}
);
unicode = 0075;
},
{
glyphname = uhorn;
lastChange = "2018-09-12 15:08:21 +0000";
layers = (
{
components = (
{
name = u;
}
);
layerId = "51BB9282-3B82-4DF1-A67A-294D3E37D73A";
paths = (
{
closed = 1;
nodes = (
"547 526 CURVE SMOOTH",
"547 564 OFFCURVE",
"530 584 OFFCURVE",
"510 594 CURVE",
"487 597 OFFCURVE",
"466 589 OFFCURVE",
"450 579 CURVE",
"466 562 OFFCURVE",
"477 547 OFFCURVE",
"477 517 CURVE SMOOTH",
"477 469 OFFCURVE",
"448 460 OFFCURVE",
"432 458 CURVE SMOOTH",
"421 457 OFFCURVE",
"410 455 OFFCURVE",
"400 455 CURVE",
"432 412 LINE",
"480 417 OFFCURVE",
"547 458 OFFCURVE"
);
}
);
width = 561;
},
{
components = (
{
name = u;
transform = "{1, 0, 0.08749, 1, 1, 0}";
}
);
layerId = "8B9D8DF0-167E-4E5A-BF63-AC43D342B811";
paths = (
{
closed = 1;
nodes = (
"594 526 CURVE SMOOTH",
"597 564 OFFCURVE",
"582 584 OFFCURVE",
"563 594 CURVE",
"540 597 OFFCURVE",
"518 589 OFFCURVE",
"502 579 CURVE",
"516 562 OFFCURVE",
"526 547 OFFCURVE",
"523 517 CURVE SMOOTH",
"519 469 OFFCURVE",
"489 460 OFFCURVE",
"473 458 CURVE SMOOTH",
"462 457 OFFCURVE",
"451 455 OFFCURVE",
"441 455 CURVE",
"469 412 LINE",
"517 417 OFFCURVE",
"588 458 OFFCURVE"
);
}
);
width = 561;
}
);
unicode = 01B0;
},
{
glyphname = v;
lastChange = "2018-09-12 15:08:21 +0000";
layers = (
{
layerId = "51BB9282-3B82-4DF1-A67A-294D3E37D73A";
paths = (
{
closed = 1;
nodes = (
"320 75 OFFCURVE",
"383 216 OFFCURVE",
"443 353 CURVE SMOOTH",
"457 385 OFFCURVE",
"462 415 OFFCURVE",
"516 417 CURVE",
"507 461 LINE",
"433 458 OFFCURVE",
"374 457 OFFCURVE",
"300 461 CURVE",
"306 413 LINE",
"359 415 OFFCURVE",
"398 407 OFFCURVE",
"383 363 CURVE SMOOTH",
"336 234 OFFCURVE",
"275 112 OFFCURVE",
"252 55 CURVE",
"252 55 OFFCURVE",
"250 105 OFFCURVE",
"246 122 CURVE",
"223 193 OFFCURVE",
"196 281 OFFCURVE",
"172 357 CURVE",
"160 407 OFFCURVE",
"179 415 OFFCURVE",
"238 420 CURVE",
"227 461 LINE",
"142 459 OFFCURVE",
"87 457 OFFCURVE",
"2 461 CURVE",
"13 412 LINE",
"49 413 OFFCURVE",
"67 408 OFFCURVE",
"82 358 CURVE SMOOTH",
"141 176 OFFCURVE",
"172 74 OFFCURVE",
"202 -12 CURVE",
"291 14 LINE"
);
}
);
width = 507;
},
{
layerId = "8B9D8DF0-167E-4E5A-BF63-AC43D342B811";
paths = (
{
closed = 1;
nodes = (
"328 75 OFFCURVE",
"403 216 OFFCURVE",
"475 353 CURVE SMOOTH",
"492 385 OFFCURVE",
"499 415 OFFCURVE",
"554 417 CURVE",
"548 461 LINE",
"474 458 OFFCURVE",
"415 457 OFFCURVE",
"341 461 CURVE",
"343 413 LINE",
"396 415 OFFCURVE",
"435 407 OFFCURVE",
"416 363 CURVE SMOOTH",
"358 234 OFFCURVE",
"286 112 OFFCURVE",
"258 55 CURVE",
"258 55 OFFCURVE",
"260 105 OFFCURVE",
"258 122 CURVE",
"241 193 OFFCURVE",
"222 281 OFFCURVE",
"204 357 CURVE",
"197 407 OFFCURVE",
"216 415 OFFCURVE",
"276 420 CURVE",
"268 461 LINE",
"183 459 OFFCURVE",
"128 457 OFFCURVE",
"43 461 CURVE",
"50 412 LINE",
"86 413 OFFCURVE",
"104 408 OFFCURVE",
"114 358 CURVE SMOOTH",
"157 176 OFFCURVE",
"180 74 OFFCURVE",
"202 -12 CURVE",
"293 14 LINE"
);
}
);
width = 507;
}
);
unicode = 0076;
},
{
glyphname = w;
lastChange = "2018-09-12 15:08:21 +0000";
layers = (
{
layerId = "51BB9282-3B82-4DF1-A67A-294D3E37D73A";
paths = (
{
closed = 1;
nodes = (
"578 62 OFFCURVE",
"631 215 OFFCURVE",
"684 351 CURVE SMOOTH",
"699 391 OFFCURVE",
"705 413 OFFCURVE",
"752 414 CURVE",
"743 459 LINE",
"671 454 OFFCURVE",
"618 454 OFFCURVE",
"543 459 CURVE",
"550 410 LINE",
"602 413 OFFCURVE",
"639 399 OFFCURVE",
"624 353 CURVE SMOOTH",
"580 226 OFFCURVE",
"547 122 OFFCURVE",
"523 67 CURVE",
"523 67 OFFCURVE",
"520 132 OFFCURVE",
"512 159 CURVE SMOOTH",
"490 233 OFFCURVE",
"470 278 OFFCURVE",
"448 354 CURVE SMOOTH",
"434 403 OFFCURVE",
"448 415 OFFCURVE",
"495 417 CURVE",
"487 459 LINE",
"415 457 OFFCURVE",
"365 456 OFFCURVE",
"280 459 CURVE",
"293 410 LINE",
"330 411 OFFCURVE",
"353 398 OFFCURVE",
"360 371 CURVE SMOOTH",
"413 189 OFFCURVE",
"457 74 OFFCURVE",
"483 -12 CURVE",
"554 1 LINE"
);
},
{
closed = 1;
nodes = (
"306 62 OFFCURVE",
"360 215 OFFCURVE",
"420 351 CURVE",
"369 353 LINE",
"316 226 OFFCURVE",
"273 120 OFFCURVE",
"250 65 CURVE",
"250 65 OFFCURVE",
"249 132 OFFCURVE",
"240 159 CURVE SMOOTH",
"217 233 OFFCURVE",
"200 279 OFFCURVE",
"175 354 CURVE SMOOTH",
"155 413 OFFCURVE",
"199 417 OFFCURVE",
"242 417 CURVE",
"231 459 LINE",
"149 454 OFFCURVE",
"97 452 OFFCURVE",
"5 459 CURVE",
"11 410 LINE",
"47 410 OFFCURVE",
"69 405 OFFCURVE",
"85 356 CURVE SMOOTH",
"146 172 OFFCURVE",
"179 74 OFFCURVE",
"209 -12 CURVE",
"279 1 LINE"
);
}
);
width = 751;
},
{
layerId = "8B9D8DF0-167E-4E5A-BF63-AC43D342B811";
paths = (
{
closed = 1;
nodes = (
"584 62 OFFCURVE",
"651 215 OFFCURVE",
"716 351 CURVE SMOOTH",
"734 391 OFFCURVE",
"742 413 OFFCURVE",
"789 414 CURVE",
"784 459 LINE",
"712 454 OFFCURVE",
"659 454 OFFCURVE",
"584 459 CURVE",
"587 410 LINE",
"639 413 OFFCURVE",
"675 399 OFFCURVE",
"656 353 CURVE SMOOTH",
"601 226 OFFCURVE",
"559 122 OFFCURVE",
"530 67 CURVE",
"530 67 OFFCURVE",
"533 132 OFFCURVE",
"527 159 CURVE SMOOTH",
"511 233 OFFCURVE",
"495 278 OFFCURVE",
"480 354 CURVE SMOOTH",
"470 403 OFFCURVE",
"485 415 OFFCURVE",
"533 417 CURVE",
"528 459 LINE",
"456 457 OFFCURVE",
"406 456 OFFCURVE",
"321 459 CURVE",
"330 410 LINE",
"367 411 OFFCURVE",
"389 398 OFFCURVE",
"394 371 CURVE SMOOTH",
"431 189 OFFCURVE",
"465 74 OFFCURVE",
"483 -12 CURVE",
"555 1 LINE"
);
},
{
closed = 1;
nodes = (
"312 62 OFFCURVE",
"380 215 OFFCURVE",
"452 351 CURVE",
"401 353 LINE",
"337 226 OFFCURVE",
"285 120 OFFCURVE",
"257 65 CURVE",
"257 65 OFFCURVE",
"262 132 OFFCURVE",
"255 159 CURVE SMOOTH",
"238 233 OFFCURVE",
"225 279 OFFCURVE",
"207 354 CURVE SMOOTH",
"192 413 OFFCURVE",
"237 417 OFFCURVE",
"280 417 CURVE",
"272 459 LINE",
"190 454 OFFCURVE",
"138 452 OFFCURVE",
"46 459 CURVE",
"48 410 LINE",
"84 410 OFFCURVE",
"105 405 OFFCURVE",
"117 356 CURVE SMOOTH",
"162 172 OFFCURVE",
"187 74 OFFCURVE",
"209 -12 CURVE",
"280 1 LINE"
);
}
);
width = 751;
}
);
unicode = 0077;
},
{
glyphname = x;
lastChange = "2018-09-12 15:08:21 +0000";
layers = (
{
layerId = "51BB9282-3B82-4DF1-A67A-294D3E37D73A";
paths = (
{
closed = 1;
nodes = (
"467 45 LINE",
"442 45 OFFCURVE",
"422 55 OFFCURVE",
"393 90 CURVE SMOOTH",
"349 143 OFFCURVE",
"305 213 OFFCURVE",
"279 248 CURVE SMOOTH",
"268 262 LINE",
"244 296 OFFCURVE",
"216 341 OFFCURVE",
"200 368 CURVE SMOOTH",
"182 400 OFFCURVE",
"192 417 OFFCURVE",
"236 417 CURVE",
"228 460 LINE",
"169 456 OFFCURVE",
"100 456 OFFCURVE",
"25 460 CURVE",
"29 416 LINE",
"59 417 OFFCURVE",
"83 409 OFFCURVE",
"112 363 CURVE SMOOTH",
"145 310 OFFCURVE",
"181 259 OFFCURVE",
"205 219 CURVE",
"211 219 LINE",
"243 182 OFFCURVE",
"275 126 OFFCURVE",
"302 89 CURVE SMOOTH",
"330 51 OFFCURVE",
"302 40 OFFCURVE",
"259 41 CURVE",
"266 -2 LINE",
"479 -2 LINE"
);
},
{
closed = 1;
nodes = (
"206 39 LINE",
"152 36 OFFCURVE",
"158 61 OFFCURVE",
"176 88 CURVE SMOOTH",
"201 127 OFFCURVE",
"236 182 OFFCURVE",
"266 216 CURVE",
"274 222 LINE",
"297 253 OFFCURVE",
"341 312 OFFCURVE",
"377 358 CURVE SMOOTH",
"403 393 OFFCURVE",
"424 417 OFFCURVE",
"466 419 CURVE",
"460 460 LINE",
"407 457 OFFCURVE",
"336 457 OFFCURVE",
"276 461 CURVE",
"285 417 LINE",
"332 416 OFFCURVE",
"333 394 OFFCURVE",
"323 375 CURVE SMOOTH",
"301 338 OFFCURVE",
"263 291 OFFCURVE",
"231 249 CURVE",
"220 243 LINE",
"188 196 OFFCURVE",
"133 115 OFFCURVE",
"112 88 CURVE SMOOTH",
"92 64 OFFCURVE",
"65 41 OFFCURVE",
"24 42 CURVE",
"31 -2 LINE",
"216 -2 LINE"
);
}
);
width = 495;
},
{
layerId = "8B9D8DF0-167E-4E5A-BF63-AC43D342B811";
paths = (
{
closed = 1;
nodes = (
"471 45 LINE",
"446 45 OFFCURVE",
"427 55 OFFCURVE",
"401 90 CURVE SMOOTH",
"362 143 OFFCURVE",
"324 213 OFFCURVE",
"301 248 CURVE SMOOTH",
"291 262 LINE",
"270 296 OFFCURVE",
"246 341 OFFCURVE",
"232 368 CURVE SMOOTH",
"217 400 OFFCURVE",
"229 417 OFFCURVE",
"273 417 CURVE",
"268 460 LINE",
"209 456 OFFCURVE",
"140 456 OFFCURVE",
"65 460 CURVE",
"66 416 LINE",
"96 417 OFFCURVE",
"119 409 OFFCURVE",
"144 363 CURVE SMOOTH",
"172 310 OFFCURVE",
"204 259 OFFCURVE",
"224 219 CURVE",
"230 219 LINE",
"259 182 OFFCURVE",
"286 126 OFFCURVE",
"310 89 CURVE SMOOTH",
"335 51 OFFCURVE",
"306 40 OFFCURVE",
"263 41 CURVE",
"266 -2 LINE",
"479 -2 LINE"
);
},
{
closed = 1;
nodes = (
"210 39 LINE",
"155 36 OFFCURVE",
"164 61 OFFCURVE",
"184 88 CURVE SMOOTH",
"212 127 OFFCURVE",
"252 182 OFFCURVE",
"285 216 CURVE",
"294 222 LINE",
"319 253 OFFCURVE",
"368 312 OFFCURVE",
"408 358 CURVE SMOOTH",
"438 393 OFFCURVE",
"461 417 OFFCURVE",
"503 419 CURVE",
"500 460 LINE",
"447 457 OFFCURVE",
"376 457 OFFCURVE",
"317 461 CURVE",
"322 417 LINE",
"369 416 OFFCURVE",
"368 394 OFFCURVE",
"356 375 CURVE SMOOTH",
"331 338 OFFCURVE",
"289 291 OFFCURVE",
"253 249 CURVE",
"241 243 LINE",
"205 196 OFFCURVE",
"143 115 OFFCURVE",
"120 88 CURVE SMOOTH",
"98 64 OFFCURVE",
"69 41 OFFCURVE",
"28 42 CURVE",
"31 -2 LINE",
"216 -2 LINE"
);
}
);
width = 495;
}
);
unicode = 0078;
},
{
glyphname = y;
lastChange = "2018-09-12 15:08:21 +0000";
layers = (
{
layerId = "51BB9282-3B82-4DF1-A67A-294D3E37D73A";
paths = (
{
closed = 1;
nodes = (
"270 10 OFFCURVE",
"293 12 CURVE",
"321 74 OFFCURVE",
"379 215 OFFCURVE",
"437 351 CURVE SMOOTH",
"454 390 OFFCURVE",
"459 413 OFFCURVE",
"513 414 CURVE",
"504 459 LINE",
"430 456 OFFCURVE",
"371 454 OFFCURVE",
"296 459 CURVE",
"303 410 LINE",
"356 413 OFFCURVE",
"387 399 OFFCURVE",
"373 353 CURVE SMOOTH",
"347 272 OFFCURVE",
"281 109 OFFCURVE",
"255 54 CURVE",
"255 54 OFFCURVE",
"239 129 OFFCURVE",
"231 156 CURVE SMOOTH",
"207 229 OFFCURVE",
"188 280 OFFCURVE",
"166 354 CURVE SMOOTH",
"151 403 OFFCURVE",
"191 413 OFFCURVE",
"249 417 CURVE",
"239 459 LINE",
"151 457 OFFCURVE",
"85 455 OFFCURVE",
"-2 459 CURVE",
"4 414 LINE",
"40 415 OFFCURVE",
"64 405 OFFCURVE",
"80 356 CURVE SMOOTH",
"140 172 OFFCURVE",
"172 80 OFFCURVE",
"202 -6 CURVE",
"228 -3 OFFCURVE"
);
},
{
closed = 1;
nodes = (
"189 -185 OFFCURVE",
"230 -122 CURVE SMOOTH",
"256 -82 OFFCURVE",
"284 -7 OFFCURVE",
"304 39 CURVE",
"252 43 LINE",
"218 -30 OFFCURVE",
"182 -129 OFFCURVE",
"33 -110 CURVE",
"25 -126 OFFCURVE",
"19 -178 OFFCURVE",
"49 -203 CURVE",
"114 -206 OFFCURVE"
);
}
);
width = 512;
},
{
layerId = "8B9D8DF0-167E-4E5A-BF63-AC43D342B811";
paths = (
{
closed = 1;
nodes = (
"289 10 OFFCURVE",
"312 12 CURVE",
"345 74 OFFCURVE",
"416 215 OFFCURVE",
"485 351 CURVE SMOOTH",
"506 390 OFFCURVE",
"513 413 OFFCURVE",
"567 414 CURVE",
"562 459 LINE",
"488 456 OFFCURVE",
"429 454 OFFCURVE",
"354 459 CURVE",
"357 410 LINE",
"410 413 OFFCURVE",
"440 399 OFFCURVE",
"422 353 CURVE SMOOTH",
"389 272 OFFCURVE",
"308 109 OFFCURVE",
"278 54 CURVE",
"278 54 OFFCURVE",
"268 129 OFFCURVE",
"262 156 CURVE SMOOTH",
"245 229 OFFCURVE",
"230 280 OFFCURVE",
"215 354 CURVE SMOOTH",
"204 403 OFFCURVE",
"245 413 OFFCURVE",
"303 417 CURVE",
"297 459 LINE",
"209 457 OFFCURVE",
"143 455 OFFCURVE",
"56 459 CURVE",
"58 414 LINE",
"94 415 OFFCURVE",
"117 405 OFFCURVE",
"129 356 CURVE SMOOTH",
"173 172 OFFCURVE",
"197 80 OFFCURVE",
"219 -6 CURVE",
"246 -3 OFFCURVE"
);
},
{
closed = 1;
nodes = (
"191 -185 OFFCURVE",
"237 -122 CURVE SMOOTH",
"267 -82 OFFCURVE",
"301 -7 OFFCURVE",
"325 39 CURVE",
"274 43 LINE",
"233 -30 OFFCURVE",
"188 -129 OFFCURVE",
"41 -110 CURVE",
"32 -126 OFFCURVE",
"21 -178 OFFCURVE",
"49 -203 CURVE",
"114 -206 OFFCURVE"
);
}
);
width = 512;
}
);
unicode = 0079;
},
{
glyphname = z;
lastChange = "2018-09-12 15:08:21 +0000";
layers = (
{
layerId = "51BB9282-3B82-4DF1-A67A-294D3E37D73A";
paths = (
{
closed = 1;
nodes = (
"413 42 OFFCURVE",
"414 91 OFFCURVE",
"413 139 CURVE",
"411 139 OFFCURVE",
"375 135 OFFCURVE",
"367 135 CURVE",
"367 96 OFFCURVE",
"361 62 OFFCURVE",
"350 60 CURVE SMOOTH",
"293 51 OFFCURVE",
"237 52 OFFCURVE",
"230 52 CURVE SMOOTH",
"146 52 OFFCURVE",
"156 68 OFFCURVE",
"186 116 CURVE SMOOTH",
"201 139 OFFCURVE",
"373 378 OFFCURVE",
"416 420 CURVE",
"411 460 LINE",
"355 457 OFFCURVE",
"172 453 OFFCURVE",
"54 460 CURVE",
"50 417 OFFCURVE",
"49 363 OFFCURVE",
"52 322 CURVE",
"99 326 LINE",
"98 342 OFFCURVE",
"105 387 OFFCURVE",
"114 401 CURVE",
"151 407 OFFCURVE",
"252 411 OFFCURVE",
"295 404 CURVE",
"263 349 OFFCURVE",
"111 129 OFFCURVE",
"28 45 CURVE",
"33 0 LINE",
"403 0 LINE"
);
}
);
width = 438;
},
{
layerId = "8B9D8DF0-167E-4E5A-BF63-AC43D342B811";
paths = (
{
closed = 1;
nodes = (
"417 42 OFFCURVE",
"422 91 OFFCURVE",
"425 139 CURVE",
"423 139 OFFCURVE",
"387 135 OFFCURVE",
"379 135 CURVE",
"375 96 OFFCURVE",
"366 62 OFFCURVE",
"355 60 CURVE SMOOTH",
"297 51 OFFCURVE",
"242 52 OFFCURVE",
"235 52 CURVE SMOOTH",
"151 52 OFFCURVE",
"162 68 OFFCURVE",
"196 116 CURVE SMOOTH",
"213 139 OFFCURVE",
"406 378 OFFCURVE",
"453 420 CURVE",
"451 460 LINE",
"395 457 OFFCURVE",
"212 453 OFFCURVE",
"94 460 CURVE",
"86 417 OFFCURVE",
"81 363 OFFCURVE",
"80 322 CURVE",
"128 326 LINE",
"128 342 OFFCURVE",
"139 387 OFFCURVE",
"149 401 CURVE",
"187 407 OFFCURVE",
"288 411 OFFCURVE",
"330 404 CURVE",
"294 349 OFFCURVE",
"122 129 OFFCURVE",
"32 45 CURVE",
"33 0 LINE",
"403 0 LINE"
);
}
);
width = 438;
}
);
unicode = 007A;
},
{
glyphname = f_f;
lastChange = "2018-09-12 15:08:21 +0000";
layers = (
{
layerId = "51BB9282-3B82-4DF1-A67A-294D3E37D73A";
paths = (
{
closed = 1;
nodes = (
"567 42 LINE",
"517 40 OFFCURVE",
"488 69 OFFCURVE",
"484 140 CURVE SMOOTH",
"477 238 OFFCURVE",
"480 381 OFFCURVE",
"482 486 CURVE SMOOTH",
"484 586 OFFCURVE",
"504 618 OFFCURVE",
"539 622 CURVE SMOOTH",
"596 628 OFFCURVE",
"640 571 OFFCURVE",
"671 522 CURVE",
"688 553 OFFCURVE",
"705 609 OFFCURVE",
"705 651 CURVE",
"705 651 OFFCURVE",
"656 668 OFFCURVE",
"606 668 CURVE SMOOTH",
"515 668 OFFCURVE",
"403 624 OFFCURVE",
"403 449 CURVE SMOOTH",
"403 447 OFFCURVE",
"402 437 OFFCURVE",
"402 436 CURVE",
"403 424 OFFCURVE",
"400 412 OFFCURVE",
"400 400 CURVE SMOOTH",
"400 314 OFFCURVE",
"404 242 OFFCURVE",
"404 169 CURVE SMOOTH",
"404 87 OFFCURVE",
"409 42 OFFCURVE",
"319 47 CURVE",
"324 0 LINE",
"575 0 LINE"
);
},
{
closed = 1;
nodes = (
"268 42 LINE",
"217 40 OFFCURVE",
"189 69 OFFCURVE",
"184 140 CURVE SMOOTH",
"178 249 OFFCURVE",
"181 400 OFFCURVE",
"182 517 CURVE SMOOTH",
"184 617 OFFCURVE",
"205 649 OFFCURVE",
"239 653 CURVE SMOOTH",
"296 659 OFFCURVE",
"340 601 OFFCURVE",
"372 553 CURVE",
"388 584 OFFCURVE",
"405 640 OFFCURVE",
"405 682 CURVE",
"405 682 OFFCURVE",
"357 699 OFFCURVE",
"306 699 CURVE SMOOTH",
"216 700 OFFCURVE",
"105 655 OFFCURVE",
"103 480 CURVE SMOOTH",
"103 464 OFFCURVE",
"102 450 OFFCURVE",
"102 436 CURVE",
"103 424 OFFCURVE",
"101 412 OFFCURVE",
"101 400 CURVE SMOOTH",
"103 314 OFFCURVE",
"105 242 OFFCURVE",
"105 169 CURVE SMOOTH",
"105 87 OFFCURVE",
"109 42 OFFCURVE",
"19 47 CURVE",
"25 0 LINE",
"276 0 LINE"
);
},
{
closed = 1;
nodes = (
"290 451 OFFCURVE",
"286 451 CURVE SMOOTH",
"186 451 OFFCURVE",
"126 449 OFFCURVE",
"23 453 CURVE",
"31 400 LINE",
"68 400 OFFCURVE",
"125 390 OFFCURVE",
"126 339 CURVE",
"158 388 LINE",
"290 390 LINE",
"310 391 OFFCURVE",
"401 385 OFFCURVE",
"425 383 CURVE",
"457 388 LINE",
"605 402 LINE",
"595 453 LINE",
"501 449 OFFCURVE"
);
}
);
width = 676;
},
{
layerId = "8B9D8DF0-167E-4E5A-BF63-AC43D342B811";
paths = (
{
closed = 1;
nodes = (
"571 42 LINE",
"520 40 OFFCURVE",
"494 69 OFFCURVE",
"496 140 CURVE SMOOTH",
"498 238 OFFCURVE",
"513 381 OFFCURVE",
"525 486 CURVE SMOOTH",
"535 586 OFFCURVE",
"558 618 OFFCURVE",
"593 622 CURVE SMOOTH",
"651 628 OFFCURVE",
"690 571 OFFCURVE",
"717 522 CURVE",
"736 553 OFFCURVE",
"758 609 OFFCURVE",
"762 651 CURVE",
"762 651 OFFCURVE",
"714 668 OFFCURVE",
"664 668 CURVE SMOOTH",
"573 668 OFFCURVE",
"458 624 OFFCURVE",
"442 449 CURVE SMOOTH",
"442 447 OFFCURVE",
"440 437 OFFCURVE",
"440 436 CURVE",
"440 424 OFFCURVE",
"436 412 OFFCURVE",
"435 400 CURVE SMOOTH",
"427 314 OFFCURVE",
"425 242 OFFCURVE",
"419 169 CURVE SMOOTH",
"412 87 OFFCURVE",
"413 42 OFFCURVE",
"323 47 CURVE",
"324 0 LINE",
"575 0 LINE"
);
},
{
closed = 1;
nodes = (
"272 42 LINE",
"220 40 OFFCURVE",
"195 69 OFFCURVE",
"196 140 CURVE SMOOTH",
"200 249 OFFCURVE",
"216 400 OFFCURVE",
"227 517 CURVE SMOOTH",
"238 617 OFFCURVE",
"262 649 OFFCURVE",
"296 653 CURVE SMOOTH",
"354 659 OFFCURVE",
"393 601 OFFCURVE",
"420 553 CURVE",
"439 584 OFFCURVE",
"461 640 OFFCURVE",
"465 682 CURVE",
"465 682 OFFCURVE",
"418 699 OFFCURVE",
"367 699 CURVE SMOOTH",
"277 700 OFFCURVE",
"162 655 OFFCURVE",
"145 480 CURVE SMOOTH",
"144 464 OFFCURVE",
"141 450 OFFCURVE",
"140 436 CURVE",
"140 424 OFFCURVE",
"137 412 OFFCURVE",
"136 400 CURVE SMOOTH",
"130 314 OFFCURVE",
"126 242 OFFCURVE",
"120 169 CURVE SMOOTH",
"113 87 OFFCURVE",
"113 42 OFFCURVE",
"23 47 CURVE",
"25 0 LINE",
"276 0 LINE"
);
},
{
closed = 1;
nodes = (
"329 451 OFFCURVE",
"325 451 CURVE SMOOTH",
"225 451 OFFCURVE",
"165 449 OFFCURVE",
"63 453 CURVE",
"66 400 LINE",
"103 400 OFFCURVE",
"159 390 OFFCURVE",
"156 339 CURVE",
"192 388 LINE",
"324 390 LINE",
"344 391 OFFCURVE",
"435 385 OFFCURVE",
"459 383 CURVE",
"491 388 LINE",
"640 402 LINE",
"635 453 LINE",
"540 449 OFFCURVE"
);
}
);
width = 676;
}
);
leftMetricsKey = f;
rightMetricsKey = f;
},
{
glyphname = f_f_i;
lastChange = "2018-09-12 15:08:21 +0000";
layers = (
{
components = (
{
name = f_f;
}
);
layerId = "51BB9282-3B82-4DF1-A67A-294D3E37D73A";
paths = (
{
closed = 1;
nodes = (
"872 39 LINE",
"868 39 LINE SMOOTH",
"824 39 OFFCURVE",
"802 56 OFFCURVE",
"801 132 CURVE SMOOTH",
"798 210 OFFCURVE",
"805 350 OFFCURVE",
"820 476 CURVE",
"820 476 OFFCURVE",
"655 450 OFFCURVE",
"591 452 CURVE",
"596 402 LINE",
"656 402 OFFCURVE",
"718 400 OFFCURVE",
"721 366 CURVE",
"723 313 OFFCURVE",
"724 256 OFFCURVE",
"724 195 CURVE SMOOTH",
"724 160 OFFCURVE",
"721 126 OFFCURVE",
"717 105 CURVE",
"712 68 OFFCURVE",
"688 47 OFFCURVE",
"638 47 CURVE SMOOTH",
"628 47 LINE",
"636 0 LINE",
"880 0 LINE"
);
}
);
width = 908;
},
{
components = (
{
name = f_f;
transform = "{1, 0, 0.08749, 1, 0, 0}";
}
);
layerId = "8B9D8DF0-167E-4E5A-BF63-AC43D342B811";
paths = (
{
closed = 1;
nodes = (
"875 39 LINE",
"871 39 LINE SMOOTH",
"827 39 OFFCURVE",
"807 56 OFFCURVE",
"813 132 CURVE SMOOTH",
"816 210 OFFCURVE",
"836 350 OFFCURVE",
"862 476 CURVE",
"862 476 OFFCURVE",
"694 450 OFFCURVE",
"631 452 CURVE",
"631 402 LINE",
"691 402 OFFCURVE",
"753 400 OFFCURVE",
"753 366 CURVE",
"750 313 OFFCURVE",
"746 256 OFFCURVE",
"741 195 CURVE SMOOTH",
"738 160 OFFCURVE",
"732 126 OFFCURVE",
"726 105 CURVE",
"718 68 OFFCURVE",
"692 47 OFFCURVE",
"642 47 CURVE SMOOTH",
"632 47 LINE",
"636 0 LINE",
"880 0 LINE"
);
}
);
width = 908;
}
);
leftMetricsKey = f;
rightMetricsKey = i;
},
{
glyphname = f_f_l;
lastChange = "2018-09-12 15:08:21 +0000";
layers = (
{
layerId = "51BB9282-3B82-4DF1-A67A-294D3E37D73A";
paths = (
{
closed = 1;
nodes = (
"567 42 LINE",
"517 40 OFFCURVE",
"488 69 OFFCURVE",
"484 140 CURVE SMOOTH",
"477 238 OFFCURVE",
"480 381 OFFCURVE",
"482 486 CURVE SMOOTH",
"484 586 OFFCURVE",
"527 618 OFFCURVE",
"585 622 CURVE SMOOTH",
"642 626 OFFCURVE",
"698 578 OFFCURVE",
"729 530 CURVE",
"745 561 OFFCURVE",
"820 586 OFFCURVE",
"820 628 CURVE",
"820 628 OFFCURVE",
"679 668 OFFCURVE",
"606 668 CURVE SMOOTH",
"515 668 OFFCURVE",
"403 624 OFFCURVE",
"403 449 CURVE SMOOTH",
"403 447 OFFCURVE",
"402 437 OFFCURVE",
"402 436 CURVE",
"403 424 OFFCURVE",
"400 412 OFFCURVE",
"400 400 CURVE SMOOTH",
"400 314 OFFCURVE",
"404 242 OFFCURVE",
"404 169 CURVE SMOOTH",
"404 87 OFFCURVE",
"409 42 OFFCURVE",
"319 47 CURVE",
"324 0 LINE",
"575 0 LINE"
);
},
{
closed = 1;
nodes = (
"268 42 LINE",
"217 40 OFFCURVE",
"189 69 OFFCURVE",
"184 140 CURVE SMOOTH",
"178 249 OFFCURVE",
"181 400 OFFCURVE",
"182 517 CURVE SMOOTH",
"184 617 OFFCURVE",
"205 649 OFFCURVE",
"239 653 CURVE SMOOTH",
"296 659 OFFCURVE",
"340 601 OFFCURVE",
"372 553 CURVE",
"388 584 OFFCURVE",
"405 640 OFFCURVE",
"405 682 CURVE",
"405 682 OFFCURVE",
"357 699 OFFCURVE",
"306 699 CURVE SMOOTH",
"216 700 OFFCURVE",
"105 655 OFFCURVE",
"103 480 CURVE SMOOTH",
"103 464 OFFCURVE",
"102 450 OFFCURVE",
"102 436 CURVE",
"103 424 OFFCURVE",
"101 412 OFFCURVE",
"101 400 CURVE SMOOTH",
"103 314 OFFCURVE",
"105 242 OFFCURVE",
"105 169 CURVE SMOOTH",
"105 87 OFFCURVE",
"109 42 OFFCURVE",
"19 47 CURVE",
"25 0 LINE",
"276 0 LINE"
);
},
{
closed = 1;
nodes = (
"290 451 OFFCURVE",
"286 451 CURVE SMOOTH",
"186 451 OFFCURVE",
"126 449 OFFCURVE",
"23 453 CURVE",
"31 400 LINE",
"68 400 OFFCURVE",
"125 390 OFFCURVE",
"126 339 CURVE",
"158 388 LINE",
"290 390 LINE",
"310 391 OFFCURVE",
"401 385 OFFCURVE",
"425 383 CURVE",
"457 388 LINE",
"605 402 LINE",
"595 453 LINE",
"501 449 OFFCURVE"
);
},
{
closed = 1;
nodes = (
"880 39 LINE",
"875 39 LINE SMOOTH",
"832 39 OFFCURVE",
"809 56 OFFCURVE",
"809 132 CURVE SMOOTH",
"806 250 OFFCURVE",
"805 505 OFFCURVE",
"820 631 CURVE",
"820 631 OFFCURVE",
"701 637 OFFCURVE",
"637 638 CURVE",
"642 628 LINE",
"702 628 OFFCURVE",
"725 588 OFFCURVE",
"729 554 CURVE",
"731 498 OFFCURVE",
"732 435 OFFCURVE",
"732 372 CURVE SMOOTH",
"732 270 OFFCURVE",
"729 169 OFFCURVE",
"725 105 CURVE",
"720 68 OFFCURVE",
"695 47 OFFCURVE",
"645 47 CURVE SMOOTH",
"636 47 LINE",
"644 0 LINE",
"888 0 LINE"
);
}
);
width = 914;
},
{
layerId = "8B9D8DF0-167E-4E5A-BF63-AC43D342B811";
paths = (
{
closed = 1;
nodes = (
"571 42 LINE",
"520 40 OFFCURVE",
"494 69 OFFCURVE",
"496 140 CURVE SMOOTH",
"498 238 OFFCURVE",
"513 381 OFFCURVE",
"525 486 CURVE SMOOTH",
"535 586 OFFCURVE",
"581 618 OFFCURVE",
"639 622 CURVE SMOOTH",
"697 626 OFFCURVE",
"749 578 OFFCURVE",
"775 530 CURVE",
"794 561 OFFCURVE",
"871 586 OFFCURVE",
"875 628 CURVE",
"875 628 OFFCURVE",
"737 668 OFFCURVE",
"664 668 CURVE SMOOTH",
"573 668 OFFCURVE",
"458 624 OFFCURVE",
"442 449 CURVE SMOOTH",
"442 447 OFFCURVE",
"440 437 OFFCURVE",
"440 436 CURVE",
"440 424 OFFCURVE",
"436 412 OFFCURVE",
"435 400 CURVE SMOOTH",
"427 314 OFFCURVE",
"425 242 OFFCURVE",
"419 169 CURVE SMOOTH",
"412 87 OFFCURVE",
"413 42 OFFCURVE",
"323 47 CURVE",
"324 0 LINE",
"575 0 LINE"
);
},
{
closed = 1;
nodes = (
"272 42 LINE",
"220 40 OFFCURVE",
"195 69 OFFCURVE",
"196 140 CURVE SMOOTH",
"200 249 OFFCURVE",
"216 400 OFFCURVE",
"227 517 CURVE SMOOTH",
"238 617 OFFCURVE",
"262 649 OFFCURVE",
"296 653 CURVE SMOOTH",
"354 659 OFFCURVE",
"393 601 OFFCURVE",
"420 553 CURVE",
"439 584 OFFCURVE",
"461 640 OFFCURVE",
"465 682 CURVE",
"465 682 OFFCURVE",
"418 699 OFFCURVE",
"367 699 CURVE SMOOTH",
"277 700 OFFCURVE",
"162 655 OFFCURVE",
"145 480 CURVE SMOOTH",
"144 464 OFFCURVE",
"141 450 OFFCURVE",
"140 436 CURVE",
"140 424 OFFCURVE",
"137 412 OFFCURVE",
"136 400 CURVE SMOOTH",
"130 314 OFFCURVE",
"126 242 OFFCURVE",
"120 169 CURVE SMOOTH",
"113 87 OFFCURVE",
"113 42 OFFCURVE",
"23 47 CURVE",
"25 0 LINE",
"276 0 LINE"
);
},
{
closed = 1;
nodes = (
"329 451 OFFCURVE",
"325 451 CURVE SMOOTH",
"225 451 OFFCURVE",
"165 449 OFFCURVE",
"63 453 CURVE",
"66 400 LINE",
"103 400 OFFCURVE",
"159 390 OFFCURVE",
"156 339 CURVE",
"192 388 LINE",
"324 390 LINE",
"344 391 OFFCURVE",
"435 385 OFFCURVE",
"459 383 CURVE",
"491 388 LINE",
"640 402 LINE",
"635 453 LINE",
"540 449 OFFCURVE"
);
},
{
closed = 1;
nodes = (
"883 39 LINE",
"878 39 LINE SMOOTH",
"835 39 OFFCURVE",
"814 56 OFFCURVE",
"821 132 CURVE SMOOTH",
"828 250 OFFCURVE",
"849 505 OFFCURVE",
"875 631 CURVE",
"875 631 OFFCURVE",
"757 637 OFFCURVE",
"693 638 CURVE",
"697 628 LINE",
"757 628 OFFCURVE",
"776 588 OFFCURVE",
"777 554 CURVE",
"775 498 OFFCURVE",
"770 435 OFFCURVE",
"765 372 CURVE SMOOTH",
"756 270 OFFCURVE",
"744 169 OFFCURVE",
"734 105 CURVE",
"726 68 OFFCURVE",
"699 47 OFFCURVE",
"649 47 CURVE SMOOTH",
"640 47 LINE",
"644 0 LINE",
"888 0 LINE"
);
}
);
width = 914;
}
);
leftMetricsKey = f;
rightMetricsKey = "=l";
},
{
glyphname = fi;
lastChange = "2018-09-12 15:08:21 +0000";
layers = (
{
layerId = "51BB9282-3B82-4DF1-A67A-294D3E37D73A";
paths = (
{
closed = 1;
nodes = (
"268 42 LINE",
"217 40 OFFCURVE",
"189 69 OFFCURVE",
"184 140 CURVE SMOOTH",
"178 249 OFFCURVE",
"181 400 OFFCURVE",
"182 517 CURVE SMOOTH",
"184 617 OFFCURVE",
"205 649 OFFCURVE",
"239 653 CURVE SMOOTH",
"296 659 OFFCURVE",
"340 601 OFFCURVE",
"372 553 CURVE",
"388 584 OFFCURVE",
"405 640 OFFCURVE",
"405 682 CURVE",
"405 682 OFFCURVE",
"357 699 OFFCURVE",
"306 699 CURVE SMOOTH",
"216 700 OFFCURVE",
"105 655 OFFCURVE",
"103 480 CURVE SMOOTH",
"103 464 OFFCURVE",
"102 450 OFFCURVE",
"102 436 CURVE",
"103 424 OFFCURVE",
"101 412 OFFCURVE",
"101 400 CURVE SMOOTH",
"103 314 OFFCURVE",
"105 242 OFFCURVE",
"105 169 CURVE SMOOTH",
"105 87 OFFCURVE",
"109 42 OFFCURVE",
"19 47 CURVE",
"25 0 LINE",
"276 0 LINE"
);
},
{
closed = 1;
nodes = (
"306 402 LINE",
"296 453 LINE",
"195 449 OFFCURVE",
"132 449 OFFCURVE",
"23 453 CURVE",
"31 400 LINE",
"68 400 OFFCURVE",
"125 390 OFFCURVE",
"126 339 CURVE",
"158 388 LINE"
);
},
{
closed = 1;
nodes = (
"611 39 LINE",
"587 39 OFFCURVE",
"539 45 OFFCURVE",
"539 118 CURVE SMOOTH",
"539 167 OFFCURVE",
"538 308 OFFCURVE",
"558 470 CURVE",
"558 470 OFFCURVE",
"431 452 OFFCURVE",
"367 454 CURVE",
"373 405 LINE",
"433 405 OFFCURVE",
"459 403 OFFCURVE",
"460 363 CURVE SMOOTH",
"464 238 OFFCURVE",
"462 166 OFFCURVE",
"456 111 CURVE SMOOTH",
"451 68 OFFCURVE",
"424 44 OFFCURVE",
"367 47 CURVE",
"374 0 LINE",
"618 0 LINE"
);
}
);
width = 692;
},
{
layerId = "8B9D8DF0-167E-4E5A-BF63-AC43D342B811";
paths = (
{
closed = 1;
nodes = (
"272 42 LINE",
"220 40 OFFCURVE",
"195 69 OFFCURVE",
"196 140 CURVE SMOOTH",
"200 249 OFFCURVE",
"216 400 OFFCURVE",
"227 517 CURVE SMOOTH",
"238 617 OFFCURVE",
"262 649 OFFCURVE",
"296 653 CURVE SMOOTH",
"354 659 OFFCURVE",
"393 601 OFFCURVE",
"420 553 CURVE",
"439 584 OFFCURVE",
"461 640 OFFCURVE",
"465 682 CURVE",
"465 682 OFFCURVE",
"418 699 OFFCURVE",
"367 699 CURVE SMOOTH",
"277 700 OFFCURVE",
"162 655 OFFCURVE",
"145 480 CURVE SMOOTH",
"144 464 OFFCURVE",
"141 450 OFFCURVE",
"140 436 CURVE",
"140 424 OFFCURVE",
"137 412 OFFCURVE",
"136 400 CURVE SMOOTH",
"130 314 OFFCURVE",
"126 242 OFFCURVE",
"120 169 CURVE SMOOTH",
"113 87 OFFCURVE",
"113 42 OFFCURVE",
"23 47 CURVE",
"25 0 LINE",
"276 0 LINE"
);
},
{
closed = 1;
nodes = (
"341 402 LINE",
"336 453 LINE",
"234 449 OFFCURVE",
"171 449 OFFCURVE",
"63 453 CURVE",
"66 400 LINE",
"103 400 OFFCURVE",
"159 390 OFFCURVE",
"156 339 CURVE",
"192 388 LINE"
);
},
{
closed = 1;
nodes = (
"614 39 LINE",
"590 39 OFFCURVE",
"543 45 OFFCURVE",
"549 118 CURVE SMOOTH",
"554 167 OFFCURVE",
"565 308 OFFCURVE",
"599 470 CURVE",
"599 470 OFFCURVE",
"471 452 OFFCURVE",
"407 454 CURVE",
"408 405 LINE",
"468 405 OFFCURVE",
"494 403 OFFCURVE",
"492 363 CURVE SMOOTH",
"485 238 OFFCURVE",
"477 166 OFFCURVE",
"466 111 CURVE SMOOTH",
"457 68 OFFCURVE",
"428 44 OFFCURVE",
"371 47 CURVE",
"374 0 LINE",
"618 0 LINE"
);
}
);
width = 692;
}
);
unicode = FB01;
},
{
glyphname = A.sc;
lastChange = "2018-09-12 15:08:21 +0000";
layers = (
{
layerId = "51BB9282-3B82-4DF1-A67A-294D3E37D73A";
paths = (
{
closed = 1;
nodes = (
"226 33 LINE",
"196 32 OFFCURVE",
"150 32 OFFCURVE",
"164 95 CURVE SMOOTH",
"173 137 OFFCURVE",
"234 313 OFFCURVE",
"273 450 CURVE",
"278 423 OFFCURVE",
"288 387 OFFCURVE",
"293 361 CURVE",
"322 266 OFFCURVE",
"370 163 OFFCURVE",
"392 81 CURVE SMOOTH",
"403 42 OFFCURVE",
"376 35 OFFCURVE",
"330 35 CURVE",
"336 0 LINE",
"561 0 LINE",
"555 36 LINE",
"511 35 OFFCURVE",
"497 68 OFFCURVE",
"486 98 CURVE SMOOTH",
"420 273 OFFCURVE",
"375 393 OFFCURVE",
"335 530 CURVE",
"310 521 OFFCURVE",
"259 514 OFFCURVE",
"233 510 CURVE",
"197 389 OFFCURVE",
"152 246 OFFCURVE",
"92 89 CURVE SMOOTH",
"79 56 OFFCURVE",
"62 41 OFFCURVE",
"16 40 CURVE",
"23 0 LINE",
"233 0 LINE"
);
},
{
closed = 1;
nodes = (
"389 223 LINE",
"177 223 LINE",
"177 171 LINE",
"389 171 LINE"
);
}
);
width = 579;
},
{
layerId = "8B9D8DF0-167E-4E5A-BF63-AC43D342B811";
paths = (
{
closed = 1;
nodes = (
"229 33 LINE",
"199 32 OFFCURVE",
"153 32 OFFCURVE",
"172 95 CURVE SMOOTH",
"185 137 OFFCURVE",
"261 313 OFFCURVE",
"312 450 CURVE",
"315 423 OFFCURVE",
"322 387 OFFCURVE",
"325 361 CURVE",
"345 266 OFFCURVE",
"384 163 OFFCURVE",
"399 81 CURVE SMOOTH",
"407 42 OFFCURVE",
"379 35 OFFCURVE",
"333 35 CURVE",
"336 0 LINE",
"561 0 LINE",
"558 36 LINE",
"514 35 OFFCURVE",
"503 68 OFFCURVE",
"495 98 CURVE SMOOTH",
"444 273 OFFCURVE",
"409 393 OFFCURVE",
"381 530 CURVE",
"356 521 OFFCURVE",
"304 514 OFFCURVE",
"278 510 CURVE",
"231 389 OFFCURVE",
"174 246 OFFCURVE",
"100 89 CURVE SMOOTH",
"84 56 OFFCURVE",
"66 41 OFFCURVE",
"19 40 CURVE",
"23 0 LINE",
"233 0 LINE"
);
},
{
closed = 1;
nodes = (
"409 223 LINE",
"197 223 LINE",
"192 171 LINE",
"404 171 LINE"
);
}
);
width = 579;
}
);
},
{
glyphname = B.sc;
lastChange = "2018-09-12 15:08:21 +0000";
layers = (
{
layerId = "51BB9282-3B82-4DF1-A67A-294D3E37D73A";
paths = (
{
closed = 1;
nodes = (
"374 0 OFFCURVE",
"482 32 OFFCURVE",
"484 144 CURVE SMOOTH",
"484 212 OFFCURVE",
"434 276 OFFCURVE",
"356 286 CURVE",
"335 270 LINE",
"403 273 OFFCURVE",
"448 340 OFFCURVE",
"447 402 CURVE SMOOTH",
"447 483 OFFCURVE",
"383 526 OFFCURVE",
"295 526 CURVE SMOOTH",
"196 526 OFFCURVE",
"161 514 OFFCURVE",
"38 523 CURVE",
"45 481 LINE",
"105 486 OFFCURVE",
"116 449 OFFCURVE",
"118 411 CURVE SMOOTH",
"122 306 OFFCURVE",
"121 224 OFFCURVE",
"115 83 CURVE SMOOTH",
"114 51 OFFCURVE",
"93 34 OFFCURVE",
"42 40 CURVE",
"49 0 LINE",
"269 0 LINE SMOOTH"
);
},
{
closed = 1;
nodes = (
"209 42 OFFCURVE",
"206 81 CURVE",
"199 129 OFFCURVE",
"199 180 OFFCURVE",
"199 246 CURVE",
"223 250 OFFCURVE",
"260 253 OFFCURVE",
"288 253 CURVE SMOOTH",
"357 251 OFFCURVE",
"396 200 OFFCURVE",
"396 143 CURVE SMOOTH",
"396 78 OFFCURVE",
"354 43 OFFCURVE",
"280 42 CURVE SMOOTH",
"246 42 OFFCURVE"
);
},
{
closed = 1;
nodes = (
"199 427 OFFCURVE",
"205 478 CURVE",
"219 484 OFFCURVE",
"243 486 OFFCURVE",
"273 485 CURVE SMOOTH",
"332 484 OFFCURVE",
"361 444 OFFCURVE",
"360 384 CURVE SMOOTH",
"358 347 OFFCURVE",
"329 279 OFFCURVE",
"201 295 CURVE",
"202 359 OFFCURVE"
);
}
);
width = 509;
},
{
layerId = "8B9D8DF0-167E-4E5A-BF63-AC43D342B811";
paths = (
{
closed = 1;
nodes = (
"374 0 OFFCURVE",
"485 32 OFFCURVE",
"497 144 CURVE SMOOTH",
"503 212 OFFCURVE",
"458 276 OFFCURVE",
"381 286 CURVE",
"359 270 LINE",
"427 273 OFFCURVE",
"478 340 OFFCURVE",
"482 402 CURVE SMOOTH",
"489 483 OFFCURVE",
"429 526 OFFCURVE",
"341 526 CURVE SMOOTH",
"242 526 OFFCURVE",
"206 514 OFFCURVE",
"84 523 CURVE",
"87 481 LINE",
"148 486 OFFCURVE",
"155 449 OFFCURVE",
"154 411 CURVE SMOOTH",
"149 306 OFFCURVE",
"141 224 OFFCURVE",
"122 83 CURVE SMOOTH",
"118 51 OFFCURVE",
"96 34 OFFCURVE",
"45 40 CURVE",
"49 0 LINE",
"269 0 LINE SMOOTH"
);
},
{
closed = 1;
nodes = (
"213 42 OFFCURVE",
"213 81 CURVE",
"210 129 OFFCURVE",
"215 180 OFFCURVE",
"221 246 CURVE",
"245 250 OFFCURVE",
"282 253 OFFCURVE",
"310 253 CURVE SMOOTH",
"379 251 OFFCURVE",
"413 200 OFFCURVE",
"409 143 CURVE SMOOTH",
"403 78 OFFCURVE",
"358 43 OFFCURVE",
"284 42 CURVE SMOOTH",
"250 42 OFFCURVE"
);
},
{
closed = 1;
nodes = (
"236 427 OFFCURVE",
"247 478 CURVE",
"261 484 OFFCURVE",
"286 486 OFFCURVE",
"315 485 CURVE SMOOTH",
"374 484 OFFCURVE",
"400 444 OFFCURVE",
"394 384 CURVE SMOOTH",
"388 347 OFFCURVE",
"353 279 OFFCURVE",
"227 295 CURVE",
"233 359 OFFCURVE"
);
}
);
width = 509;
}
);
},
{
glyphname = C.sc;
lastChange = "2018-09-12 15:08:21 +0000";
layers = (
{
layerId = "51BB9282-3B82-4DF1-A67A-294D3E37D73A";
paths = (
{
closed = 1;
nodes = (
"411 22 OFFCURVE",
"458 79 CURVE",
"432 108 LINE",
"398 77 OFFCURVE",
"354 52 OFFCURVE",
"290 52 CURVE SMOOTH",
"196 50 OFFCURVE",
"121 115 OFFCURVE",
"119 231 CURVE SMOOTH",
"116 359 OFFCURVE",
"172 466 OFFCURVE",
"275 466 CURVE SMOOTH",
"350 466 OFFCURVE",
"377 425 OFFCURVE",
"387 423 CURVE",
"422 484 OFFCURVE",
"310 505 OFFCURVE",
"301 491 CURVE",
"331 487 OFFCURVE",
"378 420 OFFCURVE",
"399 363 CURVE",
"445 361 LINE",
"452 388 OFFCURVE",
"454 474 OFFCURVE",
"452 507 CURVE",
"452 507 OFFCURVE",
"400 529 OFFCURVE",
"313 522 CURVE SMOOTH",
"97 504 OFFCURVE",
"15 347 OFFCURVE",
"25 190 CURVE SMOOTH",
"34 55 OFFCURVE",
"146 -12 OFFCURVE",
"261 -12 CURVE SMOOTH",
"354 -12 OFFCURVE"
);
}
);
width = 497;
},
{
layerId = "8B9D8DF0-167E-4E5A-BF63-AC43D342B811";
paths = (
{
closed = 1;
nodes = (
"414 22 OFFCURVE",
"466 79 CURVE",
"442 108 LINE",
"406 77 OFFCURVE",
"360 52 OFFCURVE",
"296 52 CURVE SMOOTH",
"201 50 OFFCURVE",
"132 115 OFFCURVE",
"140 231 CURVE SMOOTH",
"148 359 OFFCURVE",
"214 466 OFFCURVE",
"317 466 CURVE SMOOTH",
"392 466 OFFCURVE",
"415 425 OFFCURVE",
"425 423 CURVE",
"465 484 OFFCURVE",
"355 505 OFFCURVE",
"345 491 CURVE",
"375 487 OFFCURVE",
"416 420 OFFCURVE",
"432 363 CURVE",
"478 361 LINE",
"487 388 OFFCURVE",
"497 474 OFFCURVE",
"497 507 CURVE",
"497 507 OFFCURVE",
"447 529 OFFCURVE",
"360 522 CURVE SMOOTH",
"142 504 OFFCURVE",
"46 347 OFFCURVE",
"43 190 CURVE SMOOTH",
"40 55 OFFCURVE",
"146 -12 OFFCURVE",
"261 -12 CURVE SMOOTH",
"354 -12 OFFCURVE"
);
}
);
width = 497;
}
);
},
{
glyphname = D.sc;
lastChange = "2018-09-12 15:08:21 +0000";
layers = (
{
layerId = "51BB9282-3B82-4DF1-A67A-294D3E37D73A";
paths = (
{
closed = 1;
nodes = (
"189 -1 OFFCURVE",
"239 0 CURVE SMOOTH",
"416 3 OFFCURVE",
"511 91 OFFCURVE",
"514 302 CURVE SMOOTH",
"515 464 OFFCURVE",
"422 526 OFFCURVE",
"316 526 CURVE SMOOTH",
"253 526 OFFCURVE",
"155 514 OFFCURVE",
"19 522 CURVE",
"26 481 LINE",
"86 486 OFFCURVE",
"97 449 OFFCURVE",
"99 411 CURVE SMOOTH",
"105 306 OFFCURVE",
"102 229 OFFCURVE",
"96 88 CURVE SMOOTH",
"95 55 OFFCURVE",
"69 38 OFFCURVE",
"23 40 CURVE",
"30 0 LINE",
"84 0 OFFCURVE"
);
},
{
closed = 1;
nodes = (
"199 52 OFFCURVE",
"195 93 CURVE SMOOTH",
"186 221 OFFCURVE",
"184 316 OFFCURVE",
"195 470 CURVE",
"213 477 OFFCURVE",
"233 484 OFFCURVE",
"268 483 CURVE SMOOTH",
"364 480 OFFCURVE",
"431 396 OFFCURVE",
"426 243 CURVE SMOOTH",
"422 129 OFFCURVE",
"374 51 OFFCURVE",
"264 49 CURVE SMOOTH",
"229 49 OFFCURVE"
);
}
);
width = 539;
},
{
layerId = "8B9D8DF0-167E-4E5A-BF63-AC43D342B811";
paths = (
{
closed = 1;
nodes = (
"189 -1 OFFCURVE",
"239 0 CURVE SMOOTH",
"416 3 OFFCURVE",
"519 91 OFFCURVE",
"540 302 CURVE SMOOTH",
"556 464 OFFCURVE",
"468 526 OFFCURVE",
"362 526 CURVE SMOOTH",
"299 526 OFFCURVE",
"200 514 OFFCURVE",
"65 522 CURVE",
"68 481 LINE",
"129 486 OFFCURVE",
"136 449 OFFCURVE",
"135 411 CURVE SMOOTH",
"132 306 OFFCURVE",
"122 229 OFFCURVE",
"104 88 CURVE SMOOTH",
"100 55 OFFCURVE",
"72 38 OFFCURVE",
"27 40 CURVE",
"30 0 LINE",
"84 0 OFFCURVE"
);
},
{
closed = 1;
nodes = (
"204 52 OFFCURVE",
"203 93 CURVE SMOOTH",
"205 221 OFFCURVE",
"212 316 OFFCURVE",
"236 470 CURVE",
"255 477 OFFCURVE",
"275 484 OFFCURVE",
"310 483 CURVE SMOOTH",
"406 480 OFFCURVE",
"466 396 OFFCURVE",
"447 243 CURVE SMOOTH",
"433 129 OFFCURVE",
"379 51 OFFCURVE",
"268 49 CURVE SMOOTH",
"233 49 OFFCURVE"
);
}
);
width = 539;
}
);
},
{
glyphname = E.sc;
lastChange = "2018-09-12 15:08:21 +0000";
layers = (
{
layerId = "51BB9282-3B82-4DF1-A67A-294D3E37D73A";
paths = (
{
closed = 1;
nodes = (
"423 56 OFFCURVE",
"422 136 OFFCURVE",
"422 139 CURVE",
"367 133 LINE",
"357 82 OFFCURVE",
"342 51 OFFCURVE",
"314 19 CURVE",
"365 59 LINE",
"332 51 OFFCURVE",
"266 42 OFFCURVE",
"206 48 CURVE SMOOTH",
"182 51 OFFCURVE",
"179 71 OFFCURVE",
"179 89 CURVE SMOOTH",
"176 169 OFFCURVE",
"172 306 OFFCURVE",
"186 438 CURVE SMOOTH",
"187 458 OFFCURVE",
"196 477 OFFCURVE",
"228 477 CURVE SMOOTH",
"293 477 OFFCURVE",
"323 476 OFFCURVE",
"375 470 CURVE",
"313 504 LINE",
"341 479 OFFCURVE",
"358 429 OFFCURVE",
"362 390 CURVE",
"417 385 LINE",
"417 385 OFFCURVE",
"423 433 OFFCURVE",
"423 471 CURVE SMOOTH",
"423 487 OFFCURVE",
"421 524 OFFCURVE",
"421 524 CURVE",
"357 521 OFFCURVE",
"296 521 OFFCURVE",
"239 521 CURVE SMOOTH",
"185 521 OFFCURVE",
"83 520 OFFCURVE",
"33 524 CURVE",
"37 484 LINE",
"87 487 OFFCURVE",
"92 466 OFFCURVE",
"94 434 CURVE SMOOTH",
"101 320 OFFCURVE",
"95 194 OFFCURVE",
"88 101 CURVE SMOOTH",
"85 69 OFFCURVE",
"80 43 OFFCURVE",
"30 38 CURVE",
"35 0 LINE",
"419 0 LINE"
);
},
{
closed = 1;
nodes = (
"273 247 OFFCURVE",
"354 243 CURVE",
"354 310 LINE",
"260 298 LINE",
"133 298 LINE",
"133 240 LINE",
"215 242 OFFCURVE"
);
}
);
width = 472;
},
{
layerId = "8B9D8DF0-167E-4E5A-BF63-AC43D342B811";
paths = (
{
closed = 1;
nodes = (
"428 56 OFFCURVE",
"434 136 OFFCURVE",
"434 139 CURVE",
"379 133 LINE",
"364 82 OFFCURVE",
"346 51 OFFCURVE",
"316 19 CURVE",
"370 59 LINE",
"336 51 OFFCURVE",
"270 42 OFFCURVE",
"210 48 CURVE SMOOTH",
"186 51 OFFCURVE",
"185 71 OFFCURVE",
"187 89 CURVE SMOOTH",
"191 169 OFFCURVE",
"199 306 OFFCURVE",
"224 438 CURVE SMOOTH",
"227 458 OFFCURVE",
"238 477 OFFCURVE",
"270 477 CURVE SMOOTH",
"335 477 OFFCURVE",
"365 476 OFFCURVE",
"416 470 CURVE",
"357 504 LINE",
"383 479 OFFCURVE",
"396 429 OFFCURVE",
"396 390 CURVE",
"451 385 LINE",
"451 385 OFFCURVE",
"461 433 OFFCURVE",
"464 471 CURVE SMOOTH",
"466 487 OFFCURVE",
"467 524 OFFCURVE",
"467 524 CURVE",
"403 521 OFFCURVE",
"342 521 OFFCURVE",
"285 521 CURVE SMOOTH",
"231 521 OFFCURVE",
"128 520 OFFCURVE",
"79 524 CURVE",
"79 484 LINE",
"130 487 OFFCURVE",
"133 466 OFFCURVE",
"132 434 CURVE SMOOTH",
"129 320 OFFCURVE",
"112 194 OFFCURVE",
"97 101 CURVE SMOOTH",
"91 69 OFFCURVE",
"84 43 OFFCURVE",
"33 38 CURVE",
"35 0 LINE",
"419 0 LINE"
);
},
{
closed = 1;
nodes = (
"295 247 OFFCURVE",
"375 243 CURVE",
"381 310 LINE",
"286 298 LINE",
"159 298 LINE",
"154 240 LINE",
"236 242 OFFCURVE"
);
}
);
width = 472;
}
);
},
{
glyphname = F.sc;
lastChange = "2018-09-12 15:08:21 +0000";
layers = (
{
layerId = "51BB9282-3B82-4DF1-A67A-294D3E37D73A";
paths = (
{
closed = 1;
nodes = (
"262 32 LINE",
"210 32 OFFCURVE",
"199 66 OFFCURVE",
"197 95 CURVE SMOOTH",
"194 132 OFFCURVE",
"193 290 OFFCURVE",
"203 434 CURVE SMOOTH",
"205 461 OFFCURVE",
"215 477 OFFCURVE",
"253 477 CURVE SMOOTH",
"409 472 LINE",
"353 504 LINE",
"381 479 OFFCURVE",
"398 429 OFFCURVE",
"403 390 CURVE",
"462 385 LINE",
"462 385 OFFCURVE",
"468 433 OFFCURVE",
"468 471 CURVE SMOOTH",
"468 487 OFFCURVE",
"466 524 OFFCURVE",
"466 524 CURVE",
"383 521 OFFCURVE",
"298 520 OFFCURVE",
"242 520 CURVE SMOOTH",
"186 520 OFFCURVE",
"99 520 OFFCURVE",
"48 524 CURVE",
"52 484 LINE",
"102 487 OFFCURVE",
"111 466 OFFCURVE",
"112 434 CURVE SMOOTH",
"119 316 OFFCURVE",
"116 177 OFFCURVE",
"109 89 CURVE",
"103 47 OFFCURVE",
"91 0 OFFCURVE",
"91 0 CURVE",
"251 1 LINE"
);
},
{
closed = 1;
nodes = (
"273 33 LINE",
"263 33 OFFCURVE",
"196 33 OFFCURVE",
"197 95 CURVE",
"109 90 LINE",
"104 59 OFFCURVE",
"90 38 OFFCURVE",
"35 40 CURVE",
"42 0 LINE",
"280 0 LINE"
);
},
{
closed = 1;
nodes = (
"300 290 LINE",
"142 290 LINE",
"142 242 LINE",
"224 243 OFFCURVE",
"312 242 OFFCURVE",
"393 237 CURVE",
"393 302 LINE"
);
}
);
width = 496;
},
{
layerId = "8B9D8DF0-167E-4E5A-BF63-AC43D342B811";
paths = (
{
closed = 1;
nodes = (
"265 32 LINE",
"213 32 OFFCURVE",
"205 66 OFFCURVE",
"205 95 CURVE SMOOTH",
"206 132 OFFCURVE",
"218 290 OFFCURVE",
"241 434 CURVE SMOOTH",
"245 461 OFFCURVE",
"257 477 OFFCURVE",
"295 477 CURVE SMOOTH",
"450 472 LINE",
"397 504 LINE",
"423 479 OFFCURVE",
"436 429 OFFCURVE",
"437 390 CURVE",
"496 385 LINE",
"496 385 OFFCURVE",
"506 433 OFFCURVE",
"509 471 CURVE SMOOTH",
"511 487 OFFCURVE",
"512 524 OFFCURVE",
"512 524 CURVE",
"429 521 OFFCURVE",
"343 520 OFFCURVE",
"287 520 CURVE SMOOTH",
"231 520 OFFCURVE",
"144 520 OFFCURVE",
"94 524 CURVE",
"94 484 LINE",
"145 487 OFFCURVE",
"152 466 OFFCURVE",
"150 434 CURVE SMOOTH",
"147 316 OFFCURVE",
"131 177 OFFCURVE",
"117 89 CURVE",
"107 47 OFFCURVE",
"91 0 OFFCURVE",
"91 0 CURVE",
"251 1 LINE"
);
},
{
closed = 1;
nodes = (
"276 33 LINE",
"266 33 OFFCURVE",
"199 33 OFFCURVE",
"205 95 CURVE",
"117 90 LINE",
"109 59 OFFCURVE",
"93 38 OFFCURVE",
"38 40 CURVE",
"42 0 LINE",
"280 0 LINE"
);
},
{
closed = 1;
nodes = (
"325 290 LINE",
"167 290 LINE",
"163 242 LINE",
"245 243 OFFCURVE",
"333 242 OFFCURVE",
"414 237 CURVE",
"419 302 LINE"
);
}
);
width = 496;
}
);
},
{
glyphname = G.sc;
lastChange = "2018-09-12 15:08:21 +0000";
layers = (
{
layerId = "51BB9282-3B82-4DF1-A67A-294D3E37D73A";
paths = (
{
closed = 1;
nodes = (
"435 2 OFFCURVE",
"474 47 CURVE",
"430 82 LINE",
"401 54 OFFCURVE",
"375 39 OFFCURVE",
"306 40 CURVE SMOOTH",
"180 42 OFFCURVE",
"118 133 OFFCURVE",
"116 259 CURVE SMOOTH",
"114 399 OFFCURVE",
"206 481 OFFCURVE",
"309 483 CURVE SMOOTH",
"399 485 OFFCURVE",
"422 442 OFFCURVE",
"435 440 CURVE",
"470 502 OFFCURVE",
"350 514 OFFCURVE",
"341 501 CURVE",
"371 496 OFFCURVE",
"413 448 OFFCURVE",
"434 390 CURVE",
"477 389 LINE",
"479 416 OFFCURVE",
"474 481 OFFCURVE",
"473 515 CURVE",
"473 515 OFFCURVE",
"415 531 OFFCURVE",
"337 531 CURVE SMOOTH",
"122 531 OFFCURVE",
"18 400 OFFCURVE",
"20 236 CURVE SMOOTH",
"22 90 OFFCURVE",
"115 -19 OFFCURVE",
"298 -19 CURVE SMOOTH",
"365 -19 OFFCURVE"
);
},
{
closed = 1;
nodes = (
"476 76 OFFCURVE",
"476 125 OFFCURVE",
"476 169 CURVE SMOOTH",
"476 220 OFFCURVE",
"521 215 OFFCURVE",
"531 215 CURVE",
"525 254 LINE",
"454 250 OFFCURVE",
"406 249 OFFCURVE",
"332 254 CURVE",
"336 212 LINE",
"381 214 OFFCURVE",
"400 197 OFFCURVE",
"402 171 CURVE",
"402 122 OFFCURVE",
"400 65 OFFCURVE",
"384 22 CURVE",
"474 47 LINE"
);
}
);
width = 561;
},
{
layerId = "8B9D8DF0-167E-4E5A-BF63-AC43D342B811";
paths = (
{
closed = 1;
nodes = (
"437 2 OFFCURVE",
"480 47 CURVE",
"439 82 LINE",
"407 54 OFFCURVE",
"380 39 OFFCURVE",
"311 40 CURVE SMOOTH",
"185 42 OFFCURVE",
"131 133 OFFCURVE",
"140 259 CURVE SMOOTH",
"151 399 OFFCURVE",
"250 481 OFFCURVE",
"353 483 CURVE SMOOTH",
"443 485 OFFCURVE",
"462 442 OFFCURVE",
"475 440 CURVE",
"516 502 OFFCURVE",
"397 514 OFFCURVE",
"386 501 CURVE",
"416 496 OFFCURVE",
"454 448 OFFCURVE",
"470 390 CURVE",
"513 389 LINE",
"517 416 OFFCURVE",
"518 481 OFFCURVE",
"520 515 CURVE",
"520 515 OFFCURVE",
"463 531 OFFCURVE",
"385 531 CURVE SMOOTH",
"170 531 OFFCURVE",
"55 400 OFFCURVE",
"42 236 CURVE SMOOTH",
"32 90 OFFCURVE",
"115 -19 OFFCURVE",
"298 -19 CURVE SMOOTH",
"365 -19 OFFCURVE"
);
},
{
closed = 1;
nodes = (
"484 76 OFFCURVE",
"489 125 OFFCURVE",
"492 169 CURVE SMOOTH",
"497 220 OFFCURVE",
"541 215 OFFCURVE",
"551 215 CURVE",
"549 254 LINE",
"478 250 OFFCURVE",
"429 249 OFFCURVE",
"356 254 CURVE",
"356 212 LINE",
"401 214 OFFCURVE",
"419 197 OFFCURVE",
"419 171 CURVE",
"414 122 OFFCURVE",
"407 65 OFFCURVE",
"388 22 CURVE",
"480 47 LINE"
);
}
);
width = 561;
}
);
},
